<?xml version="1.0" encoding="UTF-8"?>
<svg version="1.1" xmlns="http://www.w3.org/2000/svg" width="512" height="512">
<path d="M0 0 C0.85183483 -0.0072672 1.70366966 -0.01453441 2.58131766 -0.02202183 C5.44942188 -0.04033911 8.31620012 -0.02288532 11.18429565 -0.00571251 C13.25570423 -0.01147103 15.3271077 -0.01941033 17.39850044 -0.02934873 C23.10127895 -0.05028209 28.80364079 -0.03987726 34.50642109 -0.02441764 C40.65239137 -0.01313464 46.7982885 -0.03055168 52.94424438 -0.04431725 C64.29180969 -0.06529882 75.63920457 -0.06343387 86.98676568 -0.0497599 C97.46914755 -0.03719025 107.95148055 -0.03389481 118.43386841 -0.03987312 C119.47618355 -0.04044601 119.47618355 -0.04044601 120.53955556 -0.04103047 C123.36017036 -0.04258712 126.18078514 -0.04417912 129.00139988 -0.04582929 C155.46982959 -0.06112996 181.93817437 -0.04724803 208.40659097 -0.02034481 C231.93068256 0.00338388 255.45463884 0.00126077 278.97872925 -0.02264977 C305.39823166 -0.04941341 331.817659 -0.06004492 358.23717308 -0.04458845 C361.05269748 -0.04298482 363.8682219 -0.04142062 366.68374634 -0.03987312 C367.72365422 -0.03928004 367.72365422 -0.03928004 368.78457035 -0.03867498 C379.26127751 -0.03298367 389.73793047 -0.03964632 400.21463013 -0.05227089 C412.125176 -0.06655156 424.03556201 -0.06254412 435.94610167 -0.03586717 C442.02669824 -0.02269827 448.10701971 -0.01762909 454.18761444 -0.03411293 C459.74900746 -0.0489616 465.30986917 -0.04090813 470.87121367 -0.01422517 C472.88795816 -0.00861862 474.90474712 -0.01152896 476.92146325 -0.02360411 C479.65416015 -0.0387169 482.38501551 -0.02331245 485.11761475 0 C485.90843185 -0.01170583 486.69924896 -0.02341166 487.51403022 -0.03547221 C491.40554 0.03129993 493.3749946 0.49489197 496.54705656 2.8127476 C498.82305113 5.99914787 499.18482637 7.45220206 499.18801308 11.3217411 C499.20105181 12.46419981 499.21409055 13.60665852 499.2275244 14.78373718 C499.21637079 16.03421152 499.20521718 17.28468586 499.19372559 18.57305336 C499.19948736 19.91850082 499.20742887 21.26394042 499.21736181 22.60936356 C499.23825142 26.30554088 499.22791092 30.00107346 499.21243072 33.69725323 C499.20112956 37.68370959 499.21857373 41.67005417 499.23233032 45.65648842 C499.25458057 53.46548472 499.24975365 61.27424094 499.23526712 69.08324671 C499.22398188 75.42892905 499.22244087 81.77454404 499.2278862 88.12023354 C499.22903545 89.47420359 499.22903545 89.47420359 499.23020791 90.85552657 C499.23180652 92.68915226 499.23342758 94.52277793 499.23507087 96.35640359 C499.2493336 113.55625194 499.23292744 130.75596711 499.20606904 147.95579362 C499.18372977 162.71874248 499.18760976 177.48149477 499.21066284 192.24444008 C499.2374116 209.38211683 499.24796026 226.51967681 499.23260152 243.65737152 C499.23100875 245.48430695 499.2294369 247.3112424 499.2278862 249.13817787 C499.22672913 250.48656004 499.22672913 250.48656004 499.22554869 251.86218226 C499.22122891 258.20132028 499.22852422 264.54038432 499.24028397 270.87951088 C499.25429726 278.60330726 499.25053381 286.32684953 499.22388025 294.05061674 C499.21072611 297.99258188 499.20561643 301.93412314 499.22212601 305.87608528 C499.23700626 309.48353573 499.22887064 313.09016872 499.20223825 316.69754481 C499.19399154 318.62325541 499.21034855 320.54902257 499.2275244 322.47467422 C499.21448566 323.61713293 499.20144693 324.75959164 499.18801308 325.9366703 C499.18679543 327.41522279 499.18679543 327.41522279 499.18555319 328.92364502 C498.27752801 332.8434434 496.79067949 334.26764623 493.55880737 336.6292057 C490.55364084 337.12045175 488.11823893 337.30282724 485.11761475 337.25841141 C483.8398625 337.26931221 483.8398625 337.26931221 482.53629708 337.28043324 C479.66819286 337.29875052 476.80141462 337.28129672 473.93331909 337.26412392 C471.86191052 337.26988244 469.79050704 337.27782174 467.7191143 337.28776014 C462.0163358 337.3086935 456.31397395 337.29828867 450.61119366 337.28282905 C444.46522338 337.27154604 438.31932625 337.28896308 432.17337036 337.30272865 C420.82580505 337.32371023 409.47841018 337.32184528 398.13084906 337.30817131 C387.64846719 337.29560166 377.1661342 337.29230622 366.68374634 337.29828453 C365.6414312 337.29885742 365.6414312 337.29885742 364.57805918 337.29944188 C361.75744438 337.30099853 358.93682961 337.30259053 356.11621486 337.3042407 C329.64778516 337.31954137 303.17944038 337.30565944 276.71102378 337.27875621 C253.18693218 337.25502753 229.66297591 337.25715064 206.1388855 337.28106117 C179.71938309 337.30782481 153.29995575 337.31845633 126.88044167 337.30299985 C124.06491726 337.30139623 121.24939284 337.29983203 118.43386841 337.29828453 C117.39396052 337.29769145 117.39396052 337.29769145 116.33304439 337.29708639 C105.85633724 337.29139508 95.37968428 337.29805773 84.90298462 337.3106823 C72.99243875 337.32496297 61.08205273 337.32095553 49.17151308 337.29427858 C43.0909165 337.28110968 37.01059504 337.2760405 30.93000031 337.29252434 C25.36860728 337.30737301 19.80774557 337.29931953 14.24640107 337.27263658 C12.22965658 337.26703002 10.21286763 337.26994037 8.19615149 337.28201552 C5.4634546 337.29712831 2.73259924 337.28172386 0 337.25841141 C-0.79081711 337.27011724 -1.58163421 337.28182307 -2.39641547 337.29388362 C-6.28792525 337.22711148 -8.25737985 336.76351943 -11.42944181 334.44566381 C-13.70543638 331.25926354 -14.06721162 329.80620935 -14.07039833 325.9366703 C-14.08343707 324.7942116 -14.0964758 323.65175289 -14.10990965 322.47467422 C-14.09875605 321.22419989 -14.08760244 319.97372555 -14.07611084 318.68535805 C-14.08187262 317.33991058 -14.08981413 315.99447099 -14.09974706 314.64904785 C-14.12063668 310.95287053 -14.11029617 307.25733795 -14.09481597 303.56115818 C-14.08351482 299.57470181 -14.10095899 295.58835723 -14.11471558 291.60192299 C-14.13696582 283.79292669 -14.1321389 275.98417047 -14.11765237 268.1751647 C-14.10636713 261.82948236 -14.10482613 255.48386737 -14.11027145 249.13817787 C-14.11103762 248.23553117 -14.11180378 247.33288447 -14.11259317 246.40288484 C-14.11419177 244.56925915 -14.11581284 242.73563347 -14.11745612 240.90200782 C-14.13171886 223.70215947 -14.11531269 206.5024443 -14.08845429 189.30261779 C-14.06611503 174.53966893 -14.06999501 159.77691664 -14.0930481 145.01397133 C-14.11979686 127.87629458 -14.13034551 110.73873459 -14.11498678 93.60103989 C-14.11339401 91.77410445 -14.11182215 89.947169 -14.11027145 88.12023354 C-14.10950008 87.22131209 -14.1087287 86.32239064 -14.10793395 85.39622915 C-14.10361417 79.05709113 -14.11090947 72.71802709 -14.12266922 66.37890053 C-14.13668251 58.65510415 -14.13291907 50.93156188 -14.1062655 43.20779467 C-14.09311137 39.26582952 -14.08800168 35.32428827 -14.10451126 31.38232613 C-14.11939151 27.77487568 -14.11125589 24.16824269 -14.0846235 20.56086659 C-14.07637679 18.635156 -14.0927338 16.70938883 -14.10990965 14.78373718 C-14.09687092 13.64127848 -14.08383218 12.49881977 -14.07039833 11.3217411 C-14.06958657 10.33603945 -14.06877481 9.35033779 -14.06793845 8.33476639 C-12.326103 0.81554354 -6.79442971 -0.10057249 0 0 Z " fill="#73AF00" transform="translate(13.441192626953125,87.37079429626465)"/>
<path d="M0 0 C2.63378063 1.2771629 4.97571817 2.57509852 7.4375 4.125 C8.16630371 4.56875977 8.89510742 5.01251953 9.64599609 5.46972656 C11.24741513 6.44653542 12.84524803 7.42924146 14.43994141 8.41699219 C17.09045516 10.05593279 19.75242206 11.67469734 22.41796875 13.2890625 C27.29443737 16.24421683 32.16247243 19.21294461 37.02832031 22.18554688 C41.84900566 25.12896895 46.67470088 28.06415003 51.5 31 C53.41669182 32.16662534 55.33335846 33.33329205 57.25 34.5 C58.19875 35.0775 59.1475 35.655 60.125 36.25 C86 52 111.875 67.75 137.75 83.5 C138.6997168 84.07806396 139.64943359 84.65612793 140.62792969 85.25170898 C142.53491883 86.41253432 144.4418206 87.5735032 146.34863281 88.73461914 C151.28764041 91.74187155 156.22837167 94.74623655 161.171875 97.74609375 C162.18958984 98.36419922 163.20730469 98.98230469 164.25585938 99.61914062 C166.17846427 100.78674999 168.10159639 101.9534919 170.02539062 103.11914062 C172.68896505 104.73749037 175.34507723 106.36750288 178 108 C178.99322266 108.60215332 179.98644531 109.20430664 181.00976562 109.82470703 C182.48219727 110.73325439 182.48219727 110.73325439 183.984375 111.66015625 C184.87350586 112.20422119 185.76263672 112.74828613 186.67871094 113.30883789 C189.03885436 115.02830713 190.47602977 116.52063653 192 119 C192.51867654 122.48254251 192.43108545 124.28990646 190.59375 127.31640625 C186.91355702 131.1240758 182.64979712 133.40872653 178.0625 136 C176.05488378 137.15954587 174.04839867 138.32105202 172.04296875 139.484375 C171.0276709 140.07154297 170.01237305 140.65871094 168.96630859 141.26367188 C164.55290357 143.8470576 160.21183549 146.54064272 155.875 149.25 C147.76135238 154.30349361 139.61132504 159.29458525 131.4375 164.25 C130.8481366 164.60735229 130.25877319 164.96470459 129.65155029 165.33288574 C126.63895869 167.15931358 123.62597112 168.9850869 120.61279297 170.81054688 C115.32011727 174.01740832 110.03094992 177.23004715 104.74157715 180.44235229 C101.83436291 182.20788331 98.92694484 183.97307855 96.01953125 185.73828125 C95.44302826 186.08830704 94.86652527 186.43833282 94.27255249 186.79896545 C90.72244275 188.95438702 87.17215702 191.10951842 83.62174988 193.26445007 C65.39619282 204.32652451 47.17939647 215.40289882 28.97558594 226.50073242 C27.01771775 227.69283447 25.05876146 228.88315161 23.09863281 230.0715332 C18.85675343 232.64338423 14.62532964 235.22596766 10.43359375 237.87890625 C9.74974609 238.30582764 9.06589844 238.73274902 8.36132812 239.17260742 C7.13051864 239.94186335 5.90585097 240.72109164 4.68945312 241.51293945 C0.94893275 243.8306062 -1.63236705 244.69079909 -6 244 C-8.63378063 242.7228371 -10.97571817 241.42490148 -13.4375 239.875 C-14.16630371 239.43124023 -14.89510742 238.98748047 -15.64599609 238.53027344 C-17.24741513 237.55346458 -18.84524803 236.57075854 -20.43994141 235.58300781 C-23.09045516 233.94406721 -25.75242206 232.32530266 -28.41796875 230.7109375 C-33.29443737 227.75578317 -38.16247243 224.78705539 -43.02832031 221.81445312 C-47.84900566 218.87103105 -52.67470088 215.93584997 -57.5 213 C-59.41669182 211.83337466 -61.33335846 210.66670795 -63.25 209.5 C-64.19875 208.9225 -65.1475 208.345 -66.125 207.75 C-92 192 -117.875 176.25 -143.75 160.5 C-144.6997168 159.92193604 -145.64943359 159.34387207 -146.62792969 158.74829102 C-148.53491883 157.58746568 -150.4418206 156.4264968 -152.34863281 155.26538086 C-157.28764041 152.25812845 -162.22837167 149.25376345 -167.171875 146.25390625 C-168.69844727 145.32674805 -168.69844727 145.32674805 -170.25585938 144.38085938 C-172.17846427 143.21325001 -174.10159639 142.0465081 -176.02539062 140.88085938 C-178.68896505 139.26250963 -181.34507723 137.63249712 -184 136 C-184.99322266 135.39784668 -185.98644531 134.79569336 -187.00976562 134.17529297 C-187.99138672 133.56959473 -188.97300781 132.96389648 -189.984375 132.33984375 C-190.87350586 131.79577881 -191.76263672 131.25171387 -192.67871094 130.69116211 C-195.03885436 128.97169287 -196.47602977 127.47936347 -198 125 C-198.51867654 121.51745749 -198.43108545 119.71009354 -196.59375 116.68359375 C-192.91355702 112.8759242 -188.64979712 110.59127347 -184.0625 108 C-182.05488378 106.84045413 -180.04839867 105.67894798 -178.04296875 104.515625 C-177.0276709 103.92845703 -176.01237305 103.34128906 -174.96630859 102.73632812 C-170.55290357 100.1529424 -166.21183549 97.45935728 -161.875 94.75 C-153.76135238 89.69650639 -145.61132504 84.70541475 -137.4375 79.75 C-136.8481366 79.39264771 -136.25877319 79.03529541 -135.65155029 78.66711426 C-132.63895869 76.84068642 -129.62597112 75.0149131 -126.61279297 73.18945312 C-121.32011727 69.98259168 -116.03094992 66.76995285 -110.74157715 63.55764771 C-107.83436291 61.79211669 -104.92694484 60.02692145 -102.01953125 58.26171875 C-101.15477676 57.73668007 -101.15477676 57.73668007 -100.27255249 57.20103455 C-96.72244275 55.04561298 -93.17215702 52.89048158 -89.62174988 50.73554993 C-71.39619282 39.67347549 -53.17939647 28.59710118 -34.97558594 17.49926758 C-33.01771775 16.30716553 -31.05876146 15.11684839 -29.09863281 13.9284668 C-24.85675343 11.35661577 -20.62532964 8.77403234 -16.43359375 6.12109375 C-15.74974609 5.69417236 -15.06589844 5.26725098 -14.36132812 4.82739258 C-13.13051864 4.05813665 -11.90585097 3.27890836 -10.68945312 2.48706055 C-6.94893275 0.1693938 -4.36763295 -0.69079909 0 0 Z " fill="#FEE059" transform="translate(259,134)"/>
<path d="M0 0 C36.45620874 -0.63626248 36.45620874 -0.63626248 52 3 C52.77408203 3.17692383 53.54816406 3.35384766 54.34570312 3.53613281 C82.00060692 9.99787183 107.09647992 20.70135264 129 39 C130.66415187 40.33647077 132.33018861 41.6706071 134 43 C131.25667803 53.4246235 124.39885268 61.46504802 117 69 C116.31164062 69.71285156 115.62328125 70.42570312 114.9140625 71.16015625 C108.83839458 77.02125598 101.77569267 80.83900993 94 84 C93.12980225 84.35376709 92.25960449 84.70753418 91.36303711 85.07202148 C83.55136909 87.9751242 76.48403914 88.66654788 68.1875 88.5625 C66.95644531 88.55226807 65.72539062 88.54203613 64.45703125 88.53149414 C55.11149332 88.31353861 47.46332685 87.194497 39 83 C37.94167969 82.48050781 36.88335937 81.96101563 35.79296875 81.42578125 C28.63338147 77.56230585 22.7454159 72.72597287 17 67 C16.28972656 66.31292969 15.57945312 65.62585938 14.84765625 64.91796875 C8.97645641 58.84392516 5.16825847 51.77696303 2 44 C1.64405762 43.13777832 1.28811523 42.27555664 0.92138672 41.38720703 C-2.10769891 33.32621243 -2.5471949 26.05536786 -2.375 17.5 C-2.37371094 16.2521875 -2.37242187 15.004375 -2.37109375 13.71875 C-2.27452815 3.76176326 -2.27452815 3.76176326 0 0 Z " fill="#43499B" transform="translate(188,238)"/>
<path d="M0 0 C1.85020752 0.00362549 1.85020752 0.00362549 3.73779297 0.00732422 C14.01309235 0.2132879 22.26789716 2.01429335 31.4375 6.5625 C32.39269531 7.03042969 33.34789062 7.49835938 34.33203125 7.98046875 C40.82880801 11.5432173 46.17011631 16.39907783 51.4375 21.5625 C52.13875 22.22765625 52.84 22.8928125 53.5625 23.578125 C60.0348308 30.20215105 63.75094122 38.17924278 67.4375 46.5625 C67.82292969 47.41585937 68.20835937 48.26921875 68.60546875 49.1484375 C71.70461028 57.44191484 70.67886019 66.85565457 70.4375 75.5625 C66.44652159 73.75753489 62.92344454 71.26333257 59.3125 68.8125 C57.28554497 67.45789489 55.25618946 66.10694501 53.2265625 64.75634766 C51.80290952 63.80633905 50.38484343 62.84795938 48.96875 61.88671875 C31.88801197 50.90182382 10.25498909 43.69529295 -9.5625 39.5625 C-10.75359375 39.30726563 -11.9446875 39.05203125 -13.171875 38.7890625 C-28.43191525 35.78223098 -44.06355117 35.3572813 -59.5625 34.5625 C-57.2072485 28.30414885 -53.1730642 24.32626333 -48.5625 19.5625 C-47.8921875 18.85480469 -47.221875 18.14710938 -46.53125 17.41796875 C-34.06720251 5.26552245 -17.04319822 -0.03477731 0 0 Z " fill="#42489A" transform="translate(255.5625,185.4375)"/>
<path d="M0 0 C12.84549731 -0.22602048 25.29484677 0.0345454 38 2 C38.71140137 2.10715332 39.42280273 2.21430664 40.15576172 2.32470703 C71.36555658 7.11816312 108.10294469 19.10294469 131 42 C131.47675477 48.55537815 130.12764994 53.8196835 128 60 C123.38438654 60 123.20659554 59.63810021 120.125 56.5625 C114.28930154 51.15589702 107.80870312 47.04473866 101 43 C100.40944824 42.64905273 99.81889648 42.29810547 99.21044922 41.93652344 C88.95974591 35.94779158 78.21015848 31.83104208 67 28 C66.26531494 27.73856201 65.53062988 27.47712402 64.77368164 27.20776367 C59.31316224 25.3031259 53.86481821 24.01614607 48.1875 22.9375 C47.37474609 22.77701172 46.56199219 22.61652344 45.72460938 22.45117188 C43.15280695 21.94970061 40.57676797 21.47522943 38 21 C36.66171143 20.73074707 36.66171143 20.73074707 35.29638672 20.45605469 C26.45913986 18.79047473 17.71222904 18.56207849 8.75 18.375 C7.21482429 18.33670984 5.67966753 18.29765224 4.14453125 18.2578125 C0.42986343 18.163049 -3.28495071 18.07859495 -7 18 C-6.31089735 13.31638948 -5.13612323 9.8351296 -2.9375 5.625 C-2.38964844 4.56539062 -1.84179688 3.50578125 -1.27734375 2.4140625 C-0.85582031 1.61742187 -0.43429688 0.82078125 0 0 Z " fill="#F1F1F3" transform="translate(195,220)"/>
<path d="M0 0 C0.99 0.33 1.98 0.66 3 1 C3 2.65 3 4.3 3 6 C5.31 6 7.62 6 10 6 C10 6.66 10 7.32 10 8 C9.01 8.66 8.02 9.32 7 10 C6.74984127 13.58357241 6.74984127 13.58357241 7 17 C5.948125 16.62875 4.89625 16.2575 3.8125 15.875 C-0.18632214 14.95723754 -1.49128216 15.08615391 -5 17 C-4.9071875 15.39125 -4.9071875 15.39125 -4.8125 13.75 C-5.00543309 9.89133813 -5.39665076 8.71182212 -8 6 C-5.69 6 -3.38 6 -1 6 C-0.67 4.02 -0.34 2.04 0 0 Z " fill="#EBECF0" transform="translate(257,280)"/>
<path d="M0 0 C0.66 0.33 1.32 0.66 2 1 C2 1.66 2 2.32 2 3 C2.99 3.33 3.98 3.66 5 4 C4.67 5.65 4.34 7.3 4 9 C1.125 8.8125 1.125 8.8125 -2 8 C-3.375 5.4375 -3.375 5.4375 -4 3 C-3.01 2.67 -2.02 2.34 -1 2 C-0.67 1.34 -0.34 0.68 0 0 Z " fill="#E5E5ED" transform="translate(216,281)"/>
<path d="M0 0 C0.33 0.66 0.66 1.32 1 2 C1.99 2 2.98 2 4 2 C3.67 3.65 3.34 5.3 3 7 C1.35 7 -0.3 7 -2 7 C-2.33 5.35 -2.66 3.7 -3 2 C-2.01 1.34 -1.02 0.68 0 0 Z " fill="#D6D7E5" transform="translate(241,294)"/>
<path d="M0 0 C0.33 0.66 0.66 1.32 1 2 C1.99 2 2.98 2 4 2 C3.67 3.65 3.34 5.3 3 7 C1.35 7 -0.3 7 -2 7 C-2.33 5.35 -2.66 3.7 -3 2 C-2.01 2 -1.02 2 0 2 C0 1.34 0 0.68 0 0 Z " fill="#D5D6E5" transform="translate(301,281)"/>
<path d="M0 0 C0.33 0.66 0.66 1.32 1 2 C1.99 2 2.98 2 4 2 C3.67 3.65 3.34 5.3 3 7 C1.35 7 -0.3 7 -2 7 C-2.33 5.35 -2.66 3.7 -3 2 C-2.01 2 -1.02 2 0 2 C0 1.34 0 0.68 0 0 Z " fill="#DADBE7" transform="translate(283,224)"/>
<path d="M0 0 C1.32 0.66 2.64 1.32 4 2 C3.67 3.65 3.34 5.3 3 7 C1.35 7 -0.3 7 -2 7 C-2.33 5.35 -2.66 3.7 -3 2 C-2.01 2 -1.02 2 0 2 C0 1.34 0 0.68 0 0 Z " fill="#D9DAE7" transform="translate(281,295)"/>
<path d="M0 0 C1.32 0.99 2.64 1.98 4 3 C3.34 4.32 2.68 5.64 2 7 C0.68 7 -0.64 7 -2 7 C-2.33 5.35 -2.66 3.7 -3 2 C-2.01 2 -1.02 2 0 2 C0 1.34 0 0.68 0 0 Z " fill="#DCDDE8" transform="translate(248,270)"/>
<path d="M0 0 C1.32 0.99 2.64 1.98 4 3 C3.67 3.99 3.34 4.98 3 6 C1.68 6 0.36 6 -1 6 C-1.66 4.68 -2.32 3.36 -3 2 C-2.01 2 -1.02 2 0 2 C0 1.34 0 0.68 0 0 Z " fill="#E9E9EF" transform="translate(203,267)"/>
<path d="M0 0 C0.99 0.66 1.98 1.32 3 2 C2.67 3.32 2.34 4.64 2 6 C1.01 5.67 0.02 5.34 -1 5 C-1.33 4.01 -1.66 3.02 -2 2 C-1.34 2 -0.68 2 0 2 C0 1.34 0 0.68 0 0 Z " fill="#D8D9E6" transform="translate(206,253)"/>
</svg>
