<?xml version="1.0" encoding="UTF-8"?>
<svg version="1.1" xmlns="http://www.w3.org/2000/svg" width="512" height="512">
<path d="M0 0 C0.85183483 -0.0072672 1.70366966 -0.01453441 2.58131766 -0.02202183 C5.44942188 -0.04033911 8.31620012 -0.02288532 11.18429565 -0.00571251 C13.25570423 -0.01147103 15.3271077 -0.01941033 17.39850044 -0.02934873 C23.10127895 -0.05028209 28.80364079 -0.03987726 34.50642109 -0.02441764 C40.65239137 -0.01313464 46.7982885 -0.03055168 52.94424438 -0.04431725 C64.29180969 -0.06529882 75.63920457 -0.06343387 86.98676568 -0.0497599 C97.46914755 -0.03719025 107.95148055 -0.03389481 118.43386841 -0.03987312 C119.47618355 -0.04044601 119.47618355 -0.04044601 120.53955556 -0.04103047 C123.36017036 -0.04258712 126.18078514 -0.04417912 129.00139988 -0.04582929 C155.46982959 -0.06112996 181.93817437 -0.04724803 208.40659097 -0.02034481 C231.93068256 0.00338388 255.45463884 0.00126077 278.97872925 -0.02264977 C305.39823166 -0.04941341 331.817659 -0.06004492 358.23717308 -0.04458845 C361.05269748 -0.04298482 363.8682219 -0.04142062 366.68374634 -0.03987312 C367.72365422 -0.03928004 367.72365422 -0.03928004 368.78457035 -0.03867498 C379.26127751 -0.03298367 389.73793047 -0.03964632 400.21463013 -0.05227089 C412.125176 -0.06655156 424.03556201 -0.06254412 435.94610167 -0.03586717 C442.02669824 -0.02269827 448.10701971 -0.01762909 454.18761444 -0.03411293 C459.74900746 -0.0489616 465.30986917 -0.04090813 470.87121367 -0.01422517 C472.88795816 -0.00861862 474.90474712 -0.01152896 476.92146325 -0.02360411 C479.65416015 -0.0387169 482.38501551 -0.02331245 485.11761475 0 C485.90843185 -0.01170583 486.69924896 -0.02341166 487.51403022 -0.03547221 C491.40554 0.03129993 493.3749946 0.49489197 496.54705656 2.8127476 C498.82305113 5.99914787 499.18482637 7.45220206 499.18801308 11.3217411 C499.20105181 12.46419981 499.21409055 13.60665852 499.2275244 14.78373718 C499.21637079 16.03421152 499.20521718 17.28468586 499.19372559 18.57305336 C499.19948736 19.91850082 499.20742887 21.26394042 499.21736181 22.60936356 C499.23825142 26.30554088 499.22791092 30.00107346 499.21243072 33.69725323 C499.20112956 37.68370959 499.21857373 41.67005417 499.23233032 45.65648842 C499.25458057 53.46548472 499.24975365 61.27424094 499.23526712 69.08324671 C499.22398188 75.42892905 499.22244087 81.77454404 499.2278862 88.12023354 C499.22903545 89.47420359 499.22903545 89.47420359 499.23020791 90.85552657 C499.23180652 92.68915226 499.23342758 94.52277793 499.23507087 96.35640359 C499.2493336 113.55625194 499.23292744 130.75596711 499.20606904 147.95579362 C499.18372977 162.71874248 499.18760976 177.48149477 499.21066284 192.24444008 C499.2374116 209.38211683 499.24796026 226.51967681 499.23260152 243.65737152 C499.23100875 245.48430695 499.2294369 247.3112424 499.2278862 249.13817787 C499.22672913 250.48656004 499.22672913 250.48656004 499.22554869 251.86218226 C499.22122891 258.20132028 499.22852422 264.54038432 499.24028397 270.87951088 C499.25429726 278.60330726 499.25053381 286.32684953 499.22388025 294.05061674 C499.21072611 297.99258188 499.20561643 301.93412314 499.22212601 305.87608528 C499.23700626 309.48353573 499.22887064 313.09016872 499.20223825 316.69754481 C499.19399154 318.62325541 499.21034855 320.54902257 499.2275244 322.47467422 C499.21448566 323.61713293 499.20144693 324.75959164 499.18801308 325.9366703 C499.18679543 327.41522279 499.18679543 327.41522279 499.18555319 328.92364502 C498.27752801 332.8434434 496.79067949 334.26764623 493.55880737 336.6292057 C490.55364084 337.12045175 488.11823893 337.30282724 485.11761475 337.25841141 C483.8398625 337.26931221 483.8398625 337.26931221 482.53629708 337.28043324 C479.66819286 337.29875052 476.80141462 337.28129672 473.93331909 337.26412392 C471.86191052 337.26988244 469.79050704 337.27782174 467.7191143 337.28776014 C462.0163358 337.3086935 456.31397395 337.29828867 450.61119366 337.28282905 C444.46522338 337.27154604 438.31932625 337.28896308 432.17337036 337.30272865 C420.82580505 337.32371023 409.47841018 337.32184528 398.13084906 337.30817131 C387.64846719 337.29560166 377.1661342 337.29230622 366.68374634 337.29828453 C365.6414312 337.29885742 365.6414312 337.29885742 364.57805918 337.29944188 C361.75744438 337.30099853 358.93682961 337.30259053 356.11621486 337.3042407 C329.64778516 337.31954137 303.17944038 337.30565944 276.71102378 337.27875621 C253.18693218 337.25502753 229.66297591 337.25715064 206.1388855 337.28106117 C179.71938309 337.30782481 153.29995575 337.31845633 126.88044167 337.30299985 C124.06491726 337.30139623 121.24939284 337.29983203 118.43386841 337.29828453 C117.39396052 337.29769145 117.39396052 337.29769145 116.33304439 337.29708639 C105.85633724 337.29139508 95.37968428 337.29805773 84.90298462 337.3106823 C72.99243875 337.32496297 61.08205273 337.32095553 49.17151308 337.29427858 C43.0909165 337.28110968 37.01059504 337.2760405 30.93000031 337.29252434 C25.36860728 337.30737301 19.80774557 337.29931953 14.24640107 337.27263658 C12.22965658 337.26703002 10.21286763 337.26994037 8.19615149 337.28201552 C5.4634546 337.29712831 2.73259924 337.28172386 0 337.25841141 C-0.79081711 337.27011724 -1.58163421 337.28182307 -2.39641547 337.29388362 C-6.28792525 337.22711148 -8.25737985 336.76351943 -11.42944181 334.44566381 C-13.70543638 331.25926354 -14.06721162 329.80620935 -14.07039833 325.9366703 C-14.08343707 324.7942116 -14.0964758 323.65175289 -14.10990965 322.47467422 C-14.09875605 321.22419989 -14.08760244 319.97372555 -14.07611084 318.68535805 C-14.08187262 317.33991058 -14.08981413 315.99447099 -14.09974706 314.64904785 C-14.12063668 310.95287053 -14.11029617 307.25733795 -14.09481597 303.56115818 C-14.08351482 299.57470181 -14.10095899 295.58835723 -14.11471558 291.60192299 C-14.13696582 283.79292669 -14.1321389 275.98417047 -14.11765237 268.1751647 C-14.10636713 261.82948236 -14.10482613 255.48386737 -14.11027145 249.13817787 C-14.11103762 248.23553117 -14.11180378 247.33288447 -14.11259317 246.40288484 C-14.11419177 244.56925915 -14.11581284 242.73563347 -14.11745612 240.90200782 C-14.13171886 223.70215947 -14.11531269 206.5024443 -14.08845429 189.30261779 C-14.06611503 174.53966893 -14.06999501 159.77691664 -14.0930481 145.01397133 C-14.11979686 127.87629458 -14.13034551 110.73873459 -14.11498678 93.60103989 C-14.11339401 91.77410445 -14.11182215 89.947169 -14.11027145 88.12023354 C-14.10950008 87.22131209 -14.1087287 86.32239064 -14.10793395 85.39622915 C-14.10361417 79.05709113 -14.11090947 72.71802709 -14.12266922 66.37890053 C-14.13668251 58.65510415 -14.13291907 50.93156188 -14.1062655 43.20779467 C-14.09311137 39.26582952 -14.08800168 35.32428827 -14.10451126 31.38232613 C-14.11939151 27.77487568 -14.11125589 24.16824269 -14.0846235 20.56086659 C-14.07637679 18.635156 -14.0927338 16.70938883 -14.10990965 14.78373718 C-14.09687092 13.64127848 -14.08383218 12.49881977 -14.07039833 11.3217411 C-14.06958657 10.33603945 -14.06877481 9.35033779 -14.06793845 8.33476639 C-12.326103 0.81554354 -6.79442971 -0.10057249 0 0 Z " fill="#FED150" transform="translate(13.441192626953125,87.37079429626465)"/>
<path d="M0 0 C168.96 0 337.92 0 512 0 C512 21.78 512 43.56 512 66 C506.42924768 71.57075232 506.42924768 71.57075232 500.95522285 71.66467792 C500.16440574 71.65297209 499.37358863 71.64126626 498.55880737 71.6292057 C497.70697254 71.63647291 496.85513772 71.64374011 495.97748971 71.65122753 C493.10938549 71.66954482 490.24260725 71.65209102 487.37451172 71.63491821 C485.30310314 71.64067673 483.23169967 71.64861603 481.16030693 71.65855443 C475.45752842 71.6794878 469.75516658 71.66908297 464.05238628 71.65362334 C457.906416 71.64234034 451.76051888 71.65975738 445.61456299 71.67352295 C434.26699768 71.69450452 422.91960281 71.69263958 411.57204169 71.67896561 C401.08965982 71.66639595 390.60732682 71.66310051 380.12493896 71.66907883 C379.08262382 71.66965172 379.08262382 71.66965172 378.01925181 71.67023618 C375.19863701 71.67179283 372.37802224 71.67338482 369.55740749 71.675035 C343.08897778 71.69033567 316.62063301 71.67645374 290.1522164 71.64955051 C266.62812481 71.62582183 243.10416854 71.62794494 219.58007812 71.65185547 C193.16057572 71.67861911 166.74114837 71.68925062 140.32163429 71.67379415 C137.50610989 71.67219052 134.69058547 71.67062633 131.87506104 71.66907883 C130.83515315 71.66848575 130.83515315 71.66848575 129.77423702 71.66788069 C119.29752986 71.66218937 108.8208769 71.66885202 98.34417725 71.68147659 C86.43363137 71.69575726 74.52324536 71.69174982 62.61270571 71.66507287 C56.53210913 71.65190397 50.45178767 71.6468348 44.37119293 71.66331863 C38.80979991 71.6781673 33.2489382 71.67011383 27.6875937 71.64343087 C25.67084921 71.63782432 23.65406025 71.64073467 21.63734412 71.65280981 C18.90464723 71.6679226 16.17379187 71.65251815 13.44119263 71.6292057 C12.65037552 71.64091153 11.85955842 71.65261737 11.04477715 71.66467792 C4.98713783 71.56073842 4.75789365 70.75789365 0 66 C0 44.22 0 22.44 0 0 Z " fill="#C8414B" transform="translate(0,353)"/>
<path d="M0 0 C1.18622566 0.01755875 1.18622566 0.01755875 2.39641547 0.03547221 C3.2482503 0.02820501 4.10008513 0.02093781 4.97773314 0.01345038 C7.84583736 -0.0048669 10.7126156 0.0125869 13.58071113 0.02975971 C15.6521197 0.02400118 17.72352318 0.01606189 19.79491591 0.00612348 C25.49769442 -0.01480988 31.20005627 -0.00440505 36.90283656 0.01105458 C43.04880684 0.02233758 49.19470397 0.00492054 55.34065986 -0.00884503 C66.68822517 -0.02982661 78.03562004 -0.02796166 89.38318115 -0.01428769 C99.86556303 -0.00171803 110.34789602 0.00157741 120.83028388 -0.00440091 C121.87259902 -0.0049738 121.87259902 -0.0049738 122.93597104 -0.00555826 C125.75658583 -0.00711491 128.57720061 -0.00870691 131.39781535 -0.01035708 C157.86624506 -0.02565775 184.33458984 -0.01177582 210.80300644 0.01512741 C234.32709803 0.03885609 257.85105431 0.03673298 281.37514472 0.01282245 C307.79464713 -0.01394119 334.21407447 -0.0245727 360.63358855 -0.00911623 C363.44911295 -0.00751261 366.26463738 -0.00594841 369.08016181 -0.00440091 C370.1200697 -0.00380783 370.1200697 -0.00380783 371.18098582 -0.00320277 C381.65769298 0.00248855 392.13434594 -0.00417411 402.6110456 -0.01679868 C414.52159147 -0.03107935 426.43197748 -0.02707191 438.34251714 -0.00039496 C444.42311371 0.01277395 450.50343518 0.01784312 456.58402991 0.00135928 C462.14542294 -0.01348939 467.70628464 -0.00543591 473.26762915 0.02124704 C475.28437364 0.0268536 477.30116259 0.02394325 479.31787872 0.0118681 C482.05057562 -0.00324469 484.78143098 0.01215977 487.51403022 0.03547221 C488.30484732 0.02376638 489.09566443 0.01206055 489.91044569 0 C495.96808502 0.10393949 496.1973292 0.90678427 500.95522285 5.66467792 C500.95522285 27.44467792 500.95522285 49.22467792 500.95522285 71.66467792 C331.99522285 71.66467792 163.03522285 71.66467792 -11.04477715 71.66467792 C-11.04477715 0.18951088 -11.04477715 0.18951088 0 0 Z " fill="#C8414B" transform="translate(11.044777154922485,87.3353220820427)"/>
<path d="M0 0 C0.85857101 0.00707474 1.71714203 0.01414948 2.60173035 0.0214386 C5.33304478 0.04933723 8.06227833 0.11206434 10.79296875 0.17578125 C12.64905885 0.20087011 14.50518121 0.22368226 16.36132812 0.24414062 C20.90248018 0.2948911 25.43915721 0.39274174 29.98046875 0.48828125 C29.98046875 10.71828125 29.98046875 20.94828125 29.98046875 31.48828125 C32.29046875 31.81828125 34.60046875 32.14828125 36.98046875 32.48828125 C39.85546875 34.61328125 39.85546875 34.61328125 41.98046875 37.48828125 C42.47546875 40.95328125 42.47546875 40.95328125 42.98046875 44.48828125 C53.21046875 44.48828125 63.44046875 44.48828125 73.98046875 44.48828125 C74.04234375 48.79890625 74.10421875 53.10953125 74.16796875 57.55078125 C74.20893677 59.56957397 74.20893677 59.56957397 74.25073242 61.62915039 C74.30339268 69.21166121 74.0331263 74.4079964 69.40234375 80.59765625 C64.19541495 85.70725927 59.49672782 88.56107133 52.04296875 88.92578125 C44.67108512 88.64654323 40.01204059 85.89354345 35.04296875 80.55078125 C32.46129927 77.59274082 31.51547995 75.38235014 30.98046875 71.48828125 C30.32046875 71.48828125 29.66046875 71.48828125 28.98046875 71.48828125 C28.70203125 73.00421875 28.70203125 73.00421875 28.41796875 74.55078125 C26.65197774 80.68200356 22.00317976 84.30518613 16.66796875 87.42578125 C7.73929654 89.99844951 3.51139046 88.75374211 -5.01953125 84.48828125 C-5.01953125 71.28828125 -5.01953125 58.08828125 -5.01953125 44.48828125 C-7.98953125 44.48828125 -10.95953125 44.48828125 -14.01953125 44.48828125 C-14.01953125 41.51828125 -14.01953125 38.54828125 -14.01953125 35.48828125 C-25.56953125 35.48828125 -37.11953125 35.48828125 -49.01953125 35.48828125 C-49.01953125 32.51828125 -49.01953125 29.54828125 -49.01953125 26.48828125 C-37.46953125 26.48828125 -25.91953125 26.48828125 -14.01953125 26.48828125 C-14.21661576 19.8013273 -14.21661576 19.8013273 -14.4699707 13.11645508 C-14.48870239 11.8561145 -14.48870239 11.8561145 -14.5078125 10.5703125 C-14.53399658 9.71671143 -14.56018066 8.86311035 -14.5871582 7.98364258 C-12.79332281 0.09771073 -6.75945647 -0.21085887 0 0 Z " fill="#C9454B" transform="translate(120.01953125,229.51171875)"/>
<path d="M0 0 C4.21054851 1.70213663 6.13424699 3.87570387 8 8 C8 9.65 8 11.3 8 13 C18.23 13 28.46 13 39 13 C39.061875 17.310625 39.12375 21.62125 39.1875 26.0625 C39.22846802 28.08129272 39.22846802 28.08129272 39.27026367 30.14086914 C39.32292393 37.72337996 39.05265755 42.91971515 34.421875 49.109375 C29.2149462 54.21897802 24.51625907 57.07279008 17.0625 57.4375 C9.69061637 57.15826198 5.03157184 54.4052622 0.0625 49.0625 C-2.51916948 46.10445957 -3.4649888 43.89406889 -4 40 C-4.66 40 -5.32 40 -6 40 C-6.309375 41.5778125 -6.309375 41.5778125 -6.625 43.1875 C-7.48408883 47.56885304 -10.63038084 49.38470577 -14 52 C-14.01458252 51.12263184 -14.02916504 50.24526367 -14.04418945 49.34130859 C-14.1054968 46.06450679 -14.17969333 42.78851056 -14.26245117 39.51220703 C-14.29556291 38.0982551 -14.32363716 36.68417536 -14.34643555 35.27001953 C-14.38023775 33.22894177 -14.43255964 31.18902072 -14.48828125 29.1484375 C-14.51446533 27.92302246 -14.54064941 26.69760742 -14.56762695 25.43505859 C-15.03784642 21.69932294 -16.23195162 19.29258449 -18 16 C-18.93129227 9.48095408 -18.93129227 9.48095408 -16.72265625 5.96875 C-11.64203578 -0.09321281 -7.80101416 -0.67674413 0 0 Z " fill="#C9454C" transform="translate(155,261)"/>
<path d="M0 0 C5.46396768 -0.11495023 10.92372478 -0.21443187 16.38793945 -0.2746582 C18.24550609 -0.29976702 20.10297427 -0.33386134 21.96020508 -0.37719727 C24.63387358 -0.43801124 27.30623365 -0.4662452 29.98046875 -0.48828125 C31.2213752 -0.52699089 31.2213752 -0.52699089 32.48735046 -0.56648254 C36.56183156 -0.56845421 38.5380708 -0.29952525 42.03320312 1.96679688 C44.71718376 6.10604406 44.63894441 9.18975546 44.48828125 14.01953125 C44.48120651 14.87810226 44.47413177 15.73667328 44.46684265 16.6212616 C44.43894402 19.35257603 44.37621691 22.08180958 44.3125 24.8125 C44.28741114 26.6685901 44.26459899 28.52471246 44.24414062 30.38085938 C44.19339015 34.92201143 44.09553951 39.45868846 44 44 C33.77 44 23.54 44 13 44 C12.01 40.535 12.01 40.535 11 37 C10.505 35.515 10.505 35.515 10 34 C5.05 32.515 5.05 32.515 0 31 C0 20.77 0 10.54 0 0 Z " fill="#F4F2F2" transform="translate(150,230)"/>
<path d="M0 0 C4.41162928 3.15335589 8.33646035 6.85907683 12.24609375 10.60546875 C10.63625908 14.7910389 8.0044245 18.18563815 4.24609375 20.60546875 C0.21182416 21.51823624 -3.7474393 21.49417495 -7.87109375 21.47265625 C-9.62777878 21.48838181 -9.62777878 21.48838181 -11.41995239 21.50442505 C-13.89272904 21.51724931 -16.36562781 21.51461205 -18.83837891 21.49755859 C-22.61062379 21.48055118 -26.37679226 21.53803694 -30.1484375 21.6015625 C-32.55598778 21.60478744 -34.96354873 21.60362969 -37.37109375 21.59765625 C-38.49216522 21.62012421 -39.61323669 21.64259216 -40.76828003 21.66574097 C-46.85628984 21.55810056 -50.12281974 20.92167939 -54.52783203 16.54345703 C-55.63419246 15.25681601 -56.72158445 13.95223904 -57.75390625 12.60546875 C-54.45337115 5.57409301 -46.97499612 -0.57953011 -39.75390625 -3.39453125 C-25.83250918 -7.52269906 -12.83332971 -7.65290304 0 0 Z " fill="#C9464B" transform="translate(172.75390625,200.39453125)"/>
<path d="M0 0 C8.58 0 17.16 0 26 0 C26 2.97 26 5.94 26 9 C24.68 9 23.36 9 22 9 C22 11.97 22 14.94 22 18 C23.32 18 24.64 18 26 18 C26 20.97 26 23.94 26 27 C17.42 27 8.84 27 0 27 C0 24.03 0 21.06 0 18 C1.32 18 2.64 18 4 18 C4 15.03 4 12.06 4 9 C2.68 9 1.36 9 0 9 C0 6.03 0 3.06 0 0 Z " fill="#F9B144" transform="translate(115,238)"/>
<path d="M0 0 C0.66 0 1.32 0 2 0 C2.515625 1.19625 3.03125 2.3925 3.5625 3.625 C6.28028571 9.06057142 10.14904763 12.30483913 15.3125 15.375 C22.27169691 16.99341789 28.06234834 16.59116065 34.30859375 13.0703125 C35.88788647 12.07094482 37.44495581 11.03669612 39 10 C36.50108451 16.00775537 30.87873198 18.77013741 25.1015625 21.23828125 C16.69425025 24.33749153 9.83045211 25.20853957 0.875 25.25 C-0.21554688 25.270625 -1.30609375 25.29125 -2.4296875 25.3125 C-12.19650802 25.3592312 -20.04176561 23.55953584 -28.5 18.5625 C-30.00046875 17.69818359 -30.00046875 17.69818359 -31.53125 16.81640625 C-34.01071158 14.99211885 -34.94905297 13.84631488 -36 11 C-35.09121094 11.54140625 -35.09121094 11.54140625 -34.1640625 12.09375 C-28.00093696 15.50717338 -23.04666634 17.22450268 -16 16 C-9.75960013 14.11233456 -5.62113147 10.33640428 -2 5 C-0.62949404 2.25452126 -0.62949404 2.25452126 0 0 Z " fill="#F4F2EF" transform="translate(149,301)"/>
<path d="M0 0 C8.58 0 17.16 0 26 0 C26.12375 4.021875 26.12375 4.021875 26.25 8.125 C26.28641602 8.95789551 26.32283203 9.79079102 26.36035156 10.64892578 C26.43823854 15.91383403 25.46713595 18.81904194 22 23 C18.53884132 25.8842989 15.51164855 26.5437838 10.9921875 26.34765625 C7.57258449 25.750902 5.56799621 24.269392 3 22 C-0.10676397 17.07607219 -0.38385419 13.23760199 -0.1875 7.625 C-0.125625 5.10875 -0.06375 2.5925 0 0 Z " fill="#F9B246" transform="translate(159,283)"/>
<path d="M0 0 C3.16961356 1.28133314 4.57820229 2.5200233 6.8125 5.0625 C8.56358716 9.39413665 8.68305865 13.39314891 8 18 C5.76553623 21.88962212 3.11639609 24.22246532 -1 26 C-5.78843042 26.53204782 -7.98517492 26.49783872 -12.3125 24.375 C-16.53675565 20.64193687 -17.7698918 17.61075742 -18.5625 12.0625 C-18.42057539 7.72127676 -16.40539639 5.42021501 -13.5078125 2.34765625 C-9.66941728 -1.08303378 -4.86896785 -0.4223868 0 0 Z " fill="#5264A8" transform="translate(155,261)"/>
<path d="M0 0 C1 1 1 1 1.09765625 3.94140625 C1.08605469 5.13636719 1.07445312 6.33132812 1.0625 7.5625 C1.05347656 8.76003906 1.04445312 9.95757812 1.03515625 11.19140625 C1.02355469 12.11824219 1.01195312 13.04507813 1 14 C-0.25103516 14.22042969 -0.25103516 14.22042969 -1.52734375 14.4453125 C-14.0542411 16.94208242 -22.09570505 23.09570505 -31 32 C-35.90756303 24.33193277 -35.90756303 24.33193277 -35 19 C-32.69554023 14.73248192 -30.24456121 11.39909982 -26 9 C-22.63847801 8.67985505 -19.36500705 8.76477621 -16 9 C-15.690625 7.88625 -15.690625 7.88625 -15.375 6.75 C-12.02614887 0.05229775 -6.75749729 -0.57266926 0 0 Z " fill="#F5F2ED" transform="translate(145,181)"/>
<path d="M0 0 C17.49 0 34.98 0 53 0 C53 2.64 53 5.28 53 8 C31.65784301 9.03583981 10.36157111 9.11421421 -11 9 C-11 8.67 -11 8.34 -11 8 C-7.37 8 -3.74 8 0 8 C0 5.36 0 2.72 0 0 Z " fill="#F8B248" transform="translate(124,221)"/>
<path d="M0 0 C6.11709941 -0.49935505 9.14578213 0.47831252 14 4 C15.4375 6.75 15.4375 6.75 16 9 C16.87011719 8.94779297 16.87011719 8.94779297 17.7578125 8.89453125 C22.93800058 8.71501978 26.6463655 8.86133327 31 12 C34.14151616 16.02758482 35.34556977 18.57138163 35 23.6875 C34.37219243 27.56008144 33.22623287 29.60634336 30 32 C29.61070312 31.49210937 29.22140625 30.98421875 28.8203125 30.4609375 C23.73679945 24.20610808 17.92627417 19.75282065 10.27734375 17.03125 C8 16 8 16 6.6875 12.875 C6.460625 11.92625 6.23375 10.9775 6 10 C4.02 10 2.04 10 0 10 C0 6.7 0 3.4 0 0 Z " fill="#F4F2EE" transform="translate(155,181)"/>
<path d="M0 0 C0 8.25 0 16.5 0 25 C-5.94 25 -11.88 25 -18 25 C-18 18.73 -18 12.46 -18 6 C-14.66666667 4.66666667 -11.33333333 3.33333333 -8 2 C-7.12730469 1.62617188 -6.25460938 1.25234375 -5.35546875 0.8671875 C-3 0 -3 0 0 0 Z " fill="#F4F2F0" transform="translate(93,284)"/>
<path d="M0 0 C11 3 11 3 18 6 C18 12.27 18 18.54 18 25 C12.06 25 6.12 25 0 25 C0 16.75 0 8.5 0 0 Z " fill="#F5F3EF" transform="translate(207,284)"/>
<path d="M0 0 C3.35450707 1.13722872 4.8994073 2.93444669 7.0625 5.69921875 C7.7265625 9.29296875 7.7265625 9.29296875 7.6875 13.19921875 C7.70039063 14.48828125 7.71328125 15.77734375 7.7265625 17.10546875 C6.91173519 21.51512245 5.54979698 22.96428322 2.0625 25.69921875 C-1.4375 26.82421875 -1.4375 26.82421875 -4.9375 26.69921875 C-8.13832983 24.19422149 -9.6502358 22.56101135 -10.9375 18.69921875 C-12.08370456 7.35179359 -12.08370456 7.35179359 -8.9375 2.94921875 C-5.61645692 0.45843644 -4.01653586 0.02429356 0 0 Z " fill="#FEA2D3" transform="translate(173.9375,238.30078125)"/>
<path d="M0 0 C0.7734375 0.00386719 1.546875 0.00773438 2.34375 0.01171875 C4.5 0.3125 4.5 0.3125 7.5 2.3125 C7.828125 4.37109375 7.828125 4.37109375 7.75 6.75 C7.73453125 7.53246094 7.7190625 8.31492188 7.703125 9.12109375 C7.5 11.3125 7.5 11.3125 6.5 14.3125 C8.81 14.3125 11.12 14.3125 13.5 14.3125 C13.5 16.9525 13.5 19.5925 13.5 22.3125 C4.92 22.3125 -3.66 22.3125 -12.5 22.3125 C-12.5 19.6725 -12.5 17.0325 -12.5 14.3125 C-10.52 14.3125 -8.54 14.3125 -6.5 14.3125 C-6.60699219 13.55324219 -6.71398437 12.79398438 -6.82421875 12.01171875 C-6.94410156 11.01785156 -7.06398438 10.02398437 -7.1875 9 C-7.31511719 8.01386719 -7.44273438 7.02773437 -7.57421875 6.01171875 C-7.5 3.3125 -7.5 3.3125 -6.30078125 1.4765625 C-4.04415395 0.01783162 -2.67227613 -0.05789932 0 0 Z " fill="#F8B046" transform="translate(83.5,215.6875)"/>
<path d="M0 0 C2.26953125 1.16796875 2.26953125 1.16796875 4 3 C4.171875 5.69921875 4.171875 5.69921875 3.75 8.6875 C3.62109375 9.68136719 3.4921875 10.67523438 3.359375 11.69921875 C3.24078125 12.45847656 3.1221875 13.21773437 3 14 C4.98 14 6.96 14 9 14 C9 16.64 9 19.28 9 22 C0.42 22 -8.16 22 -17 22 C-17 19.36 -17 16.72 -17 14 C-14.69 14 -12.38 14 -10 14 C-10.165 13.484375 -10.33 12.96875 -10.5 12.4375 C-11.29903235 8.54221728 -11.87302573 4.69148735 -10 1.0625 C-6.8298014 -0.62166801 -3.46172846 -0.67772803 0 0 Z " fill="#F9B346" transform="translate(220,216)"/>
<path d="M0 0 C2.64 0 5.28 0 8 0 C8.33 14.52 8.66 29.04 9 44 C5.7 44 2.4 44 -1 44 C-0.67 29.48 -0.34 14.96 0 0 Z " fill="#F9B448" transform="translate(124,274)"/>
<path d="M0 0 C11.88 0 23.76 0 36 0 C36 2.97 36 5.94 36 9 C24.12 9 12.24 9 0 9 C0 6.03 0 3.06 0 0 Z " fill="#5A6AA4" transform="translate(198,318)"/>
<path d="M0 0 C11.88 0 23.76 0 36 0 C36 2.97 36 5.94 36 9 C24.12 9 12.24 9 0 9 C0 6.03 0 3.06 0 0 Z " fill="#5A6AA4" transform="translate(66,318)"/>
<path d="M0 0 C11.88 0 23.76 0 36 0 C36 2.97 36 5.94 36 9 C24.12 9 12.24 9 0 9 C0 6.03 0 3.06 0 0 Z " fill="#C9464D" transform="translate(194,256)"/>
<path d="M0 0 C5.94 0 11.88 0 18 0 C18 5.61 18 11.22 18 17 C12.06 17 6.12 17 0 17 C0 11.39 0 5.78 0 0 Z " fill="#F5F4F1" transform="translate(75,239)"/>
<path d="M0 0 C2.97 0 5.94 0 9 0 C9 12.87 9 25.74 9 39 C1.76624361 31.76624361 -0.02996267 27.44521581 -0.09765625 17.3828125 C-0.09105511 15.29685253 -0.0791975 13.21090359 -0.0625 11.125 C-0.05798828 10.05507813 -0.05347656 8.98515625 -0.04882812 7.8828125 C-0.03709749 5.25515014 -0.02068228 2.62760462 0 0 Z " fill="#F8B046" transform="translate(106,274)"/>
<path d="M0 0 C5.61 0 11.22 0 17 0 C17 5.61 17 11.22 17 17 C11.39 17 5.78 17 0 17 C0 11.39 0 5.78 0 0 Z " fill="#F5F5F5" transform="translate(208,239)"/>
<path d="M0 0 C8.58 0 17.16 0 26 0 C26 2.64 26 5.28 26 8 C27.65 8 29.3 8 31 8 C31 8.33 31 8.66 31 9 C19.12 9 7.24 9 -5 9 C-5 8.67 -5 8.34 -5 8 C-3.35 8 -1.7 8 0 8 C0 5.36 0 2.72 0 0 Z " fill="#F4B249" transform="translate(71,309)"/>
<path d="M0 0 C8.58 0 17.16 0 26 0 C26 2.97 26 5.94 26 9 C14.45 9 2.9 9 -9 9 C-9 8.67 -9 8.34 -9 8 C-6.03 8 -3.06 8 0 8 C0 5.36 0 2.72 0 0 Z " fill="#F4B249" transform="translate(208,309)"/>
<path d="M0 0 C5.94 0 11.88 0 18 0 C18 5.28 18 10.56 18 16 C11.74091114 14.37727326 5.85823301 12.73384207 0 10 C0 6.7 0 3.4 0 0 Z " fill="#F4F1EE" transform="translate(207,265)"/>
<path d="M0 0 C9.09574126 2.37028851 18.04392769 5.15698081 27 8 C27 10.97 27 13.94 27 17 C20.63569826 15.68764148 14.57878972 13.98780585 8.4375 11.875 C7.61958984 11.59785156 6.80167969 11.32070313 5.95898438 11.03515625 C3.97123432 10.36094863 1.98540651 9.68107796 0 9 C0 6.03 0 3.06 0 0 Z " fill="#CA474D" transform="translate(203,274)"/>
<path d="M0 0 C0 2.97 0 5.94 0 9 C-3.95671116 10.3381816 -7.91562528 11.669722 -11.875 13 C-13.00292969 13.3815625 -14.13085938 13.763125 -15.29296875 14.15625 C-16.36933594 14.5171875 -17.44570312 14.878125 -18.5546875 15.25 C-19.54968262 15.58515625 -20.54467773 15.9203125 -21.56982422 16.265625 C-24 17 -24 17 -26 17 C-26 14.03 -26 11.06 -26 8 C-22.2318169 6.65909207 -18.46004479 5.3285821 -14.6875 4 C-13.61564453 3.6184375 -12.54378906 3.236875 -11.43945312 2.84375 C-10.41142578 2.4828125 -9.38339844 2.121875 -8.32421875 1.75 C-7.37635498 1.41484375 -6.42849121 1.0796875 -5.4519043 0.734375 C-3 0 -3 0 0 0 Z " fill="#C9474F" transform="translate(97,274)"/>
<path d="M0 0 C5.94 0 11.88 0 18 0 C18 3.3 18 6.6 18 10 C9.09 12.97 9.09 12.97 0 16 C0 10.72 0 5.44 0 0 Z " fill="#F4F3F1" transform="translate(75,265)"/>
<path d="M0 0 C2.97 0.99 5.94 1.98 9 3 C9.33 7.62 9.66 12.24 10 17 C9.34 17 8.68 17 8 17 C7.79375 18.051875 7.5875 19.10375 7.375 20.1875 C6.43506401 24.98117355 4.39226595 25.33977837 0 29 C0 19.43 0 9.86 0 0 Z " fill="#F7AF49" transform="translate(141,284)"/>
<path d="M0 0 C2.5 1.125 2.5 1.125 4 3 C4.59358827 7.55084344 3.76555638 9.58610905 2 14 C-1.96 14 -5.92 14 -10 14 C-11.0955014 9.61799439 -12.16224674 5.25185306 -10 1.0625 C-6.76853177 -0.6542175 -3.52685279 -0.5109324 0 0 Z " fill="#CB494B" transform="translate(220,216)"/>
<path d="M0 0 C0.78503906 0.00515625 1.57007812 0.0103125 2.37890625 0.015625 C3.55259766 0.00789062 3.55259766 0.00789062 4.75 0 C6.94140625 0.265625 6.94140625 0.265625 9.94140625 2.265625 C10.26953125 4.359375 10.26953125 4.359375 10.19140625 6.765625 C10.1759375 7.5596875 10.16046875 8.35375 10.14453125 9.171875 C9.94140625 11.265625 9.94140625 11.265625 8.94140625 13.265625 C4.98140625 13.265625 1.02140625 13.265625 -3.05859375 13.265625 C-4.67342035 9.18106361 -5.47023749 6.50055622 -4.05859375 2.265625 C-2.05859375 0.265625 -2.05859375 0.265625 0 0 Z " fill="#CA474B" transform="translate(81.05859375,215.734375)"/>
<path d="M0 0 C2.64 0 5.28 0 8 0 C8 5.61 8 11.22 8 17 C5.36 17 2.72 17 0 17 C0 11.39 0 5.78 0 0 Z " fill="#FAB446" transform="translate(146,177)"/>
<path d="M0 0 C2.97 0 5.94 0 9 0 C9.36075949 5.41139241 9.36075949 5.41139241 7.8125 7.9375 C6 9 6 9 3.375 8.75 C1 8 1 8 0 7 C-0.04092937 4.66702567 -0.04241723 2.33294775 0 0 Z " fill="#CC4A4A" transform="translate(168,291)"/>
<path d="M0 0 C2.5625 0.1875 2.5625 0.1875 4.5625 2.1875 C4.00694444 6.74305556 4.00694444 6.74305556 2.5625 8.1875 C0.125 8.375 0.125 8.375 -2.4375 8.1875 C-3.0975 7.5275 -3.7575 6.8675 -4.4375 6.1875 C-3.71780303 0.28598485 -3.71780303 0.28598485 0 0 Z " fill="#FBC94F" transform="translate(167.4375,207.8125)"/>
<path d="M0 0 C2.5625 0.1875 2.5625 0.1875 4.5625 2.1875 C4.00694444 6.74305556 4.00694444 6.74305556 2.5625 8.1875 C0.125 8.375 0.125 8.375 -2.4375 8.1875 C-3.0975 7.5275 -3.7575 6.8675 -4.4375 6.1875 C-3.71780303 0.28598485 -3.71780303 0.28598485 0 0 Z " fill="#FBC94F" transform="translate(132.4375,207.8125)"/>
<path d="M0 0 C3 0.125 3 0.125 4 1.125 C4.04080783 3.12458364 4.04254356 5.12545254 4 7.125 C1.125 7.75 1.125 7.75 -2 8.125 C-4 6.125 -4 6.125 -4.1875 3.5625 C-3.91067812 -0.03618446 -3.67800108 0.15325004 0 0 Z " fill="#FDCC4F" transform="translate(150,207.875)"/>
<path d="M0 0 C2.4375 0.1875 2.4375 0.1875 5 1 C5.66 2.32 6.32 3.64 7 5 C3.7 5.66 0.4 6.32 -3 7 C-1.125 1.125 -1.125 1.125 0 0 Z " fill="#FAC956" transform="translate(139,190)"/>
<path d="M0 0 C1.2065625 0.0309375 1.2065625 0.0309375 2.4375 0.0625 C2.4375 1.0525 2.4375 2.0425 2.4375 3.0625 C-0.0625 5.25 -0.0625 5.25 -2.5625 7.0625 C-3.2225 6.7325 -3.8825 6.4025 -4.5625 6.0625 C-3.48963568 0.08511307 -3.48963568 0.08511307 0 0 Z " fill="#FDD05A" transform="translate(123.5625,198.9375)"/>
<path d="M0 0 C2.375 -0.125 2.375 -0.125 5 0 C5.66 0.66 6.32 1.32 7 2 C6.625 4.625 6.625 4.625 6 7 C3 5.1875 3 5.1875 0 3 C0 2.01 0 1.02 0 0 Z " fill="#FDD057" transform="translate(174,199)"/>
</svg>
