<?xml version="1.0" encoding="UTF-8"?>
<svg id="Camada_1" xmlns="http://www.w3.org/2000/svg" xmlns:xlink="http://www.w3.org/1999/xlink" viewBox="0 0 26 31.24">
  <defs>
    <style>
      .cls-1 {
        fill: #fff;
      }

      .cls-1, .cls-2 {
        fill-rule: evenodd;
      }

      .cls-2 {
        fill: #00e400;
      }

      .cls-3 {
        filter: url(#filter-2);
      }

      .cls-4 {
        fill: #ff0;
      }
    </style>
    <filter id="filter-2" x="-39.4%" y="-33.6%" width="178.9%" height="167.2%">
      <feOffset dx="0" dy="0" in="SourceAlpha" result="shadowOffsetOuter1"/>
      <feGaussianBlur in="shadowOffsetOuter1" result="shadowBlurOuter1" stdDeviation="3.5"/>
      <feColorMatrix in="shadowBlurOuter1" values="0 0 0 0 0.0921776921   0 0 0 0 0.0985518065   0 0 0 0 0.214560688  0 0 0 0.282643138 0"/>
    </filter>
  </defs>
  <g id="Combined-Shape">
    <g class="cls-3">
      <path id="path-1" class="cls-2" d="M13,0c7.18,0,13,5.96,13,13.31,0,6.45-4.48,11.82-10.42,13.05l-2.58,4.88-2.33-4.83C4.6,25.28,0,19.85,0,13.31,0,5.96,5.82,0,13,0Z"/>
    </g>
    <path id="path-1-2" data-name="path-1" class="cls-1" d="M13,0c7.18,0,13,5.96,13,13.31,0,6.45-4.48,11.82-10.42,13.05l-2.58,4.88-2.33-4.83C4.6,25.28,0,19.85,0,13.31,0,5.96,5.82,0,13,0Z"/>
  </g>
  <ellipse id="Oval" class="cls-4" cx="12.7" cy="13" rx="10.74" ry="11"/>
  <g id="Group-13">
    <path id="Combined-Shape-2" data-name="Combined-Shape" class="cls-1" d="M14,13.62l2.27,1.55c.44.3.55.91.26,1.36l-1.99,3.09c.24-.41.31-.91.16-1.4l-1.35-4.2.66-.4ZM12.21,13.41l.58.52-.74,2.69c-.14.52-.68.82-1.18.68l-3.49-.99c.45.1.94.01,1.35-.28l3.49-2.61ZM17.54,10.8l2.22,2.93c-.3-.36-.75-.59-1.24-.6l-4.32-.04-.16-.77,2.16-1.7c.42-.33,1.02-.24,1.34.18ZM8.24,8.27c.04.47.27.92.67,1.23l3.49,2.61-.31.72-2.72.1c-.53.02-.97-.41-.99-.95l-.15-3.7ZM15.97,6.66c-.43.19-.77.55-.93,1.03l-1.34,4.21-.76-.08-.93-2.62c-.18-.51.08-1.07.57-1.25l3.39-1.28Z"/>
    <path id="Fill-46" class="cls-1" d="M16.57,9.74l2-1.55c.29-.22.34-.64.13-.93-.08-.11-.19-.19-.32-.23l-1.25-.41h0c-.39-.13-.8-.1-1.16.05-.43.19-.77.55-.93,1.03l-.45,1.39,1.98.65Z"/>
    <path id="Fill-52" class="cls-1" d="M11.28,8.63l-.82-2.42c-.12-.35-.49-.53-.83-.41-.13.04-.23.13-.31.24l-.77,1.09h0c-.24.34-.34.75-.31,1.15.04.47.27.92.67,1.23l1.16.86,1.21-1.73Z"/>
    <path id="Fill-58" class="cls-1" d="M8.64,13.45l-2.51.07c-.36,0-.64.31-.63.68,0,.14.05.27.13.38l.78,1.08h0c.24.34.59.56.97.65.45.1.94.01,1.35-.28l1.15-.86-1.24-1.71Z"/>
    <path id="Fill-64" class="cls-1" d="M12.28,17.51l-.71,2.46c-.1.35.09.72.44.83.13.04.26.04.39,0l1.24-.42h0c.39-.13.71-.4.9-.75.24-.41.31-.91.16-1.4l-.45-1.39-1.97.68Z"/>
    <path id="Fill-70" class="cls-1" d="M17.08,15.24l2.05,1.48c.29.21.7.14.91-.16.08-.11.12-.24.12-.38v-1.34h0c0-.42-.15-.81-.4-1.12-.3-.36-.75-.59-1.24-.6h-1.43s0,2.11,0,2.11Z"/>
  </g>
</svg>