<?xml version="1.0" encoding="UTF-8"?>
<svg id="SVGDoc" width="192" height="45" xmlns="http://www.w3.org/2000/svg" version="1.1" xmlns:xlink="http://www.w3.org/1999/xlink" xmlns:avocode="https://avocode.com/" viewBox="0 0 192 45"><defs></defs><desc>Generated with Avocode.</desc><g><g><title>Logo/Full-Blanc</title><g><title>Fill 1</title><path d="M42.0903,37.2973v0l-14.04442,-31.4705c-0.00487,-0.01095 -0.84927,-1.91514 -0.87881,-1.95892c-0.68154,-1.39906 -1.83882,-2.57635 -3.37076,-3.26311c-3.47102,-1.55554 -7.55952,-0.00689 -9.10519,3.44929l-14.08541,31.35152c-1.55792,3.46622 -0.0069,7.5373 3.45348,9.09325c0.88539,0.39243 1.79952,0.58784 2.70148,0.60365c2.67542,0.04905 5.24895,-1.47041 6.41393,-4.06258l7.8854,-17.52638v0l8.57214,19.16179c0.08247,0.22054 0.29924,0.3519 0.52655,0.3519c0.08078,0 0.16237,-0.01662 0.24112,-0.05423c0.29916,-0.13064 0.45009,-0.48091 0.30038,-0.7801l-8.98828,-20.14906v0l1.05864,-2.35581v0l11.14006,24.97176c0.09863,0.22094 0.3154,0.34023 0.54271,0.34023c0.08037,0 0.16237,0 0.24112,-0.03983c0.29916,-0.13338 0.43393,-0.48364 0.30037,-0.77098l-11.57195,-25.94595v0l1.04483,-2.33158v0l12.72681,28.54825c0.09863,0.22094 0.3154,0.35189 0.55603,0.35189c0.06746,0 0.14946,-0.01662 0.2278,-0.05109c0.29956,-0.13338 0.43393,-0.48364 0.30078,-0.78284l-13.1591,-29.51756v0l1.05052,-2.33676v0l13.38034,29.99432c0.09863,0.22095 0.3154,0.35149 0.54271,0.35149c0.09247,0 0.16237,-0.01621 0.24112,-0.05107c0.29915,-0.13338 0.43391,-0.48366 0.30037,-0.78284l-13.81263,-30.96284v0l0.43758,-0.97379c0.23624,-0.52541 0.39942,-1.06419 0.49684,-1.59071l13.24103,29.6845c0.10683,0.22054 0.32318,0.35149 0.55051,0.35149c0.08078,0 0.16277,-0.03599 0.26132,-0.03599c0.27936,-0.14848 0.40591,-0.49915 0.28058,-0.81081" fill="#ffffff" fill-opacity="1"></path></g><g><title>Fill 4</title><path d="M65.27673,29.86987c2.27112,-1.4173 3.52867,-3.76702 3.52867,-5.99473v-1.25554c-0.9734,0.68838 -2.59586,1.17445 -4.70502,1.49878c-2.839,0.44554 -3.97437,0.76946 -5.06953,1.45784c-0.9328,0.6077 -1.39027,1.4177 -1.39027,2.4304c0,1.94432 1.21776,2.91689 3.65327,2.91689c1.54941,0 2.84143,-0.36487 3.98288,-1.05365M59.47696,35.01447c-5.08374,0 -7.62479,-2.4304 -7.62479,-6.23068c0,-2.59986 1.13535,-4.54419 3.04196,-5.71906c0.64905,-0.44513 1.33832,-0.76743 1.98738,-0.97176c1.37849,-0.48608 3.12273,-0.81 6.03603,-1.25594c4.1842,-0.52662 5.84726,-1.09379 5.84726,-2.99919c0,-1.9427 -1.25754,-3.1577 -4.90756,-3.1577c-3.853,0 -5.59723,1.66054 -5.75919,4.65852h-5.47545c0.36491,-5.30676 4.25891,-8.79811 10.9505,-8.79811c2.55566,0 4.50204,0.33202 6.04332,1.02081c3.04318,1.29608 4.26094,3.76662 4.26094,7.12905v15.71635v0h-4.30153v0l-0.5695,-4.65852c-1.57985,3.03811 -4.70299,5.26622 -9.52937,5.26622" fill="#ffffff" fill-opacity="1"></path></g><g><title>Fill 6</title><path d="M76.95425,23.23095v0v-0.6077c0,-2.59216 0.52728,-4.81987 1.54126,-6.60243c2.06857,-3.56432 5.7186,-5.48027 10.22025,-5.48027c6.44885,0 10.86972,3.04987 11.39702,9.855v0.08068v0h-5.55664v0v-0.12122c-0.48628,-3.64541 -2.55486,-5.26582 -5.79979,-5.26582c-3.7312,0 -6.28606,2.59258 -6.28606,7.53406v0.52662c0,4.61757 2.36691,7.21014 6.24547,7.21014c3.40729,0 5.3541,-1.78217 5.86353,-5.34689v-0.04054v0h5.57367v0v0.12203c-0.52689,6.88581 -5.02893,9.92392 -11.47739,9.92392c-7.46283,0 -11.72131,-4.17243 -11.72131,-11.78757" fill="#ffffff" fill-opacity="1"></path></g><g><title>Fill 8</title><path d="M120.92023,23.14986v0v-0.52662c0,-4.78541 -2.47409,-7.53406 -6.32709,-7.53406c-3.81238,0 -6.36725,2.59258 -6.36725,7.53406v0.52662c0,4.61757 2.35231,7.21014 6.32707,7.21014c4.01494,0 6.36726,-2.59257 6.36726,-7.21014M102.79105,23.23095v0v-0.6077c0,-2.59216 0.52728,-4.81987 1.5303,-6.60243c2.0296,-3.56432 5.64877,-5.48027 10.23161,-5.48027c2.3519,0 4.33928,0.4577 6.08351,1.42946c3.57495,1.90379 5.67801,5.50906 5.67801,10.65324v0.6077c0,2.55202 -0.47939,4.6581 -1.46008,6.40013c-2.02798,3.52378 -5.55664,5.38744 -10.30144,5.38744c-7.54402,0 -11.76192,-4.17243 -11.76192,-11.78757" fill="#ffffff" fill-opacity="1"></path></g><g><title>Fill 10</title><path d="M134.62691,20.55365v0h12.65414c-0.36533,-3.56473 -2.31212,-5.79243 -6.04333,-5.79243c-3.69061,0 -6.00233,2.10649 -6.61081,5.79243M141.03517,35.01447c-7.86835,0 -11.72134,-4.53649 -11.72134,-11.74703v-0.56473c0,-2.51392 0.48671,-4.57946 1.4601,-6.4427c1.96181,-3.64541 5.51564,-5.71946 10.4232,-5.71946c4.01535,0 6.85435,1.38527 8.71997,3.61297c1.8656,2.22811 2.67703,5.10406 2.67703,8.10122v2.475v0h-18.00781c0.44611,3.80352 2.79842,5.91 6.6514,5.91c2.839,0 4.48744,-1.09379 5.29929,-3.11878h5.73241c-1.33832,4.73878 -5.11014,7.49352 -11.23424,7.49352" fill="#ffffff" fill-opacity="1"></path></g><g><title>Fill 12</title><path d="M156.60785,34.41081v0v-23.29135v0h4.46149v0l0.48669,4.25311c1.25711,-2.91648 3.69061,-4.83202 7.38123,-4.83202c4.01535,0 6.32709,1.83486 7.34106,4.86486c1.17633,-2.98986 3.7312,-4.86486 7.54361,-4.86486c5.47543,0 8.27383,3.49541 8.27383,9.28783v14.58244v0h-5.31305v0v-13.12419c0,-3.68594 -1.29773,-6.11635 -4.867,-6.11635c-3.48804,0 -4.86694,2.51148 -4.86694,6.03526v13.20528v0h-5.27209v0v-13.32973c0,-1.09055 -0.12177,-2.06271 -0.44611,-2.99433c-0.52771,-1.78257 -1.86603,-2.91648 -4.2995,-2.91648c-3.4881,0 -5.11014,2.75432 -5.11014,6.76459v12.47595v0z" fill="#ffffff" fill-opacity="1"></path></g></g></g></svg>