<?xml version="1.0" encoding="UTF-8"?>
<svg version="1.1" xmlns="http://www.w3.org/2000/svg" width="713" height="255">
<path d="M0 0 C235.29 0 470.58 0 713 0 C713 84.15 713 168.3 713 255 C477.71 255 242.42 255 0 255 C0 170.85 0 86.7 0 0 Z " fill="#FDFDFD" transform="translate(0,0)"/>
<path d="M0 0 C1.21236328 0.01353516 1.21236328 0.01353516 2.44921875 0.02734375 C3.37154297 0.04474609 3.37154297 0.04474609 4.3125 0.0625 C4.3125 1.0525 4.3125 2.0425 4.3125 3.0625 C8.2725 3.0625 12.2325 3.0625 16.3125 3.0625 C16.3125 3.7225 16.3125 4.3825 16.3125 5.0625 C16.87453125 4.73507813 17.4365625 4.40765625 18.015625 4.0703125 C20.58109964 2.94464506 22.28092277 2.8556889 25.0625 2.9375 C25.86171875 2.95554687 26.6609375 2.97359375 27.484375 2.9921875 C28.08765625 3.01539062 28.6909375 3.03859375 29.3125 3.0625 C29.8075 7.0225 29.8075 7.0225 30.3125 11.0625 C31.055 10.299375 31.7975 9.53625 32.5625 8.75 C38.7037839 2.74829073 42.96091117 1.74788012 51.53588867 1.66870117 C57.24289264 1.77705764 61.22454215 3.06463488 65.3125 7.0625 C67.53948735 10.40298103 67.5836921 11.59535581 67.5625 15.5 C67.57023437 16.92119141 67.57023437 16.92119141 67.578125 18.37109375 C67.29397991 21.25015212 67.02978538 22.73824306 65.3125 25.0625 C60.88580995 27.89895682 57.13702758 28.50473927 51.9375 28.75 C50.06964844 28.84861328 50.06964844 28.84861328 48.1640625 28.94921875 C46.75253906 29.00529297 46.75253906 29.00529297 45.3125 29.0625 C50.35921695 29.97414006 50.35921695 29.97414006 55.375 29.25 C58.3125 29.0625 58.3125 29.0625 60.0546875 30.1875 C61.76403055 31.76293139 63.14733428 33.04499516 64.3125 35.0625 C64.1484375 37.1640625 64.1484375 37.1640625 63.3125 39.0625 C57.20543024 42.72674186 51.34660977 43.86157487 44.3125 43.0625 C37.04290698 41.00062191 33.19724586 37.60572344 29.19140625 31.296875 C27.98603053 28.23254207 28.1219129 25.59185479 28.1875 22.3125 C28.20554687 21.14203125 28.22359375 19.9715625 28.2421875 18.765625 C28.26539063 17.87359375 28.28859375 16.9815625 28.3125 16.0625 C24.3525 16.5575 24.3525 16.5575 20.3125 17.0625 C19.45138484 20.09019315 19.13019107 22.90516637 18.99609375 26.046875 C18.95419922 26.98144531 18.91230469 27.91601562 18.86914062 28.87890625 C18.82982422 29.84699219 18.79050781 30.81507812 18.75 31.8125 C18.68522461 33.28783203 18.68522461 33.28783203 18.61914062 34.79296875 C18.51328051 37.21598927 18.41240688 39.63922672 18.3125 42.0625 C13.6925 42.0625 9.0725 42.0625 4.3125 42.0625 C4.3125 31.5025 4.3125 20.9425 4.3125 10.0625 C2.6625 10.0625 1.0125 10.0625 -0.6875 10.0625 C-0.64109375 10.71476562 -0.5946875 11.36703125 -0.546875 12.0390625 C-0.30319393 17.93962549 -0.55328085 21.48133824 -4.6875 26.0625 C-9.3516594 29.44401556 -13.26099926 30.1996908 -18.9375 30.125 C-19.82953125 30.11597656 -20.7215625 30.10695313 -21.640625 30.09765625 C-22.31609375 30.08605469 -22.9915625 30.07445313 -23.6875 30.0625 C-23.6875 30.3925 -23.6875 30.7225 -23.6875 31.0625 C-22.7696875 31.09988281 -21.851875 31.13726562 -20.90625 31.17578125 C-4.4847028 32.05550699 -4.4847028 32.05550699 0.8125 37.75 C2.6408388 41.78758152 3.13026005 44.7127125 2.3125 49.0625 C0.45771209 53.44654415 -1.80157327 55.43957979 -6 57.4375 C-13.85293872 60.21802201 -23.3354335 60.46054944 -31.3125 57.9375 C-35.43284532 55.64841927 -37.18471778 54.05130916 -39.6875 50.0625 C-40.26019578 45.89000218 -40.04836122 44.60379184 -37.6875 41.0625 C-37.52050768 38.18771833 -37.52050768 38.18771833 -37.6875 35.0625 C-37.90972222 29.39583333 -37.90972222 29.39583333 -35.6875 26.0625 C-35.52050768 22.93728167 -35.52050768 22.93728167 -35.6875 20.0625 C-36.3475 20.0625 -37.0075 20.0625 -37.6875 20.0625 C-37.89375 20.825625 -38.1 21.58875 -38.3125 22.375 C-40.25027458 26.1624685 -41.63569254 26.68900595 -45.6875 28.0625 C-50.01481016 28.59247972 -54.33291079 28.87513637 -58.6875 29.0625 C-53.63285968 29.98539483 -53.63285968 29.98539483 -48.625 29.1875 C-45.6875 29.0625 -45.6875 29.0625 -43.98046875 30.48046875 C-39.6875 35.35655738 -39.6875 35.35655738 -39.6875 38.0625 C-47.09984393 42.48139734 -53.10735186 44.27654947 -61.8046875 42.671875 C-68.59255098 40.61174523 -72.61224273 35.58141451 -76.125 29.625 C-77.60495493 22.88298309 -77.29792389 16.07987315 -73.6875 10.0625 C-69.37251808 5.25742137 -64.87382528 2.34945561 -58.34765625 1.76171875 C-57.16042969 1.75785156 -55.97320312 1.75398438 -54.75 1.75 C-52.97302734 1.72486328 -52.97302734 1.72486328 -51.16015625 1.69921875 C-46.62899036 2.17323273 -43.32249836 3.49974576 -40.0078125 6.66796875 C-38.90104167 8.1328125 -37.79427083 9.59765625 -36.6875 11.0625 C-36.171875 10.155 -35.65625 9.2475 -35.125 8.3125 C-33.02207627 4.61135423 -29.57533242 2.55771347 -25.6875 1.0625 C-22.57796395 0.63808152 -19.56657528 0.72367587 -16.4375 0.875 C-10.75530912 1.06227478 -5.57707014 -0.0808271 0 0 Z " fill="#8FB212" transform="translate(514.6875,78.9375)"/>
<path d="M0 0 C0.598125 0.53625 1.19625 1.0725 1.8125 1.625 C1.8125 2.285 1.8125 2.945 1.8125 3.625 C2.5859375 3.72296875 3.359375 3.8209375 4.15625 3.921875 C13.40037074 5.24900124 20.70446035 7.15961821 26.8125 14.625 C29.99002805 19.56319114 31.65055187 23.65388042 30.8125 29.625 C29.6702032 32.72917876 28.30770076 35.67663224 26.8125 38.625 C26.3175 39.615 26.3175 39.615 25.8125 40.625 C26.8025 40.625 27.7925 40.625 28.8125 40.625 C28.8125 41.945 28.8125 43.265 28.8125 44.625 C28.02875 44.83125 27.245 45.0375 26.4375 45.25 C23.50333714 46.43176612 23.50333714 46.43176612 22.5 49.75 C22.273125 50.69875 22.04625 51.6475 21.8125 52.625 C20.1625 52.625 18.5125 52.625 16.8125 52.625 C16.8031543 53.55248047 16.79380859 54.47996094 16.78417969 55.43554688 C16.73990154 58.9100788 16.67817286 62.38342406 16.60498047 65.85742188 C16.5769306 67.35470447 16.55563726 68.85213075 16.54150391 70.34960938 C16.44282194 80.2178063 16.19870752 87.69051654 9.3125 95.4375 C2.82895781 101.11059942 -1.58173424 102.91672087 -10.1875 102.625 C-7.29319828 101.09782236 -4.40282594 100.00130379 -1.3125 98.9375 C3.7798262 96.90506937 7.05893407 94.39441638 9.8125 89.625 C10.8025 86.985 11.7925 84.345 12.8125 81.625 C-1.3775 81.625 -15.5675 81.625 -30.1875 81.625 C-30.5175 82.945 -30.8475 84.265 -31.1875 85.625 C-32.85358124 82.29283752 -32.30767692 78.56026241 -32.28515625 74.8984375 C-32.28414917 74.13378174 -32.28314209 73.36912598 -32.28210449 72.58129883 C-32.27686661 69.72085066 -32.26290537 66.86042385 -32.25 64 C-32.2190625 54.409375 -32.2190625 54.409375 -32.1875 44.625 C-16.3475 44.625 -0.5075 44.625 15.8125 44.625 C15.8125 45.615 15.8125 46.605 15.8125 47.625 C16.8025 47.625 17.7925 47.625 18.8125 47.625 C18.4825 46.67625 18.1525 45.7275 17.8125 44.75 C16.4480542 40.07052744 16.63750659 35.45676241 16.8125 30.625 C18.1325 30.295 19.4525 29.965 20.8125 29.625 C21.22536896 23.99844884 21.22536896 23.99844884 19.375 18.8125 C12.48382013 12.92978547 3.49405689 13.01412697 -5.1875 12.625 C-5.1875 10.975 -5.1875 9.325 -5.1875 7.625 C-7.1675 7.625 -9.1475 7.625 -11.1875 7.625 C-11.5175 9.275 -11.8475 10.925 -12.1875 12.625 C-14.03214844 12.77195312 -14.03214844 12.77195312 -15.9140625 12.921875 C-17.54695712 13.07202623 -19.17976548 13.22311772 -20.8125 13.375 C-21.62074219 13.436875 -22.42898438 13.49875 -23.26171875 13.5625 C-28.56696995 14.08008548 -31.96685473 15.11861777 -36.1875 18.625 C-38.24675681 21.71388522 -38.4265374 22.33435927 -38.3125 25.8125 C-38.27125 27.070625 -38.23 28.32875 -38.1875 29.625 C-36.8675 29.955 -35.5475 30.285 -34.1875 30.625 C-33.8184795 42.14664009 -33.8184795 42.14664009 -36.1875 47.625 C-35.1975 47.625 -34.2075 47.625 -33.1875 47.625 C-33.6825 50.1 -33.6825 50.1 -34.1875 52.625 C-35.8375 52.625 -37.4875 52.625 -39.1875 52.625 C-39.435 51.67625 -39.6825 50.7275 -39.9375 49.75 C-41.36173987 46.18940032 -41.90465887 46.10757341 -45.1875 44.625 C-45.9375 42.5 -45.9375 42.5 -46.1875 40.625 C-44.8675 40.625 -43.5475 40.625 -42.1875 40.625 C-42.1875 39.965 -42.1875 39.305 -42.1875 38.625 C-43.1775 38.295 -44.1675 37.965 -45.1875 37.625 C-48.77606941 32.59136909 -47.72537245 25.46670327 -47.1875 19.625 C-45.625 16.125 -45.625 16.125 -43.1875 13.625 C-42.68992187 13.10550781 -42.19234375 12.58601563 -41.6796875 12.05078125 C-36.23714429 6.82340835 -30.18082953 4.80673579 -22.75 4.1875 C-20.9865625 3.9090625 -20.9865625 3.9090625 -19.1875 3.625 C-17.8112206 1.70735826 -17.8112206 1.70735826 -17.1875 -0.375 C-11.62484782 -2.22921739 -5.39650061 -2.32790222 0 0 Z " fill="#9E9E9E" transform="translate(637.1875,17.375)"/>
<path d="M0 0 C5.77527636 2.63010688 9.24856832 6.30578005 11.99609375 12.0625 C13.52497457 19.28993659 13.64308016 26.8383924 9.68359375 33.3125 C5.59235619 37.85831951 1.14135503 40.97898544 -5.0703125 41.578125 C-5.99714844 41.57296875 -6.92398437 41.5678125 -7.87890625 41.5625 C-8.80832031 41.56765625 -9.73773438 41.5728125 -10.6953125 41.578125 C-13.31640625 41.3125 -13.31640625 41.3125 -17.31640625 39.3125 C-17.31640625 43.9325 -17.31640625 48.5525 -17.31640625 53.3125 C-21.93640625 53.3125 -26.55640625 53.3125 -31.31640625 53.3125 C-31.31640625 35.8225 -31.31640625 18.3325 -31.31640625 0.3125 C-20.31640625 0.3125 -20.31640625 0.3125 -18.31640625 1.3125 C-12.20479014 -1.12381715 -6.45088546 -1.9145967 0 0 Z " fill="#1F4770" transform="translate(415.31640625,26.6875)"/>
<path d="M0 0 C1.98 0 3.96 0 6 0 C6.66 1.32 7.32 2.64 8 4 C7.34 4 6.68 4 6 4 C6 4.66 6 5.32 6 6 C6.83402344 5.96519531 7.66804687 5.93039063 8.52734375 5.89453125 C16.13515042 5.71152559 23.29929434 5.54912902 29.66015625 10.21875 C32.65825191 13.2251969 33.28693342 15.80991328 33.3125 19.875 C33.23299075 21.25164591 33.13720966 22.62790336 33 24 C31.68 24 30.36 24 29 24 C28.89522488 29.78591511 29.00749455 35.29309366 30 41 C29.01 41 28.02 41 27 41 C27 40.01 27 39.02 27 38 C11.16 38 -4.68 38 -21 38 C-21.33 39.32 -21.66 40.64 -22 42 C-22.99 41.67 -23.98 41.34 -25 41 C-24.835 40.236875 -24.67 39.47375 -24.5 38.6875 C-23.83437851 33.77854151 -23.92079922 28.94564886 -24 24 C-25.32 24 -26.64 24 -28 24 C-28.48545147 19.14548525 -28.54064021 15.94176036 -26.0625 11.625 C-19.57134118 5.09767874 -9.60103669 5.38551787 -1 5 C-0.67 3.35 -0.34 1.7 0 0 Z " fill="#FAFAFA" transform="translate(626,24)"/>
<path d="M0 0 C4.82406141 2.8760789 8.09805457 6.97456905 10.9375 11.75 C12.50508461 18.49061381 12.31173108 24.61800486 8.82421875 30.6875 C5.19326849 35.72361678 0.40509526 38.61767525 -5.4375 40.4375 C-12.66483885 41.3246883 -18.41073665 40.63838744 -24.4375 36.4375 C-29.5038096 32.27186766 -31.93516526 28.03924009 -32.828125 21.63671875 C-33.19348875 15.10168986 -32.39274552 10.56048846 -28.3203125 5.3515625 C-20.79086875 -2.30285127 -10.00200075 -4.40701183 0 0 Z " fill="#214971" transform="translate(462.4375,27.5625)"/>
<path d="M0 0 C5.21108833 3.05065796 9.34621626 7.84412173 11.625 13.4375 C12.56682481 20.49023459 11.93751316 26.65797356 7.625 32.4375 C2.27059511 38.25863267 -2.85013688 40.46429667 -10.75 40.8125 C-17.05622839 40.66703747 -21.54990381 39.14934067 -26.12890625 34.75390625 C-31.39242245 28.85623148 -32.91102167 24.50222152 -32.74609375 16.546875 C-32.06263866 10.82024074 -29.86895054 6.46080228 -25.3671875 2.80859375 C-17.82758356 -2.07406489 -8.47316047 -3.83504749 0 0 Z " fill="#204870" transform="translate(570.375,27.5625)"/>
<path d="M0 0 C0.73798828 -0.01611328 1.47597656 -0.03222656 2.23632812 -0.04882812 C8.19457779 -0.05412435 12.27963427 1.33812964 16.875 5.3125 C20.00874963 9.02657363 19.67987428 12.4947955 19.66015625 17.16796875 C19.6587413 17.82960526 19.65732635 18.49124176 19.65586853 19.17292786 C19.65027996 21.28199828 19.63772965 23.39096177 19.625 25.5 C19.61998352 26.93163909 19.61542087 28.36327985 19.61132812 29.79492188 C19.6003143 33.30081588 19.58305755 36.8066475 19.5625 40.3125 C15.6025 40.3125 11.6425 40.3125 7.5625 40.3125 C7.5625 39.6525 7.5625 38.9925 7.5625 38.3125 C6.52802734 38.65474609 6.52802734 38.65474609 5.47265625 39.00390625 C-0.70519652 40.89370209 -6.1258136 42.26494774 -12.4375 40.3125 C-15.99761255 38.30589111 -17.88367451 36.811521 -19.31640625 32.93359375 C-20.19262948 29.23582149 -20.59084875 26.19425529 -19.9375 22.4375 C-17.1071608 18.4278528 -13.21896689 16.15974238 -8.4375 15.3125 C-6.18842848 15.24459325 -3.93748395 15.22750016 -1.6875 15.25 C0.06820313 15.26353516 0.06820313 15.26353516 1.859375 15.27734375 C2.75140625 15.28894531 3.6434375 15.30054687 4.5625 15.3125 C3.9025 14.3225 3.2425 13.3325 2.5625 12.3125 C-1.25563447 12.58790704 -1.25563447 12.58790704 -4.4375 14.3125 C-6.79063555 14.38521741 -9.14583668 14.39620868 -11.5 14.375 C-12.79035156 14.36597656 -14.08070313 14.35695313 -15.41015625 14.34765625 C-16.40917969 14.33605469 -17.40820312 14.32445313 -18.4375 14.3125 C-17.95058901 7.00883508 -17.95058901 7.00883508 -15.6875 3.9375 C-10.61783349 0.27607419 -6.05047086 -0.02628354 0 0 Z " fill="#F9B100" transform="translate(401.4375,80.6875)"/>
<path d="M0 0 C0.598125 0.53625 1.19625 1.0725 1.8125 1.625 C1.8125 2.285 1.8125 2.945 1.8125 3.625 C2.5859375 3.72296875 3.359375 3.8209375 4.15625 3.921875 C13.40037074 5.24900124 20.70446035 7.15961821 26.8125 14.625 C29.99002805 19.56319114 31.65055187 23.65388042 30.8125 29.625 C29.6702032 32.72917876 28.30770076 35.67663224 26.8125 38.625 C26.3175 39.615 26.3175 39.615 25.8125 40.625 C26.8025 40.625 27.7925 40.625 28.8125 40.625 C28.8125 41.945 28.8125 43.265 28.8125 44.625 C28.02875 44.83125 27.245 45.0375 26.4375 45.25 C23.50333714 46.43176612 23.50333714 46.43176612 22.5 49.75 C22.273125 50.69875 22.04625 51.6475 21.8125 52.625 C20.1625 52.625 18.5125 52.625 16.8125 52.625 C16.4825 50.975 16.1525 49.325 15.8125 47.625 C16.8025 47.625 17.7925 47.625 18.8125 47.625 C18.4825 46.67625 18.1525 45.7275 17.8125 44.75 C16.4480542 40.07052744 16.63750659 35.45676241 16.8125 30.625 C18.1325 30.295 19.4525 29.965 20.8125 29.625 C21.22536896 23.99844884 21.22536896 23.99844884 19.375 18.8125 C12.48382013 12.92978547 3.49405689 13.01412697 -5.1875 12.625 C-5.1875 10.975 -5.1875 9.325 -5.1875 7.625 C-7.1675 7.625 -9.1475 7.625 -11.1875 7.625 C-11.5175 9.275 -11.8475 10.925 -12.1875 12.625 C-14.03214844 12.77195312 -14.03214844 12.77195312 -15.9140625 12.921875 C-17.54695712 13.07202623 -19.17976548 13.22311772 -20.8125 13.375 C-21.62074219 13.436875 -22.42898438 13.49875 -23.26171875 13.5625 C-28.56696995 14.08008548 -31.96685473 15.11861777 -36.1875 18.625 C-38.24675681 21.71388522 -38.4265374 22.33435927 -38.3125 25.8125 C-38.27125 27.070625 -38.23 28.32875 -38.1875 29.625 C-36.8675 29.955 -35.5475 30.285 -34.1875 30.625 C-33.8184795 42.14664009 -33.8184795 42.14664009 -36.1875 47.625 C-35.1975 47.625 -34.2075 47.625 -33.1875 47.625 C-33.6825 50.1 -33.6825 50.1 -34.1875 52.625 C-35.8375 52.625 -37.4875 52.625 -39.1875 52.625 C-39.435 51.67625 -39.6825 50.7275 -39.9375 49.75 C-41.36173987 46.18940032 -41.90465887 46.10757341 -45.1875 44.625 C-45.9375 42.5 -45.9375 42.5 -46.1875 40.625 C-44.8675 40.625 -43.5475 40.625 -42.1875 40.625 C-42.1875 39.965 -42.1875 39.305 -42.1875 38.625 C-43.1775 38.295 -44.1675 37.965 -45.1875 37.625 C-48.77606941 32.59136909 -47.72537245 25.46670327 -47.1875 19.625 C-45.625 16.125 -45.625 16.125 -43.1875 13.625 C-42.68992187 13.10550781 -42.19234375 12.58601563 -41.6796875 12.05078125 C-36.23714429 6.82340835 -30.18082953 4.80673579 -22.75 4.1875 C-20.9865625 3.9090625 -20.9865625 3.9090625 -19.1875 3.625 C-17.8112206 1.70735826 -17.8112206 1.70735826 -17.1875 -0.375 C-11.62484782 -2.22921739 -5.39650061 -2.32790222 0 0 Z " fill="#9E9E9D" transform="translate(637.1875,17.375)"/>
<path d="M0 0 C1.77697266 -0.02513672 1.77697266 -0.02513672 3.58984375 -0.05078125 C9.32200127 0.54887077 13.3681905 2.93405911 17.0625 7.3125 C18.30550889 11.04152668 18.58962352 14.43960637 18.0625 18.3125 C16.37845815 21.68058369 15.23323463 23.71888807 11.84375 25.4375 C8.60067358 26.45779371 5.64095044 26.73198785 2.25 26.9375 C0.50783203 27.04964844 0.50783203 27.04964844 -1.26953125 27.1640625 C-2.59017578 27.23753906 -2.59017578 27.23753906 -3.9375 27.3125 C1.11714032 28.23539483 1.11714032 28.23539483 6.125 27.4375 C9.0625 27.3125 9.0625 27.3125 10.76953125 28.73046875 C15.0625 33.60655738 15.0625 33.60655738 15.0625 36.3125 C7.65015607 40.73139734 1.64264814 42.52654947 -7.0546875 40.921875 C-13.84255098 38.86174523 -17.86224273 33.83141451 -21.375 27.875 C-22.85495493 21.13298309 -22.54792389 14.32987315 -18.9375 8.3125 C-13.49888418 2.25616486 -8.14641462 0.02653555 0 0 Z " fill="#E46609" transform="translate(459.9375,80.6875)"/>
<path d="M0 0 C3.3273365 2.04428608 5.1146216 3.7031824 7.3046875 6.98828125 C7.5703125 9.546875 7.5703125 9.546875 7.5546875 12.42578125 C7.56242188 13.84697266 7.56242188 13.84697266 7.5703125 15.296875 C7.28616741 18.17593337 7.02197288 19.66402431 5.3046875 21.98828125 C0.87799745 24.82473807 -2.87078492 25.43052052 -8.0703125 25.67578125 C-9.93816406 25.77439453 -9.93816406 25.77439453 -11.84375 25.875 C-13.25527344 25.93107422 -13.25527344 25.93107422 -14.6953125 25.98828125 C-9.64859555 26.89992131 -9.64859555 26.89992131 -4.6328125 26.17578125 C-1.6953125 25.98828125 -1.6953125 25.98828125 0.046875 27.11328125 C1.75621805 28.68871264 3.13952178 29.97077641 4.3046875 31.98828125 C4.140625 34.08984375 4.140625 34.08984375 3.3046875 35.98828125 C-2.80238226 39.65252311 -8.66120273 40.78735612 -15.6953125 39.98828125 C-22.93417448 37.93511942 -26.88853798 34.55052959 -30.80078125 28.19140625 C-32.96169445 22.86933182 -32.49963589 16.01292251 -31.04296875 10.53515625 C-28.83128156 5.56123312 -25.44646157 2.55676787 -20.6953125 -0.01171875 C-14.53312621 -2.06578085 -6.14035022 -2.3048561 0 0 Z " fill="#0081A5" transform="translate(574.6953125,82.01171875)"/>
<path d="M0 0 C2.3828125 -0.29296875 2.3828125 -0.29296875 5.125 -0.1875 C6.73375 -0.125625 8.3425 -0.06375 10 0 C10 3.3 10 6.6 10 10 C13.63 10 17.26 10 21 10 C21 13.96 21 17.92 21 22 C17.37 22 13.74 22 10 22 C10.33 26.95 10.66 31.9 11 37 C14.3 37.33 17.6 37.66 21 38 C21 41.96 21 45.92 21 50 C6.79668191 50.57667607 6.79668191 50.57667607 1 47 C-2.59885463 43.21173197 -4.13682497 40.19772121 -4.09765625 34.98828125 C-4.09443359 34.23095703 -4.09121094 33.47363281 -4.08789062 32.69335938 C-4.07951172 31.90767578 -4.07113281 31.12199219 -4.0625 30.3125 C-4.05798828 29.51521484 -4.05347656 28.71792969 -4.04882812 27.89648438 C-4.0370585 25.93095743 -4.01912348 23.96546915 -4 22 C-5.98 22 -7.96 22 -10 22 C-10 18.37 -10 14.74 -10 11 C-9.05125 10.79375 -8.1025 10.5875 -7.125 10.375 C-3.73579471 9.3093035 -3.73579471 9.3093035 -2.75 6.0625 C-2.5025 5.051875 -2.255 4.04125 -2 3 C-1.34 2.01 -0.68 1.02 0 0 Z " fill="#224A72" transform="translate(516,17)"/>
<path d="M0 0 C3.96 0 7.92 0 12 0 C12 0.99 12 1.98 12 3 C12.763125 2.505 13.52625 2.01 14.3125 1.5 C19.41273078 -0.57467015 23.51218791 -0.20077361 29 0 C29 3.96 29 7.92 29 12 C26.78645833 12.13020833 24.57291667 12.26041667 22.359375 12.390625 C18.96490785 13.26734168 17.95292461 14.03347694 16 17 C15.3894974 20.72352968 15.34851835 24.41998067 15.3125 28.1875 C15.2706126 30.20190293 15.22523484 32.21623737 15.17578125 34.23046875 C15.16458252 35.12145264 15.15338379 36.01243652 15.1418457 36.93041992 C15 39 15 39 14 40 C11.83519203 40.0989294 9.66706215 40.129711 7.5 40.125 C6.3140625 40.12757812 5.128125 40.13015625 3.90625 40.1328125 C1 40 1 40 0 39 C-0.08865208 36.1156618 -0.11521296 33.25537842 -0.09765625 30.37109375 C-0.0962413 29.50686295 -0.09482635 28.64263214 -0.09336853 27.75221252 C-0.08775239 24.98060708 -0.07519719 22.2090812 -0.0625 19.4375 C-0.05748708 17.5631522 -0.05292381 15.68880315 -0.04882812 13.81445312 C-0.03777772 9.20960456 -0.0205023 4.60481579 0 0 Z " fill="#295076" transform="translate(476,27)"/>
<path d="M0 0 C4.62 0 9.24 0 14 0 C14.33 12.54 14.66 25.08 15 38 C16.32 38.66 17.64 39.32 19 40 C19 43.96 19 47.92 19 52 C5.93356599 51.78955963 5.93356599 51.78955963 2.75 48.625 C0.47306428 45.20959643 -0.12529185 42.72451926 -0.11352539 38.7121582 C-0.11344986 37.85149246 -0.11337433 36.99082672 -0.11329651 36.1040802 C-0.10813522 35.17899155 -0.10297394 34.25390289 -0.09765625 33.30078125 C-0.0962413 32.35059616 -0.09482635 31.40041107 -0.09336853 30.4214325 C-0.08776875 27.38508971 -0.07521632 24.34882052 -0.0625 21.3125 C-0.05748497 19.25455836 -0.05292207 17.19661556 -0.04882812 15.13867188 C-0.0377994 10.09241954 -0.02053493 5.04622225 0 0 Z " fill="#009E8C" transform="translate(421,69)"/>
<path d="M0 0 C14.52 0 29.04 0 44 0 C44 5.61 44 11.22 44 17 C29.48 17 14.96 17 0 17 C0 11.39 0 5.78 0 0 Z " fill="#FEFEFE" transform="translate(607,64)"/>
<path d="M0 0 C3.96 0 7.92 0 12 0 C12 0.66 12 1.32 12 2 C12.56203125 1.67257813 13.1240625 1.34515625 13.703125 1.0078125 C17.45524118 -0.63852419 20.93922613 -0.11943453 25 0 C25 3.96 25 7.92 25 12 C22.03 12.66 19.06 13.32 16 14 C15.19556303 17.21774789 14.82274837 19.72418116 14.68359375 22.984375 C14.64169922 23.91894531 14.59980469 24.85351562 14.55664062 25.81640625 C14.49766602 27.26853516 14.49766602 27.26853516 14.4375 28.75 C14.39431641 29.73355469 14.35113281 30.71710938 14.30664062 31.73046875 C14.20078051 34.15348927 14.09990688 36.57672672 14 39 C9.38 39 4.76 39 0 39 C0 26.13 0 13.26 0 0 Z " fill="#DE4C60" transform="translate(519,82)"/>
<path d="M0 0 C14.19 0 28.38 0 43 0 C41.85343913 6.8793652 40.16349842 9.885672 35.25 14.6875 C31.58088561 17.29821601 28.29361907 18.75644692 24 20 C22.88625 20.33 21.7725 20.66 20.625 21 C14.53669174 21 9.47429594 18.32962944 5.0625 14.17578125 C0.57191387 9.02671975 0 7.41307004 0 0 Z " fill="#B6B6B5" transform="translate(607,99)"/>
<path d="M0 0 C2.31 0 4.62 0 7 0 C7 1.32 7 2.64 7 4 C7.66 4 8.32 4 9 4 C9.33 3.01 9.66 2.02 10 1 C12.31 1.33 14.62 1.66 17 2 C16.67 2.66 16.34 3.32 16 4 C13.525 3.505 13.525 3.505 11 3 C11.99 3.99 12.98 4.98 14 6 C13.01 6 12.02 6 11 6 C10.67 7.65 10.34 9.3 10 11 C10.66 11 11.32 11 12 11 C12.75 14.25 12.75 14.25 13 18 C11.13404337 20.83625407 9.85588232 21.79321883 6.55859375 22.58984375 C1.5746056 23.16428805 -3.36196683 23.18430291 -8.375 23.1875 C-9.37789062 23.19974609 -10.38078125 23.21199219 -11.4140625 23.22460938 C-17.28029275 23.23612684 -22.43214521 22.92634976 -28 21 C-30.56687367 17.1496895 -29.83288724 15.41430237 -29 11 C-28.34 11 -27.68 11 -27 11 C-27 9.35 -27 7.7 -27 6 C-30.11332248 6.66868314 -30.11332248 6.66868314 -31.1875 9.0625 C-31.455625 9.701875 -31.72375 10.34125 -32 11 C-33.5625 8.1875 -33.5625 8.1875 -35 5 C-34.67 4.01 -34.34 3.02 -34 2 C-31.6739143 1.61936779 -29.33944736 1.28730055 -27 1 C-26 2 -26 2 -25.9375 4.5625 C-25.958125 5.366875 -25.97875 6.17125 -26 7 C-25.34 7.33 -24.68 7.66 -24 8 C-24 9.65 -24 11.3 -24 13 C-23.01 12.67 -22.02 12.34 -21 12 C-20.67 11.01 -20.34 10.02 -20 9 C-19.01 9 -18.02 9 -17 9 C-17 7.35 -17 5.7 -17 4 C-18.98 4.33 -20.96 4.66 -23 5 C-23 4.34 -23 3.68 -23 3 C-19.535 2.505 -19.535 2.505 -16 2 C-16 2.99 -16 3.98 -16 5 C-14.68 5.33 -13.36 5.66 -12 6 C-13.32 6 -14.64 6 -16 6 C-15.67 7.98 -15.34 9.96 -15 12 C-13.35 12 -11.7 12 -10 12 C-10 10.68 -10 9.36 -10 8 C-9.01 8 -8.02 8 -7 8 C-7 9.32 -7 10.64 -7 12 C-5.35 12 -3.7 12 -2 12 C-1.67 9.69 -1.34 7.38 -1 5 C-0.505 6.98 -0.505 6.98 0 9 C0.99 9 1.98 9 3 9 C3 10.32 3 11.64 3 13 C4.65 13 6.3 13 8 13 C8 11.35 8 9.7 8 8 C7.01 7.67 6.02 7.34 5 7 C5.66 6.67 6.32 6.34 7 6 C7.66 6.33 8.32 6.66 9 7 C9 6.34 9 5.68 9 5 C8.2575 5.061875 7.515 5.12375 6.75 5.1875 C3.52480092 4.96760006 2.30276574 4.21747812 0 2 C0 1.34 0 0.68 0 0 Z " fill="#B1B1B1" transform="translate(637,36)"/>
<path d="M0 0 C1.794375 -0.00773437 1.794375 -0.00773437 3.625 -0.015625 C6.85804974 0.23882799 9.09417459 0.86312878 12 2.25 C10.43909056 6.08132316 7.8924866 8.3575134 5 11.25 C4.67 12.24 4.34 13.23 4 14.25 C3.42894531 14.24355469 2.85789062 14.23710938 2.26953125 14.23046875 C-7.52985603 15.05617229 -12.80594361 22.35692784 -19 29.25 C-21 28.25 -21 28.25 -22 25.25 C-22.61956759 19.20921602 -22.16937512 13.53229186 -19 8.25 C-13.52667329 2.15501149 -8.19692088 -0.03533156 0 0 Z " fill="#EF802B" transform="translate(460,80.75)"/>
<path d="M0 0 C14 0 14 0 19 2 C21.65249788 5.09458086 22.02498002 6.517053 21.8125 10.625 C21 14 21 14 19 17 C18.34 17 17.68 17 17 17 C18.65 20.63 20.3 24.26 22 28 C20.02 28 18.04 28 16 28 C12 21.25 12 21.25 12 19 C9.69 19 7.38 19 5 19 C5 21.97 5 24.94 5 28 C3.35 28 1.7 28 0 28 C0 18.76 0 9.52 0 0 Z " fill="#2A2A28" transform="translate(603,147)"/>
<path d="M0 0 C14 0 14 0 19 2 C21.65249788 5.09458086 22.02498002 6.517053 21.8125 10.625 C21 14 21 14 19 17 C18.34 17 17.68 17 17 17 C18.65 20.63 20.3 24.26 22 28 C20.02 28 18.04 28 16 28 C12 21.25 12 21.25 12 19 C9.69 19 7.38 19 5 19 C5 21.97 5 24.94 5 28 C3.35 28 1.7 28 0 28 C0 18.76 0 9.52 0 0 Z " fill="#2A2A28" transform="translate(413,147)"/>
<path d="M0 0 C13 0 13 0 18 2 C20.18481571 4.71218502 20.93471596 6.55233804 21.4375 10 C20.8943967 13.72413693 19.59513183 15.32854076 17 18 C14.47524538 19.26237731 12.68799534 19.09856404 9.875 19.0625 C8.96492188 19.05347656 8.05484375 19.04445312 7.1171875 19.03515625 C6.06917969 19.01775391 6.06917969 19.01775391 5 19 C5 21.97 5 24.94 5 28 C3.35 28 1.7 28 0 28 C0 18.76 0 9.52 0 0 Z " fill="#252523" transform="translate(384,147)"/>
<path d="M0 0 C1.2065625 0.0309375 1.2065625 0.0309375 2.4375 0.0625 C4.11281673 3.99637538 5.77625803 7.93516263 7.4375 11.875 C7.91445313 12.99455078 8.39140625 14.11410156 8.8828125 15.26757812 C9.33398438 16.34072266 9.78515625 17.41386719 10.25 18.51953125 C10.87841797 20.0041687 10.87841797 20.0041687 11.51953125 21.51879883 C12.4375 24.0625 12.4375 24.0625 12.4375 27.0625 C10.7875 27.0625 9.1375 27.0625 7.4375 27.0625 C6.9425 24.5875 6.9425 24.5875 6.4375 22.0625 C4.31170987 22.12238141 2.18671587 22.21112744 0.0625 22.3125 C-1.12085938 22.35890625 -2.30421875 22.4053125 -3.5234375 22.453125 C-6.67541753 22.71898799 -6.67541753 22.71898799 -7.9765625 25.109375 C-8.16992188 25.75390625 -8.36328125 26.3984375 -8.5625 27.0625 C-10.2125 27.0625 -11.8625 27.0625 -13.5625 27.0625 C-11.93462884 20.61302949 -9.60483323 14.577365 -6.9375 8.5 C-6.62417725 7.78521484 -6.31085449 7.07042969 -5.98803711 6.33398438 C-3.20169072 0.07809002 -3.20169072 0.07809002 0 0 Z " fill="#252523" transform="translate(644.5625,147.9375)"/>
<path d="M0 0 C1.45792884 -0.05399736 2.91642712 -0.09279177 4.375 -0.125 C5.18710937 -0.14820313 5.99921875 -0.17140625 6.8359375 -0.1953125 C9 0 9 0 11 2 C11.33 1.67 11.66 1.34 12 1 C13.66617115 0.95936168 15.33388095 0.957279 17 1 C16 3 16 3 14 4 C14.763125 4.12375 15.52625 4.2475 16.3125 4.375 C19 5 19 5 22 7 C22 7.66 22 8.32 22 9 C21.01 9 20.02 9 19 9 C19.66 9.33 20.32 9.66 21 10 C21 11.65 21 13.3 21 15 C19.35 15 17.7 15 16 15 C16 13.68 16 12.36 16 11 C14.02463255 11.34786708 14.02463255 11.34786708 12 12 C11.67 12.66 11.34 13.32 11 14 C9.35 14 7.7 14 6 14 C6 12.68 6 11.36 6 10 C5.01 10 4.02 10 3 10 C3 11.32 3 12.64 3 14 C1.35 14 -0.3 14 -2 14 C-2.66 11.03 -3.32 8.06 -4 5 C-5.98 5 -7.96 5 -10 5 C-8.93354885 6.29633621 -8.93354885 6.29633621 -6.4375 6.0625 C-5.633125 6.041875 -4.82875 6.02125 -4 6 C-4 7.65 -4 9.3 -4 11 C-4.99 11 -5.98 11 -7 11 C-7.33 12.32 -7.66 13.64 -8 15 C-8.99 15 -9.98 15 -11 15 C-11.66 12.03 -12.32 9.06 -13 6 C-12.34 6 -11.68 6 -11 6 C-10.67 4.35 -10.34 2.7 -10 1 C-7.69 1 -5.38 1 -3 1 C-2.67 2.32 -2.34 3.64 -2 5 C-1.34 5 -0.68 5 0 5 C0 3.35 0 1.7 0 0 Z " fill="#C9C9C9" transform="translate(624,34)"/>
<path d="M0 0 C6.27 0 12.54 0 19 0 C19 1.65 19 3.3 19 5 C14.38 5 9.76 5 5 5 C5 7.31 5 9.62 5 12 C8.96 12 12.92 12 17 12 C17 13.65 17 15.3 17 17 C13.04 17 9.08 17 5 17 C5 19.31 5 21.62 5 24 C9.62 24 14.24 24 19 24 C19 25.32 19 26.64 19 28 C12.73 28 6.46 28 0 28 C0 18.76 0 9.52 0 0 Z " fill="#2A2A28" transform="translate(499,147)"/>
<path d="M0 0 C6.27 0 12.54 0 19 0 C19 1.65 19 3.3 19 5 C14.38 5 9.76 5 5 5 C5 7.31 5 9.62 5 12 C8.96 12 12.92 12 17 12 C17 13.65 17 15.3 17 17 C13.04 17 9.08 17 5 17 C5 19.31 5 21.62 5 24 C9.62 24 14.24 24 19 24 C19 25.32 19 26.64 19 28 C12.73 28 6.46 28 0 28 C0 18.76 0 9.52 0 0 Z " fill="#2A2A28" transform="translate(444,147)"/>
<path d="M0 0 C1.65 0 3.3 0 5 0 C5.01458252 0.59014893 5.02916504 1.18029785 5.04418945 1.78833008 C5.11868844 4.46371229 5.21533995 7.13784892 5.3125 9.8125 C5.33505859 10.74126953 5.35761719 11.67003906 5.38085938 12.62695312 C5.41630859 13.51962891 5.45175781 14.41230469 5.48828125 15.33203125 C5.51446533 16.15421143 5.54064941 16.9763916 5.56762695 17.82348633 C6.09545786 20.48052334 6.84338889 21.39550169 9 23 C13.0931663 23.53405539 13.0931663 23.53405539 16.65551758 21.76831055 C18.36851603 19.51531476 18.42217232 18.14378906 18.51171875 15.33203125 C18.54716797 14.43935547 18.58261719 13.54667969 18.61914062 12.62695312 C18.64169922 11.69818359 18.66425781 10.76941406 18.6875 9.8125 C18.72166016 8.87212891 18.75582031 7.93175781 18.79101562 6.96289062 C18.87348218 4.64204607 18.94263403 2.32157852 19 0 C20.65 0 22.3 0 24 0 C24.11698258 3.20802233 24.18750607 6.41549025 24.25 9.625 C24.28351562 10.52863281 24.31703125 11.43226563 24.3515625 12.36328125 C24.43538198 18.10491534 23.94604259 21.5003759 20 26 C15.55599734 28.96266844 11.21098923 28.76945894 6 28 C3.10316132 25.7984026 1.60702769 24.21405538 0 21 C-0.08400529 19.40552536 -0.10727467 17.80759455 -0.09765625 16.2109375 C-0.09443359 15.26992187 -0.09121094 14.32890625 -0.08789062 13.359375 C-0.07951172 12.37453125 -0.07113281 11.3896875 -0.0625 10.375 C-0.05798828 9.38242188 -0.05347656 8.38984375 -0.04882812 7.3671875 C-0.03702145 4.9113984 -0.020554 2.45572896 0 0 Z " fill="#292927" transform="translate(570,147)"/>
<path d="M0 0 C6.27 0 12.54 0 19 0 C19 1.65 19 3.3 19 5 C14.38 5 9.76 5 5 5 C5 7.64 5 10.28 5 13 C8.96 13 12.92 13 17 13 C17 14.65 17 16.3 17 18 C13.04 18 9.08 18 5 18 C5 21.3 5 24.6 5 28 C3.35 28 1.7 28 0 28 C0 18.76 0 9.52 0 0 Z " fill="#2B2B29" transform="translate(471,147)"/>
<path d="M0 0 C4.46171566 0.87640843 5.92740402 1.94554221 8.5 5.6875 C9.26646776 9.37384492 8.9231589 12.58728685 7.5625 16.125 C4.19232404 18.67816361 0.66958717 19.23516907 -3.5 18.6875 C-6.86876527 15.86873722 -8.22910506 13.98779571 -9.125 9.6875 C-7.98725539 4.22632586 -5.53451174 1.08713623 0 0 Z " fill="#F7F9FA" transform="translate(405.5,37.3125)"/>
<path d="M0 0 C3.5625 0.625 3.5625 0.625 6.5 2.625 C8.79386937 5.96153726 9.3170711 7.72462386 9.046875 11.6875 C8.18151083 15.14895669 6.42051731 16.63681405 3.5625 18.625 C0.05837381 19.19710224 -1.66154484 19.06540698 -4.75 17.3125 C-7.24984905 14.81265095 -7.42837046 12.72359906 -7.75 9.25 C-7.26692762 3.64636043 -5.65609324 1.02838059 0 0 Z " fill="#F8F9FA" transform="translate(559.4375,37.375)"/>
<path d="M0 0 C2.91963173 1.98783437 4.61102978 3.4314697 5.48046875 6.9375 C5.76091862 10.93959545 5.24214679 12.65814571 2.875 16 C0 18 0 18 -3 18.625 C-7.17862962 17.75445216 -8.56887157 16.50368509 -11 13 C-11.88926688 8.65419141 -11.76268305 5.25080021 -9.4375 1.4375 C-6.00082919 -0.58925458 -3.92582814 -0.6198676 0 0 Z " fill="#F7F9FA" transform="translate(455,38)"/>
<path d="M0 0 C1.05896484 -0.00773437 2.11792969 -0.01546875 3.20898438 -0.0234375 C8.81913042 -0.00943838 13.84345015 0.07237141 19.0625 2.25 C19.5575 3.735 19.5575 3.735 20.0625 5.25 C13.4645555 7.22938335 7.42868682 7.55343336 0.5625 7.5 C-0.43136719 7.50773437 -1.42523437 7.51546875 -2.44921875 7.5234375 C-8.29367702 7.50799639 -13.33639834 6.9303305 -18.9375 5.25 C-17.9375 2.25 -17.9375 2.25 -15.62109375 1.078125 C-10.39449938 -0.09688879 -5.33977213 -0.03885826 0 0 Z " fill="#9E9E9D" transform="translate(627.9375,51.75)"/>
<path d="M0 0 C6.93 0 13.86 0 21 0 C21 1.65 21 3.3 21 5 C18.36 5 15.72 5 13 5 C13 12.59 13 20.18 13 28 C11.35 28 9.7 28 8 28 C8 20.41 8 12.82 8 5 C5.36 5 2.72 5 0 5 C0 3.35 0 1.7 0 0 Z " fill="#282826" transform="translate(540,147)"/>
<path d="M0 0 C4.62 0 9.24 0 14 0 C14.61881211 3.93789524 14.94505301 6.20437949 14 10 C10.20818932 14.61968935 5.75280243 19.08239919 0 21 C0 14.07 0 7.14 0 0 Z " fill="#7EC7BC" transform="translate(421,69)"/>
<path d="M0 0 C6.6 0 13.2 0 20 0 C19.01 0.495 19.01 0.495 18 1 C17.64080332 2.66128463 17.31088368 4.32900023 17 6 C15.9375 8.3125 15.9375 8.3125 15 10 C14.34 10 13.68 10 13 10 C13.33 10.99 13.66 11.98 14 13 C10.875 13.4375 10.875 13.4375 7 13 C2.09046639 9.25267899 1.0250094 6.15005638 0 0 Z " fill="#FDFDFD" transform="translate(608,101)"/>
<path d="M0 0 C1.65 0 3.3 0 5 0 C5 1.32 5 2.64 5 4 C6.11375 4.103125 7.2275 4.20625 8.375 4.3125 C10.169375 4.6528125 10.169375 4.6528125 12 5 C14.16551116 8.24826674 14.55156953 9.23094157 14 13 C12.625 15.375 12.625 15.375 10 17 C6.54396104 17.03250193 3.43768952 16.54279308 0 16 C0 10.72 0 5.44 0 0 Z " fill="#373735" transform="translate(512,203)"/>
<path d="M0 0 C2.4375 1.0625 2.4375 1.0625 4 3 C4.56988508 6.91795996 4.59460908 9.07240983 2.4375 12.4375 C-0.94217804 14.60396028 -3.05983987 14.56288002 -7 14 C-9.4375 12.375 -9.4375 12.375 -11 10 C-11.60605429 6.36367425 -11.47161336 4.71685231 -9.4375 1.625 C-6.08716465 -0.6085569 -3.9518567 -0.49398209 0 0 Z " fill="#313130" transform="translate(335,86)"/>
<path d="M0 0 C2.4375 1.0625 2.4375 1.0625 4 3 C4.56988508 6.91795996 4.59460908 9.07240983 2.4375 12.4375 C-0.94217804 14.60396028 -3.05983987 14.56288002 -7 14 C-9.4375 12.375 -9.4375 12.375 -11 10 C-11.60605429 6.36367425 -11.47161336 4.71685231 -9.4375 1.625 C-6.08716465 -0.6085569 -3.9518567 -0.49398209 0 0 Z " fill="#313130" transform="translate(77,86)"/>
<path d="M0 0 C2.4375 1.0625 2.4375 1.0625 4 3 C4.56988508 6.91795996 4.59460908 9.07240983 2.4375 12.4375 C-0.94217804 14.60396028 -3.05983987 14.56288002 -7 14 C-9.4375 12.375 -9.4375 12.375 -11 10 C-11.60605429 6.36367425 -11.47161336 4.71685231 -9.4375 1.625 C-6.08716465 -0.6085569 -3.9518567 -0.49398209 0 0 Z " fill="#313130" transform="translate(335,61)"/>
<path d="M0 0 C6.6 0 13.2 0 20 0 C16.33467742 9.77419355 16.33467742 9.77419355 12 13 C8.6875 13.3125 8.6875 13.3125 6 13 C6 12.34 6 11.68 6 11 C5.34 11 4.68 11 4 11 C3.34 9.35 2.68 7.7 2 6 C2.99 5.67 3.98 5.34 5 5 C5 4.34 5 3.68 5 3 C3.68 3.33 2.36 3.66 1 4 C0.67 2.68 0.34 1.36 0 0 Z " fill="#FDFDFD" transform="translate(630,101)"/>
<path d="M0 0 C2.77141717 -0.08089542 5.54047819 -0.14044062 8.3125 -0.1875 C9.09818359 -0.21263672 9.88386719 -0.23777344 10.69335938 -0.26367188 C11.45068359 -0.27333984 12.20800781 -0.28300781 12.98828125 -0.29296875 C14.03302612 -0.31653442 14.03302612 -0.31653442 15.09887695 -0.34057617 C17.58844351 0.10541655 18.46262449 1.03149608 20 3 C20.29296875 5.26171875 20.29296875 5.26171875 20.1875 7.6875 C20.16042969 8.49574219 20.13335938 9.30398437 20.10546875 10.13671875 C20.05326172 11.05904297 20.05326172 11.05904297 20 12 C18.68 12 17.36 12 16 12 C15.67 9.36 15.34 6.72 15 4 C14.34 4 13.68 4 13 4 C12.67 6.64 12.34 9.28 12 12 C10.68 12 9.36 12 8 12 C7.67 9.36 7.34 6.72 7 4 C6.67 4 6.34 4 6 4 C5.67 6.64 5.34 9.28 5 12 C3.35 12 1.7 12 0 12 C0 8.04 0 4.08 0 0 Z " fill="#30302E" transform="translate(558,230)"/>
<path d="M0 0 C8.13448006 -0.35887412 8.13448006 -0.35887412 11.5625 1.0625 C13.8195184 4.10456828 13.51501365 6.33052778 13 10 C11.5625 12.4375 11.5625 12.4375 9 14 C5.91795892 14.32358779 3.11556103 14.1832683 0 14 C0 9.38 0 4.76 0 0 Z " fill="#343432" transform="translate(313,112)"/>
<path d="M0 0 C8.13448006 -0.35887412 8.13448006 -0.35887412 11.5625 1.0625 C13.8195184 4.10456828 13.51501365 6.33052778 13 10 C11.5625 12.4375 11.5625 12.4375 9 14 C5.91795892 14.32358779 3.11556103 14.1832683 0 14 C0 9.38 0 4.76 0 0 Z " fill="#343432" transform="translate(282,112)"/>
<path d="M0 0 C8.13448006 -0.35887412 8.13448006 -0.35887412 11.5625 1.0625 C13.8195184 4.10456828 13.51501365 6.33052778 13 10 C11.5625 12.4375 11.5625 12.4375 9 14 C5.91795892 14.32358779 3.11556103 14.1832683 0 14 C0 9.38 0 4.76 0 0 Z " fill="#343432" transform="translate(308,61)"/>
<path d="M0 0 C6.27 0.33 12.54 0.66 19 1 C19 4.63 19 8.26 19 12 C16.03 11.505 16.03 11.505 13 11 C12.67 9.68 12.34 8.36 12 7 C10.02 7 8.04 7 6 7 C5.34 8.65 4.68 10.3 4 12 C2.35 11.67 0.7 11.34 -1 11 C-1.07622858 7.03611362 -0.9681648 3.8726592 0 0 Z " fill="#F1F1F1" transform="translate(619,86)"/>
<path d="M0 0 C-1.14597001 9.76640112 -1.14597001 9.76640112 -4.25 14.25 C-7 16 -7 16 -10.3125 15.8125 C-11.199375 15.544375 -12.08625 15.27625 -13 15 C-13.33 13.68 -13.66 12.36 -14 11 C-13.34 11.66 -12.68 12.32 -12 13 C-9 13.41666667 -9 13.41666667 -6 13 C-5.34 12.01 -4.68 11.02 -4 10 C-4.99 10.495 -4.99 10.495 -6 11 C-9 11.25 -9 11.25 -12 11 C-14.1610211 7.75846834 -14.64247553 6.76307099 -14 3 C-9.87798516 -2.05279238 -5.8189413 -1.16632375 0 0 Z " fill="#5E5E5C" transform="translate(417,208)"/>
<path d="M0 0 C6.8359375 -0.1953125 6.8359375 -0.1953125 9 0 C9.66 0.66 10.32 1.32 11 2 C10.66666667 3.66666667 10.33333333 5.33333333 10 7 C10.66 7.66 11.32 8.32 12 9 C11.46428571 12.53571429 11.46428571 12.53571429 10 14 C6.66381769 14.14257189 3.34024394 14.04228157 0 14 C0 9.38 0 4.76 0 0 Z " fill="#353534" transform="translate(243,112)"/>
<path d="M0 0 C6.8359375 -0.1953125 6.8359375 -0.1953125 9 0 C9.66 0.66 10.32 1.32 11 2 C10.66666667 3.66666667 10.33333333 5.33333333 10 7 C10.66 7.66 11.32 8.32 12 9 C11.46428571 12.53571429 11.46428571 12.53571429 10 14 C6.66381769 14.14257189 3.34024394 14.04228157 0 14 C0 9.38 0 4.76 0 0 Z " fill="#353534" transform="translate(239,86)"/>
<path d="M0 0 C6.8359375 -0.1953125 6.8359375 -0.1953125 9 0 C9.66 0.66 10.32 1.32 11 2 C10.66666667 3.66666667 10.33333333 5.33333333 10 7 C10.66 7.66 11.32 8.32 12 9 C11.46428571 12.53571429 11.46428571 12.53571429 10 14 C6.66381769 14.14257189 3.34024394 14.04228157 0 14 C0 9.38 0 4.76 0 0 Z " fill="#353534" transform="translate(122,86)"/>
<path d="M0 0 C0.33 0 0.66 0 1 0 C0.85833643 1.91697937 0.71150416 3.83357723 0.5625 5.75 C0.48128906 6.81734375 0.40007813 7.8846875 0.31640625 8.984375 C0.05909227 11.43679962 -0.31812218 13.63921291 -1 16 C-2.43410368 16.24954005 -3.87260072 16.47392642 -5.3125 16.6875 C-6.11300781 16.81511719 -6.91351562 16.94273437 -7.73828125 17.07421875 C-10 17 -10 17 -11.796875 15.73828125 C-13 14 -13 14 -12.9375 10.5 C-12 7 -12 7 -10.3125 5 C-7.22020156 3.66278986 -5.21223855 4.19694036 -2 5 C-1.34 3.35 -0.68 1.7 0 0 Z " fill="#F9F9F9" transform="translate(534,226)"/>
<path d="M0 0 C1.32 0.33 2.64 0.66 4 1 C4.3690205 12.52164009 4.3690205 12.52164009 2 18 C2.99 18 3.98 18 5 18 C4.67 19.65 4.34 21.3 4 23 C2.35 23 0.7 23 -1 23 C-1.2475 22.05125 -1.495 21.1025 -1.75 20.125 C-3.17423987 16.56440032 -3.71715887 16.48257341 -7 15 C-7.75 12.875 -7.75 12.875 -8 11 C-6.68 11 -5.36 11 -4 11 C-3.938125 10.38125 -3.87625 9.7625 -3.8125 9.125 C-3 7 -3 7 -0.4375 5.75 C0.366875 5.5025 1.17125 5.255 2 5 C1.34 3.35 0.68 1.7 0 0 Z " fill="#A2A2A1" transform="translate(599,47)"/>
<path d="M0 0 C-3.1278313 5.00453008 -6.43826626 10.19540049 -11 14 C-14.9375 14.5 -14.9375 14.5 -18 14 C-17.51308901 6.69633508 -17.51308901 6.69633508 -15.25 3.625 C-10.14388033 -0.0627531 -6.12343294 -0.207574 0 0 Z " fill="#FFCE29" transform="translate(401,81)"/>
<path d="M0 0 C1.65 0 3.3 0 5 0 C5 1.32 5 2.64 5 4 C6.134375 4.12375 7.26875 4.2475 8.4375 4.375 C9.613125 4.58125 10.78875 4.7875 12 5 C13.20272819 7.40545638 13.10071472 8.94996953 13.0625 11.625 C13.05347656 12.44226563 13.04445313 13.25953125 13.03515625 14.1015625 C13.02355469 14.72804687 13.01195312 15.35453125 13 16 C11.68 16 10.36 16 9 16 C9 13.36 9 10.72 9 8 C7.68 8 6.36 8 5 8 C5 10.64 5 13.28 5 16 C3.35 16 1.7 16 0 16 C0 10.72 0 5.44 0 0 Z " fill="#383836" transform="translate(604,226)"/>
<path d="M0 0 C1.65 0 3.3 0 5 0 C5 1.32 5 2.64 5 4 C6.134375 4.12375 7.26875 4.2475 8.4375 4.375 C9.613125 4.58125 10.78875 4.7875 12 5 C13.20272819 7.40545638 13.10071472 8.94996953 13.0625 11.625 C13.05347656 12.44226563 13.04445313 13.25953125 13.03515625 14.1015625 C13.02355469 14.72804687 13.01195312 15.35453125 13 16 C11.68 16 10.36 16 9 16 C9 13.36 9 10.72 9 8 C7.68 8 6.36 8 5 8 C5 10.64 5 13.28 5 16 C3.35 16 1.7 16 0 16 C0 10.72 0 5.44 0 0 Z " fill="#383836" transform="translate(551,203)"/>
<path d="M0 0 C-0.66 3.63 -1.32 7.26 -2 11 C-7.90736842 12.02736842 -7.90736842 12.02736842 -11 12 C-13.125 10.4375 -13.125 10.4375 -14 8 C-13.93122904 4.63022316 -13.57223172 2.73913264 -11.5 0.0625 C-7.53059843 -1.62449567 -4.21620401 -0.682033 0 0 Z " fill="#F8F8F8" transform="translate(552,231)"/>
<path d="M0 0 C1.65 0 3.3 0 5 0 C5 8.91 5 17.82 5 27 C3.35 27 1.7 27 0 27 C0 18.09 0 9.18 0 0 Z " fill="#1D1D1B" transform="translate(527,148)"/>
<path d="M0 0 C0.99 0 1.98 0 3 0 C3 0.66 3 1.32 3 2 C4.98 2 6.96 2 9 2 C9 2.66 9 3.32 9 4 C8.34 4.66 7.68 5.32 7 6 C7.66 6.66 8.32 7.32 9 8 C9 10 9 12 9 14 C3.06 14.495 3.06 14.495 -3 15 C-3.66 13.02 -4.32 11.04 -5 9 C-4.34 9 -3.68 9 -3 9 C-2.01 6.03 -1.02 3.06 0 0 Z " fill="#A9A9A8" transform="translate(626,102)"/>
<path d="M0 0 C2.375 1.125 2.375 1.125 4 3 C4.45535315 6.12242157 4.49686954 8.06836961 3 10.875 C-0.37806895 12.77516379 -3.16618269 12.36512546 -7 12 C-9.31282587 8.53076119 -9.42478586 7.07794425 -9 3 C-6.78557651 -0.69070582 -4.02540619 -0.49290688 0 0 Z " fill="#262624" transform="translate(629,230)"/>
<path d="M0 0 C1.423125 -0.061875 2.84625 -0.12375 4.3125 -0.1875 C5.51326172 -0.23970703 5.51326172 -0.23970703 6.73828125 -0.29296875 C9 0 9 0 10.8125 1.34375 C12 3 12 3 11.6875 5.6875 C11.460625 6.450625 11.23375 7.21375 11 8 C10.34 8 9.68 8 9 8 C9.99 9.98 10.98 11.96 12 14 C10.125 13.6875 10.125 13.6875 8 13 C7.34 12.01 6.68 11.02 6 10 C5.01 9.67 4.02 9.34 3 9 C3 10.65 3 12.3 3 14 C2.01 14 1.02 14 0 14 C0 9.38 0 4.76 0 0 Z " fill="#353533" transform="translate(225,86)"/>
<path d="M0 0 C1.423125 -0.061875 2.84625 -0.12375 4.3125 -0.1875 C5.51326172 -0.23970703 5.51326172 -0.23970703 6.73828125 -0.29296875 C9 0 9 0 10.8125 1.34375 C12 3 12 3 11.6875 5.6875 C11.460625 6.450625 11.23375 7.21375 11 8 C10.34 8 9.68 8 9 8 C9.99 9.98 10.98 11.96 12 14 C10.125 13.6875 10.125 13.6875 8 13 C7.34 12.01 6.68 11.02 6 10 C5.01 9.67 4.02 9.34 3 9 C3 10.65 3 12.3 3 14 C2.01 14 1.02 14 0 14 C0 9.38 0 4.76 0 0 Z " fill="#353533" transform="translate(268,61)"/>
<path d="M0 0 C1.423125 -0.061875 2.84625 -0.12375 4.3125 -0.1875 C5.51326172 -0.23970703 5.51326172 -0.23970703 6.73828125 -0.29296875 C9 0 9 0 10.8125 1.34375 C12 3 12 3 11.6875 5.6875 C11.460625 6.450625 11.23375 7.21375 11 8 C10.34 8 9.68 8 9 8 C9.99 9.98 10.98 11.96 12 14 C10.125 13.6875 10.125 13.6875 8 13 C7.34 12.01 6.68 11.02 6 10 C5.01 9.67 4.02 9.34 3 9 C3 10.65 3 12.3 3 14 C2.01 14 1.02 14 0 14 C0 9.38 0 4.76 0 0 Z " fill="#353533" transform="translate(214,61)"/>
<path d="M0 0 C6.625 -0.25 6.625 -0.25 10 2 C10.29296875 4.3828125 10.29296875 4.3828125 10.1875 7.125 C10.16042969 8.03507813 10.13335938 8.94515625 10.10546875 9.8828125 C10.07066406 10.58148438 10.03585937 11.28015625 10 12 C8.18757948 12.02687279 6.37504767 12.04633715 4.5625 12.0625 C3.55316406 12.07410156 2.54382813 12.08570313 1.50390625 12.09765625 C-1 12 -1 12 -2 11 C-2.04063832 9.33382885 -2.042721 7.66611905 -2 6 C0.31 5.34 2.62 4.68 5 4 C2.69 4 0.38 4 -2 4 C-1.34 2.68 -0.68 1.36 0 0 Z " fill="#333331" transform="translate(648,230)"/>
<path d="M0 0 C6.625 -0.25 6.625 -0.25 10 2 C10.29296875 4.3828125 10.29296875 4.3828125 10.1875 7.125 C10.16042969 8.03507813 10.13335938 8.94515625 10.10546875 9.8828125 C10.07066406 10.58148438 10.03585937 11.28015625 10 12 C8.18757948 12.02687279 6.37504767 12.04633715 4.5625 12.0625 C3.55316406 12.07410156 2.54382813 12.08570313 1.50390625 12.09765625 C-1 12 -1 12 -2 11 C-2.04063832 9.33382885 -2.042721 7.66611905 -2 6 C0.31 5.34 2.62 4.68 5 4 C2.69 4 0.38 4 -2 4 C-1.34 2.68 -0.68 1.36 0 0 Z " fill="#333331" transform="translate(569,207)"/>
<path d="M0 0 C6.625 -0.25 6.625 -0.25 10 2 C10.29296875 4.3828125 10.29296875 4.3828125 10.1875 7.125 C10.16042969 8.03507813 10.13335938 8.94515625 10.10546875 9.8828125 C10.07066406 10.58148438 10.03585937 11.28015625 10 12 C8.18757948 12.02687279 6.37504767 12.04633715 4.5625 12.0625 C3.55316406 12.07410156 2.54382813 12.08570313 1.50390625 12.09765625 C-1 12 -1 12 -2 11 C-2.04063832 9.33382885 -2.042721 7.66611905 -2 6 C0.31 5.34 2.62 4.68 5 4 C2.69 4 0.38 4 -2 4 C-1.34 2.68 -0.68 1.36 0 0 Z " fill="#333331" transform="translate(530,207)"/>
<path d="M0 0 C6.625 -0.25 6.625 -0.25 10 2 C10.29296875 4.3828125 10.29296875 4.3828125 10.1875 7.125 C10.16042969 8.03507813 10.13335937 8.94515625 10.10546875 9.8828125 C10.07066406 10.58148438 10.03585937 11.28015625 10 12 C8.18757948 12.02687279 6.37504767 12.04633715 4.5625 12.0625 C3.55316406 12.07410156 2.54382813 12.08570313 1.50390625 12.09765625 C-1 12 -1 12 -2 11 C-2.04063832 9.33382885 -2.042721 7.66611905 -2 6 C0.31 5.34 2.62 4.68 5 4 C2.69 4 0.38 4 -2 4 C-1.34 2.68 -0.68 1.36 0 0 Z " fill="#333331" transform="translate(499,207)"/>
<path d="M0 0 C4.19174654 1.04793663 5.21592961 1.91763635 8 5 C8.598125 4.175 9.19625 3.35 9.8125 2.5 C10.534375 1.675 11.25625 0.85 12 0 C12.99 0 13.98 0 15 0 C15 4.62 15 9.24 15 14 C14.01 14 13.02 14 12 14 C11.67 11.36 11.34 8.72 11 6 C9.68 7.32 8.36 8.64 7 10 C6.01 8.68 5.02 7.36 4 6 C3.67 8.64 3.34 11.28 3 14 C2.01 14 1.02 14 0 14 C0 9.38 0 4.76 0 0 Z " fill="#3B3B3A" transform="translate(306,86)"/>
<path d="M0 0 C4.19174654 1.04793663 5.21592961 1.91763635 8 5 C8.598125 4.175 9.19625 3.35 9.8125 2.5 C10.534375 1.675 11.25625 0.85 12 0 C12.99 0 13.98 0 15 0 C15 4.62 15 9.24 15 14 C14.01 14 13.02 14 12 14 C11.67 11.36 11.34 8.72 11 6 C9.68 7.32 8.36 8.64 7 10 C6.01 8.68 5.02 7.36 4 6 C3.67 8.64 3.34 11.28 3 14 C2.01 14 1.02 14 0 14 C0 9.38 0 4.76 0 0 Z " fill="#3B3B3A" transform="translate(104,86)"/>
<path d="M0 0 C4.19174654 1.04793663 5.21592961 1.91763635 8 5 C8.598125 4.175 9.19625 3.35 9.8125 2.5 C10.534375 1.675 11.25625 0.85 12 0 C12.99 0 13.98 0 15 0 C15 4.62 15 9.24 15 14 C14.01 14 13.02 14 12 14 C11.67 11.36 11.34 8.72 11 6 C9.68 7.32 8.36 8.64 7 10 C6.01 8.68 5.02 7.36 4 6 C3.67 8.64 3.34 11.28 3 14 C2.01 14 1.02 14 0 14 C0 9.38 0 4.76 0 0 Z " fill="#3B3B3A" transform="translate(28,86)"/>
<path d="M0 0 C-5.27101414 6.41069287 -11.09128152 12.18590512 -17 18 C-17.99 17.67 -18.98 17.34 -20 17 C-20.33 16.01 -20.66 15.02 -21 14 C-18.84200723 11.63783033 -16.64440219 9.31646471 -14.4375 7 C-13.82841797 6.33226563 -13.21933594 5.66453125 -12.59179688 4.9765625 C-8.49764216 0.73077243 -6.19398803 -0.8928271 0 0 Z " fill="#ED7313" transform="translate(461,96)"/>
<path d="M0 0 C5.14860706 1.28715177 5.86461447 2.90658001 9 7 C9.33 4.69 9.66 2.38 10 0 C10.99 0 11.98 0 13 0 C13 4.62 13 9.24 13 14 C8.77000325 12.94250081 8.45069644 12.79967512 6.25 9.4375 C5.82203125 8.79683594 5.3940625 8.15617187 4.953125 7.49609375 C4.63859375 7.00238281 4.3240625 6.50867188 4 6 C3.67 8.64 3.34 11.28 3 14 C2.01 14 1.02 14 0 14 C0 9.38 0 4.76 0 0 Z " fill="#3D3D3B" transform="translate(200,112)"/>
<path d="M0 0 C5.14860706 1.28715177 5.86461447 2.90658001 9 7 C9.33 4.69 9.66 2.38 10 0 C10.99 0 11.98 0 13 0 C13 4.62 13 9.24 13 14 C8.77000325 12.94250081 8.45069644 12.79967512 6.25 9.4375 C5.82203125 8.79683594 5.3940625 8.15617187 4.953125 7.49609375 C4.63859375 7.00238281 4.3240625 6.50867188 4 6 C3.67 8.64 3.34 11.28 3 14 C2.01 14 1.02 14 0 14 C0 9.38 0 4.76 0 0 Z " fill="#3D3D3B" transform="translate(269,86)"/>
<path d="M0 0 C5.14860706 1.28715177 5.86461447 2.90658001 9 7 C9.33 4.69 9.66 2.38 10 0 C10.99 0 11.98 0 13 0 C13 4.62 13 9.24 13 14 C8.77000325 12.94250081 8.45069644 12.79967512 6.25 9.4375 C5.82203125 8.79683594 5.3940625 8.15617187 4.953125 7.49609375 C4.63859375 7.00238281 4.3240625 6.50867188 4 6 C3.67 8.64 3.34 11.28 3 14 C2.01 14 1.02 14 0 14 C0 9.38 0 4.76 0 0 Z " fill="#3D3D3B" transform="translate(157,86)"/>
<path d="M0 0 C0.99 0.66 1.98 1.32 3 2 C2.67 3.65 2.34 5.3 2 7 C-0.31 7 -2.62 7 -5 7 C-5 7.66 -5 8.32 -5 9 C-3.02 9 -1.04 9 1 9 C1 9.99 1 10.98 1 12 C-4.25490196 13.31372549 -4.25490196 13.31372549 -7.375 12 C-9 10 -9 10 -9.4375 6.5 C-9 3 -9 3 -7.875 1.0625 C-5.14015561 -0.48724515 -3.0875593 -0.32162076 0 0 Z " fill="#31312F" transform="translate(590,230)"/>
<path d="M0 0 C0.99 0 1.98 0 3 0 C3.83764268 1.95649397 4.66999059 3.91525556 5.5 5.875 C5.9640625 6.96554688 6.428125 8.05609375 6.90625 9.1796875 C8 12 8 12 8 14 C7.01 14 6.02 14 5 14 C5 13.34 5 12.68 5 12 C1.53058454 12.45822468 -1.67395049 12.89131683 -5 14 C-4.34580901 8.93001981 -2.1453591 4.58009223 0 0 Z " fill="#686866" transform="translate(303,112)"/>
<path d="M0 0 C0.99 0 1.98 0 3 0 C3.83764268 1.95649397 4.66999059 3.91525556 5.5 5.875 C5.9640625 6.96554688 6.428125 8.05609375 6.90625 9.1796875 C8 12 8 12 8 14 C7.01 14 6.02 14 5 14 C5 13.34 5 12.68 5 12 C1.53058454 12.45822468 -1.67395049 12.89131683 -5 14 C-4.34580901 8.93001981 -2.1453591 4.58009223 0 0 Z " fill="#686866" transform="translate(232,112)"/>
<path d="M0 0 C0.99 0 1.98 0 3 0 C3.83764268 1.95649397 4.66999059 3.91525556 5.5 5.875 C5.9640625 6.96554688 6.428125 8.05609375 6.90625 9.1796875 C8 12 8 12 8 14 C7.01 14 6.02 14 5 14 C5 13.34 5 12.68 5 12 C1.53058454 12.45822468 -1.67395049 12.89131683 -5 14 C-4.34580901 8.93001981 -2.1453591 4.58009223 0 0 Z " fill="#686866" transform="translate(258,86)"/>
<path d="M0 0 C0.99 0 1.98 0 3 0 C3.83764268 1.95649397 4.66999059 3.91525556 5.5 5.875 C5.9640625 6.96554688 6.428125 8.05609375 6.90625 9.1796875 C8 12 8 12 8 14 C7.01 14 6.02 14 5 14 C5 13.34 5 12.68 5 12 C1.53058454 12.45822468 -1.67395049 12.89131683 -5 14 C-4.34580901 8.93001981 -2.1453591 4.58009223 0 0 Z " fill="#686866" transform="translate(94,86)"/>
<path d="M0 0 C0.99 0 1.98 0 3 0 C3.83764268 1.95649397 4.66999059 3.91525556 5.5 5.875 C5.9640625 6.96554688 6.428125 8.05609375 6.90625 9.1796875 C8 12 8 12 8 14 C7.01 14 6.02 14 5 14 C5 13.34 5 12.68 5 12 C1.53058454 12.45822468 -1.67395049 12.89131683 -5 14 C-4.34580901 8.93001981 -2.1453591 4.58009223 0 0 Z " fill="#686866" transform="translate(294,61)"/>
<path d="M0 0 C0.99 0 1.98 0 3 0 C3.83764268 1.95649397 4.66999059 3.91525556 5.5 5.875 C5.9640625 6.96554688 6.428125 8.05609375 6.90625 9.1796875 C8 12 8 12 8 14 C7.01 14 6.02 14 5 14 C5 13.34 5 12.68 5 12 C1.53058454 12.45822468 -1.67395049 12.89131683 -5 14 C-4.34580901 8.93001981 -2.1453591 4.58009223 0 0 Z " fill="#686866" transform="translate(257,61)"/>
<path d="M0 0 C1.258125 -0.04125 2.51625 -0.0825 3.8125 -0.125 C4.52019531 -0.14820313 5.22789062 -0.17140625 5.95703125 -0.1953125 C8 0 8 0 11 2 C11.42552252 4.76589638 11.35833436 6.35051898 10 8.8125 C6.76011038 10.73618446 3.7174181 10.18282384 0 10 C0 6.7 0 3.4 0 0 Z " fill="#F2F2F2" transform="translate(389,152)"/>
<path d="M0 0 C1.8253125 0.185625 1.8253125 0.185625 3.6875 0.375 C3.28917969 0.83390625 2.89085937 1.2928125 2.48046875 1.765625 C-0.85061731 5.62147632 -0.85061731 5.62147632 -4 9.625 C-4.433125 10.2025 -4.86625 10.78 -5.3125 11.375 C-5.725 11.9525 -6.1375 12.53 -6.5625 13.125 C-9.33296903 15.10390645 -12.02087251 14.56131854 -15.3125 14.375 C-13.87155958 12.42403599 -12.42091048 10.48263797 -10.94921875 8.5546875 C-9.95653414 7.23268747 -8.99172387 5.88823496 -8.08203125 4.5078125 C-5.676673 1.07627752 -4.08175259 0.01434711 0 0 Z " fill="#FECB1A" transform="translate(405.3125,80.625)"/>
<path d="M0 0 C0.3671875 3.1328125 0.3671875 3.1328125 0 7 C-1.94207055 9.32216999 -3.57973012 10.99466449 -5.875 12.875 C-6.70837891 13.60203125 -6.70837891 13.60203125 -7.55859375 14.34375 C-9.620406 16.12237358 -11.55508226 17.77754113 -14 19 C-14.76804004 12.08018298 -14.76804004 12.08018298 -12.79736328 9.30859375 C-11.12283789 7.74862239 -9.39893664 6.36530891 -7.5625 5 C-6.95083984 4.51144531 -6.33917969 4.02289063 -5.70898438 3.51953125 C-1.24795387 0 -1.24795387 0 0 0 Z " fill="#3FB7AE" transform="translate(435,79)"/>
<path d="M0 0 C-0.33 0.99 -0.66 1.98 -1 3 C-2.36125 2.51273438 -2.36125 2.51273438 -3.75 2.015625 C-9.09384461 0.49418835 -14.48606847 0.70955551 -20 0.75 C-21.58167969 0.73839844 -21.58167969 0.73839844 -23.1953125 0.7265625 C-28.85449745 0.74074592 -33.66046856 1.08869045 -39 3 C-39 2.01 -39 1.02 -39 0 C-26.37432973 -4.08692217 -12.47920488 -5.15112142 0 0 Z " fill="#F0F0F0" transform="translate(648,52)"/>
<path d="M0 0 C2.31 0 4.62 0 7 0 C7 1.32 7 2.64 7 4 C7.66 4 8.32 4 9 4 C9.33 3.01 9.66 2.02 10 1 C12.31 1.33 14.62 1.66 17 2 C16.67 2.66 16.34 3.32 16 4 C14.35 3.67 12.7 3.34 11 3 C11.99 3.99 12.98 4.98 14 6 C13.01 6 12.02 6 11 6 C10.67 7.65 10.34 9.3 10 11 C10.66 11 11.32 11 12 11 C12.625 14.375 12.625 14.375 13 18 C12.34 18.66 11.68 19.32 11 20 C11 18.68 11 17.36 11 16 C8.36 15.67 5.72 15.34 3 15 C3.66 14.34 4.32 13.68 5 13 C5.99 13 6.98 13 8 13 C8 11.35 8 9.7 8 8 C7.01 7.67 6.02 7.34 5 7 C5.66 6.67 6.32 6.34 7 6 C7.66 6.33 8.32 6.66 9 7 C9 6.34 9 5.68 9 5 C8.2575 5.061875 7.515 5.12375 6.75 5.1875 C3.52480092 4.96760006 2.30276574 4.21747812 0 2 C0 1.34 0 0.68 0 0 Z " fill="#B7B7B6" transform="translate(637,36)"/>
<path d="M0 0 C8.75 -0.125 8.75 -0.125 11 1 C11 3.31 11 5.62 11 8 C7.57067929 9.71466036 3.78283935 9.05404056 0 9 C0 6.03 0 3.06 0 0 Z " fill="#FCFCFC" transform="translate(608,152)"/>
<path d="M0 0 C8.75 -0.125 8.75 -0.125 11 1 C11 3.31 11 5.62 11 8 C7.57067929 9.71466036 3.78283935 9.05404056 0 9 C0 6.03 0 3.06 0 0 Z " fill="#FCFCFC" transform="translate(418,152)"/>
<path d="M0 0 C2.31 0 4.62 0 7 0 C7 0.99 7 1.98 7 3 C7.66 2.67 8.32 2.34 9 2 C9 4.64 9 7.28 9 10 C8.34 10 7.68 10 7 10 C7 10.33 7 10.66 7 11 C4.69 11 2.38 11 0 11 C0 10.34 0 9.68 0 9 C-0.99 9.495 -0.99 9.495 -2 10 C-2 7.36 -2 4.72 -2 2 C-1.34 2 -0.68 2 0 2 C0 1.34 0 0.68 0 0 Z " fill="#B6B6B6" transform="translate(625,67)"/>
<path d="M0 0 C14.19 0 28.38 0 43 0 C43 0.66 43 1.32 43 2 C36.4 2 29.8 2 23 2 C22.67 2.99 22.34 3.98 22 5 C21.67 4.34 21.34 3.68 21 3 C14.4 2.67 7.8 2.34 1 2 C0.67 2.66 0.34 3.32 0 4 C0 2.68 0 1.36 0 0 Z " fill="#D0D0D0" transform="translate(607,99)"/>
<path d="M0 0 C-9.41002278 10.55808656 -9.41002278 10.55808656 -14 15 C-15.0150934 10.63509837 -15.36346044 7.90484768 -13 4 C-8.61984887 0.57205564 -5.43789267 -1.81263089 0 0 Z " fill="#FECB1B" transform="translate(396,97)"/>
<path d="M0 0 C0.99 0 1.98 0 3 0 C3.33 3.96 3.66 7.92 4 12 C5.98 11.67 7.96 11.34 10 11 C10 7.37 10 3.74 10 0 C10.99 0 11.98 0 13 0 C13.08114106 1.77007714 13.13925505 3.54122098 13.1875 5.3125 C13.22230469 6.29863281 13.25710937 7.28476563 13.29296875 8.30078125 C13 11 13 11 11.70703125 12.828125 C8.81933443 14.81052556 6.37140101 14.42142513 3 14 C0.80731771 11.81735287 0.05818782 10.51205282 -0.29296875 7.421875 C-0.25816406 6.54015625 -0.22335938 5.6584375 -0.1875 4.75 C-0.16042969 3.85796875 -0.13335937 2.9659375 -0.10546875 2.046875 C-0.07066406 1.37140625 -0.03585938 0.6959375 0 0 Z " fill="#383836" transform="translate(144,112)"/>
<path d="M0 0 C0.99 0 1.98 0 3 0 C3.33 3.96 3.66 7.92 4 12 C5.98 11.67 7.96 11.34 10 11 C10 7.37 10 3.74 10 0 C10.99 0 11.98 0 13 0 C13.08114106 1.77007714 13.13925505 3.54122098 13.1875 5.3125 C13.22230469 6.29863281 13.25710937 7.28476563 13.29296875 8.30078125 C13 11 13 11 11.70703125 12.828125 C8.81933443 14.81052556 6.37140101 14.42142513 3 14 C0.80731771 11.81735287 0.05818782 10.51205282 -0.29296875 7.421875 C-0.25816406 6.54015625 -0.22335938 5.6584375 -0.1875 4.75 C-0.16042969 3.85796875 -0.13335937 2.9659375 -0.10546875 2.046875 C-0.07066406 1.37140625 -0.03585938 0.6959375 0 0 Z " fill="#383836" transform="translate(209,86)"/>
<path d="M0 0 C0.99 0 1.98 0 3 0 C3 0.99 3 1.98 3 3 C3.99 3 4.98 3 6 3 C6 4.32 6 5.64 6 7 C5.01 7 4.02 7 3 7 C3.26676204 8.98491642 3.26676204 8.98491642 4 11 C4.99 11.33 5.98 11.66 7 12 C7 12.99 7 13.98 7 15 C4.125 15.125 4.125 15.125 1 15 C-1 13 -1 13 -1.125 9.875 C-1.08375 8.92625 -1.0425 7.9775 -1 7 C-1.66 7 -2.32 7 -3 7 C-2.38722388 4.03824877 -1.74627478 2.61941217 0 0 Z " fill="#323230" transform="translate(477,204)"/>
<path d="M0 0 C0.33 0 0.66 0 1 0 C1 2.64 1 5.28 1 8 C1.66 8.33 2.32 8.66 3 9 C-4.92 9 -12.84 9 -21 9 C-20.67 8.34 -20.34 7.68 -20 7 C-18.35 7.33 -16.7 7.66 -15 8 C-14.67 6.02 -14.34 4.04 -14 2 C-7.375 1.75 -7.375 1.75 -4 4 C-4 5.32 -4 6.64 -4 8 C-2.68 8 -1.36 8 0 8 C0 5.36 0 2.72 0 0 Z " fill="#C0C0BF" transform="translate(638,90)"/>
<path d="M0 0 C0.66 0.66 1.32 1.32 2 2 C1.46428571 5.53571429 1.46428571 5.53571429 0 7 C-2.67058851 7.14115161 -5.32432238 7.04247107 -8 7 C-7.67 7.99 -7.34 8.98 -7 10 C-4.69 10 -2.38 10 0 10 C-1.1875 11.5625 -1.1875 11.5625 -3 13 C-6.34192692 12.75546876 -7.60543557 12.39456443 -10 10 C-9.7767253 3.85994587 -9.7767253 3.85994587 -7.25 1.0625 C-4.58913856 -0.1940179 -2.90946964 -0.38282495 0 0 Z " fill="#5B5B5A" transform="translate(468,207)"/>
<path d="M0 0 C0.66 0.66 1.32 1.32 2 2 C1.46428571 5.53571429 1.46428571 5.53571429 0 7 C-2.67058851 7.14115161 -5.32432238 7.04247107 -8 7 C-7.67 7.99 -7.34 8.98 -7 10 C-4.69 10 -2.38 10 0 10 C-1.1875 11.5625 -1.1875 11.5625 -3 13 C-6.34192692 12.75546876 -7.60543557 12.39456443 -10 10 C-9.7767253 3.85994587 -9.7767253 3.85994587 -7.25 1.0625 C-4.58913856 -0.1940179 -2.90946964 -0.38282495 0 0 Z " fill="#5B5B5A" transform="translate(429,207)"/>
<path d="M0 0 C3.3 0 6.6 0 10 0 C10 0.66 10 1.32 10 2 C7.69 2 5.38 2 3 2 C3 3.32 3 4.64 3 6 C4.98 6 6.96 6 9 6 C9 6.66 9 7.32 9 8 C7.02 8 5.04 8 3 8 C3 9.32 3 10.64 3 12 C5.31 12 7.62 12 10 12 C10 12.66 10 13.32 10 14 C6.7 14 3.4 14 0 14 C0 9.38 0 4.76 0 0 Z " fill="#2E2E2D" transform="translate(329,112)"/>
<path d="M0 0 C3.3 0 6.6 0 10 0 C10 0.66 10 1.32 10 2 C7.69 2 5.38 2 3 2 C3 3.32 3 4.64 3 6 C4.98 6 6.96 6 9 6 C9 6.66 9 7.32 9 8 C7.02 8 5.04 8 3 8 C3 9.32 3 10.64 3 12 C5.31 12 7.62 12 10 12 C10 12.66 10 13.32 10 14 C6.7 14 3.4 14 0 14 C0 9.38 0 4.76 0 0 Z " fill="#2E2E2D" transform="translate(187,112)"/>
<path d="M0 0 C3.3 0 6.6 0 10 0 C10 0.66 10 1.32 10 2 C7.69 2 5.38 2 3 2 C3 3.32 3 4.64 3 6 C4.98 6 6.96 6 9 6 C9 6.66 9 7.32 9 8 C7.02 8 5.04 8 3 8 C3 9.32 3 10.64 3 12 C5.31 12 7.62 12 10 12 C10 12.66 10 13.32 10 14 C6.7 14 3.4 14 0 14 C0 9.38 0 4.76 0 0 Z " fill="#2E2E2D" transform="translate(113,112)"/>
<path d="M0 0 C3.3 0 6.6 0 10 0 C10 0.66 10 1.32 10 2 C7.69 2 5.38 2 3 2 C3 3.32 3 4.64 3 6 C4.98 6 6.96 6 9 6 C9 6.66 9 7.32 9 8 C7.02 8 5.04 8 3 8 C3 9.32 3 10.64 3 12 C5.31 12 7.62 12 10 12 C10 12.66 10 13.32 10 14 C6.7 14 3.4 14 0 14 C0 9.38 0 4.76 0 0 Z " fill="#2E2E2D" transform="translate(185,86)"/>
<path d="M0 0 C3.3 0 6.6 0 10 0 C10 0.66 10 1.32 10 2 C7.69 2 5.38 2 3 2 C3 3.32 3 4.64 3 6 C4.98 6 6.96 6 9 6 C9 6.66 9 7.32 9 8 C7.02 8 5.04 8 3 8 C3 9.32 3 10.64 3 12 C5.31 12 7.62 12 10 12 C10 12.66 10 13.32 10 14 C6.7 14 3.4 14 0 14 C0 9.38 0 4.76 0 0 Z " fill="#2E2E2D" transform="translate(143,86)"/>
<path d="M0 0 C3.3 0 6.6 0 10 0 C10 0.66 10 1.32 10 2 C7.69 2 5.38 2 3 2 C3 3.32 3 4.64 3 6 C4.98 6 6.96 6 9 6 C9 6.66 9 7.32 9 8 C7.02 8 5.04 8 3 8 C3 9.32 3 10.64 3 12 C5.31 12 7.62 12 10 12 C10 12.66 10 13.32 10 14 C6.7 14 3.4 14 0 14 C0 9.38 0 4.76 0 0 Z " fill="#2E2E2D" transform="translate(47,86)"/>
<path d="M0 0 C3.3 0 6.6 0 10 0 C10 0.66 10 1.32 10 2 C7.69 2 5.38 2 3 2 C3 3.32 3 4.64 3 6 C4.98 6 6.96 6 9 6 C9 6.66 9 7.32 9 8 C7.02 8 5.04 8 3 8 C3 9.32 3 10.64 3 12 C5.31 12 7.62 12 10 12 C10 12.66 10 13.32 10 14 C6.7 14 3.4 14 0 14 C0 9.38 0 4.76 0 0 Z " fill="#2E2E2D" transform="translate(228,61)"/>
<path d="M0 0 C3.3 0 6.6 0 10 0 C10 0.66 10 1.32 10 2 C7.69 2 5.38 2 3 2 C3 3.32 3 4.64 3 6 C4.98 6 6.96 6 9 6 C9 6.66 9 7.32 9 8 C7.02 8 5.04 8 3 8 C3 9.32 3 10.64 3 12 C5.31 12 7.62 12 10 12 C10 12.66 10 13.32 10 14 C6.7 14 3.4 14 0 14 C0 9.38 0 4.76 0 0 Z " fill="#2E2E2D" transform="translate(185,61)"/>
<path d="M0 0 C2.01822917 0.06510417 4.03645833 0.13020833 6.0546875 0.1953125 C6.3846875 1.1853125 6.7146875 2.1753125 7.0546875 3.1953125 C4.4146875 2.8653125 1.7746875 2.5353125 -0.9453125 2.1953125 C-0.9453125 3.1853125 -0.9453125 4.1753125 -0.9453125 5.1953125 C0.0034375 5.3190625 0.9521875 5.4428125 1.9296875 5.5703125 C5.0546875 6.1953125 5.0546875 6.1953125 7.0546875 8.1953125 C6.49913194 12.75086806 6.49913194 12.75086806 5.0546875 14.1953125 C2.38409899 14.33646411 -0.26963488 14.23778357 -2.9453125 14.1953125 C-3.2753125 13.2053125 -3.6053125 12.2153125 -3.9453125 11.1953125 C-1.3053125 11.5253125 1.3346875 11.8553125 4.0546875 12.1953125 C4.0546875 10.8753125 4.0546875 9.5553125 4.0546875 8.1953125 C1.7446875 7.8653125 -0.5653125 7.5353125 -2.9453125 7.1953125 C-3.5703125 4.8203125 -3.5703125 4.8203125 -3.9453125 2.1953125 C-1.9453125 0.1953125 -1.9453125 0.1953125 0 0 Z " fill="#444442" transform="translate(163.9453125,111.8046875)"/>
<path d="M0 0 C2.01822917 0.06510417 4.03645833 0.13020833 6.0546875 0.1953125 C6.3846875 1.1853125 6.7146875 2.1753125 7.0546875 3.1953125 C4.4146875 2.8653125 1.7746875 2.5353125 -0.9453125 2.1953125 C-0.9453125 3.1853125 -0.9453125 4.1753125 -0.9453125 5.1953125 C0.0034375 5.3190625 0.9521875 5.4428125 1.9296875 5.5703125 C5.0546875 6.1953125 5.0546875 6.1953125 7.0546875 8.1953125 C6.49913194 12.75086806 6.49913194 12.75086806 5.0546875 14.1953125 C2.38409899 14.33646411 -0.26963488 14.23778357 -2.9453125 14.1953125 C-3.2753125 13.2053125 -3.6053125 12.2153125 -3.9453125 11.1953125 C-1.3053125 11.5253125 1.3346875 11.8553125 4.0546875 12.1953125 C4.0546875 10.8753125 4.0546875 9.5553125 4.0546875 8.1953125 C1.7446875 7.8653125 -0.5653125 7.5353125 -2.9453125 7.1953125 C-3.5703125 4.8203125 -3.5703125 4.8203125 -3.9453125 2.1953125 C-1.9453125 0.1953125 -1.9453125 0.1953125 0 0 Z " fill="#444442" transform="translate(133.9453125,111.8046875)"/>
<path d="M0 0 C2.01822917 0.06510417 4.03645833 0.13020833 6.0546875 0.1953125 C6.3846875 1.1853125 6.7146875 2.1753125 7.0546875 3.1953125 C4.4146875 2.8653125 1.7746875 2.5353125 -0.9453125 2.1953125 C-0.9453125 3.1853125 -0.9453125 4.1753125 -0.9453125 5.1953125 C0.0034375 5.3190625 0.9521875 5.4428125 1.9296875 5.5703125 C5.0546875 6.1953125 5.0546875 6.1953125 7.0546875 8.1953125 C6.49913194 12.75086806 6.49913194 12.75086806 5.0546875 14.1953125 C2.38409899 14.33646411 -0.26963488 14.23778357 -2.9453125 14.1953125 C-3.2753125 13.2053125 -3.6053125 12.2153125 -3.9453125 11.1953125 C-1.3053125 11.5253125 1.3346875 11.8553125 4.0546875 12.1953125 C4.0546875 10.8753125 4.0546875 9.5553125 4.0546875 8.1953125 C1.7446875 7.8653125 -0.5653125 7.5353125 -2.9453125 7.1953125 C-3.5703125 4.8203125 -3.5703125 4.8203125 -3.9453125 2.1953125 C-1.9453125 0.1953125 -1.9453125 0.1953125 0 0 Z " fill="#444442" transform="translate(295.9453125,85.8046875)"/>
<path d="M0 0 C2.01822917 0.06510417 4.03645833 0.13020833 6.0546875 0.1953125 C6.3846875 1.1853125 6.7146875 2.1753125 7.0546875 3.1953125 C4.4146875 2.8653125 1.7746875 2.5353125 -0.9453125 2.1953125 C-0.9453125 3.1853125 -0.9453125 4.1753125 -0.9453125 5.1953125 C0.0034375 5.3190625 0.9521875 5.4428125 1.9296875 5.5703125 C5.0546875 6.1953125 5.0546875 6.1953125 7.0546875 8.1953125 C6.49913194 12.75086806 6.49913194 12.75086806 5.0546875 14.1953125 C2.38409899 14.33646411 -0.26963488 14.23778357 -2.9453125 14.1953125 C-3.2753125 13.2053125 -3.6053125 12.2153125 -3.9453125 11.1953125 C-1.3053125 11.5253125 1.3346875 11.8553125 4.0546875 12.1953125 C4.0546875 10.8753125 4.0546875 9.5553125 4.0546875 8.1953125 C1.7446875 7.8653125 -0.5653125 7.5353125 -2.9453125 7.1953125 C-3.5703125 4.8203125 -3.5703125 4.8203125 -3.9453125 2.1953125 C-1.9453125 0.1953125 -1.9453125 0.1953125 0 0 Z " fill="#444442" transform="translate(174.9453125,60.8046875)"/>
<path d="M0 0 C1.65 0 3.3 0 5 0 C5.33 5.28 5.66 10.56 6 16 C1 15 1 15 0 14 C-0.07271741 11.64686445 -0.08370868 9.29166332 -0.0625 6.9375 C-0.05347656 5.64714844 -0.04445313 4.35679687 -0.03515625 3.02734375 C-0.02355469 2.02832031 -0.01195312 1.02929688 0 0 Z " fill="#40403E" transform="translate(595,226)"/>
<path d="M0 0 C1.65 0 3.3 0 5 0 C5.33 5.28 5.66 10.56 6 16 C1 15 1 15 0 14 C-0.07271741 11.64686445 -0.08370868 9.29166332 -0.0625 6.9375 C-0.05347656 5.64714844 -0.04445313 4.35679687 -0.03515625 3.02734375 C-0.02355469 2.02832031 -0.01195312 1.02929688 0 0 Z " fill="#40403E" transform="translate(543,203)"/>
<path d="M0 0 C1.74965358 -0.05429959 3.49979787 -0.09292823 5.25 -0.125 C6.22453125 -0.14820312 7.1990625 -0.17140625 8.203125 -0.1953125 C11.0196498 0.00137219 12.60949036 0.55431084 15 2 C14 5 14 5 12 6 C10.35857459 6.14640501 8.7101859 6.22096589 7.0625 6.25 C5.74958984 6.28867188 5.74958984 6.28867188 4.41015625 6.328125 C1.5806131 5.94290357 0.74867075 5.19305243 -1 3 C-0.67 2.01 -0.34 1.02 0 0 Z " fill="#FFFFFF" transform="translate(488,121)"/>
<path d="M0 0 C0.99 0.33 1.98 0.66 3 1 C3.33 4.3 3.66 7.6 4 11 C1.72135417 11.16276042 -0.55729167 11.32552083 -2.8359375 11.48828125 C-5.37921338 11.82990528 -5.37921338 11.82990528 -7 15 C-7.66 14.67 -8.32 14.34 -9 14 C-6.03 9.38 -3.06 4.76 0 0 Z " fill="#444443" transform="translate(490,227)"/>
<path d="M0 0 C0.99 0.33 1.98 0.66 3 1 C3.33 4.3 3.66 7.6 4 11 C1.72135417 11.16276042 -0.55729167 11.32552083 -2.8359375 11.48828125 C-5.37921338 11.82990528 -5.37921338 11.82990528 -7 15 C-7.66 14.67 -8.32 14.34 -9 14 C-6.03 9.38 -3.06 4.76 0 0 Z " fill="#444443" transform="translate(390,204)"/>
<path d="M0 0 C2.5 0.25 2.5 0.25 4.5 2.25 C4.75 5.25 4.75 5.25 4.5 8.25 C3.84 8.91 3.18 9.57 2.5 10.25 C-3.06818182 9.68181818 -3.06818182 9.68181818 -4.5 8.25 C-4.6875 5.3125 -4.6875 5.3125 -4.5 2.25 C-2.5 0.25 -2.5 0.25 0 0 Z " fill="#F8F8F8" transform="translate(331.5,87.75)"/>
<path d="M0 0 C2.5 0.25 2.5 0.25 4.5 2.25 C4.75 5.25 4.75 5.25 4.5 8.25 C3.84 8.91 3.18 9.57 2.5 10.25 C-3.06818182 9.68181818 -3.06818182 9.68181818 -4.5 8.25 C-4.6875 5.3125 -4.6875 5.3125 -4.5 2.25 C-2.5 0.25 -2.5 0.25 0 0 Z " fill="#F8F8F8" transform="translate(73.5,87.75)"/>
<path d="M0 0 C2.5 0.25 2.5 0.25 4.5 2.25 C4.75 5.25 4.75 5.25 4.5 8.25 C3.84 8.91 3.18 9.57 2.5 10.25 C-3.06818182 9.68181818 -3.06818182 9.68181818 -4.5 8.25 C-4.6875 5.3125 -4.6875 5.3125 -4.5 2.25 C-2.5 0.25 -2.5 0.25 0 0 Z " fill="#F8F8F8" transform="translate(331.5,62.75)"/>
<path d="M0 0 C2.97 0 5.94 0 9 0 C9 1.32 9 2.64 9 4 C7.68 4 6.36 4 5 4 C5 6.64 5 9.28 5 12 C3.35 12 1.7 12 0 12 C0 8.04 0 4.08 0 0 Z " fill="#434341" transform="translate(635,230)"/>
<path d="M0 0 C2.97 0 5.94 0 9 0 C9 1.32 9 2.64 9 4 C7.68 4 6.36 4 5 4 C5 6.64 5 9.28 5 12 C3.35 12 1.7 12 0 12 C0 8.04 0 4.08 0 0 Z " fill="#434341" transform="translate(486,207)"/>
<path d="M0 0 C0.33 0.99 0.66 1.98 1 3 C3.01508358 3.73323796 3.01508358 3.73323796 5 4 C3.68 4 2.36 4 1 4 C1.33 5.98 1.66 7.96 2 10 C3.65 10 5.3 10 7 10 C7 8.68 7 7.36 7 6 C7.99 6 8.98 6 10 6 C10 7.32 10 8.64 10 10 C11.65 10 13.3 10 15 10 C15.33 7.69 15.66 5.38 16 3 C16.33 4.32 16.66 5.64 17 7 C17.99 7 18.98 7 20 7 C20 8.32 20 9.64 20 11 C20.66 11.33 21.32 11.66 22 12 C15.07 11.67 8.14 11.34 1 11 C0.67 8.03 0.34 5.06 0 2 C-1.98 2.33 -3.96 2.66 -6 3 C-6 2.34 -6 1.68 -6 1 C-4.02 0.67 -2.04 0.34 0 0 Z " fill="#9D9D9C" transform="translate(620,38)"/>
<path d="M0 0 C0.66 0.33 1.32 0.66 2 1 C2 1.66 2 2.32 2 3 C0.700625 2.979375 -0.59875 2.95875 -1.9375 2.9375 C-3.29165633 2.91600546 -4.64756083 2.92851801 -6 3 C-7.35618499 4.12534105 -7.35618499 4.12534105 -7.0625 7.0625 C-7.041875 8.031875 -7.02125 9.00125 -7 10 C-3.94152152 10.54372951 -1.11227195 11 2 11 C2 11.66 2 12.32 2 13 C-1.09173752 14.54586876 -3.59429552 14.29359521 -7 14 C-9.4375 12.375 -9.4375 12.375 -11 10 C-11.60605429 6.36367425 -11.47161336 4.71685231 -9.4375 1.625 C-6.14933906 -0.56710729 -3.87424565 -0.35872645 0 0 Z " fill="#343432" transform="translate(209,61)"/>
<path d="M0 0 C3.96 0 7.92 0 12 0 C8.42270128 4.66132863 4.89132699 7.73911534 0 11 C0 7.37 0 3.74 0 0 Z " fill="#92CEC3" transform="translate(421,69)"/>
<path d="M0 0 C0.33 0 0.66 0 1 0 C0.85833643 1.91697937 0.71150416 3.83357723 0.5625 5.75 C0.48128906 6.81734375 0.40007813 7.8846875 0.31640625 8.984375 C0.05909227 11.43679962 -0.31812218 13.63921291 -1 16 C-2.43410368 16.24954005 -3.87260072 16.47392642 -5.3125 16.6875 C-6.11300781 16.81511719 -6.91351562 16.94273437 -7.73828125 17.07421875 C-10 17 -10 17 -11.796875 15.73828125 C-13 14 -13 14 -12.9375 10.5 C-12 7 -12 7 -10.3125 5 C-7.22020156 3.66278986 -5.21223855 4.19694036 -2 5 C-1.34 3.35 -0.68 1.7 0 0 Z M-11 8 C-11.25005386 11.04182893 -11.25005386 11.04182893 -11 14 C-10.67 14.33 -10.34 14.66 -10 15 C-5.6590631 14.85841338 -5.6590631 14.85841338 -2 13 C-1.83333333 10 -1.83333333 10 -2 7 C-3.11166864 5.66812207 -3.11166864 5.66812207 -5.9375 5.8125 C-9.10892859 5.66721267 -9.10892859 5.66721267 -11 8 Z " fill="#5D5D5C" transform="translate(534,226)"/>
<path d="M0 0 C-1.78473665 2.17272288 -3.57719352 4.33813771 -5.375 6.5 C-5.88289063 7.12003906 -6.39078125 7.74007812 -6.9140625 8.37890625 C-8.23207606 9.95705407 -9.61212632 11.48292487 -11 13 C-11.66 13 -12.32 13 -13 13 C-12.51308901 5.69633508 -12.51308901 5.69633508 -10.25 2.625 C-6.61027431 -0.00369078 -4.38871052 -1.46290351 0 0 Z " fill="#FFD337" transform="translate(396,82)"/>
<path d="M0 0 C2.9375 0.1875 2.9375 0.1875 3.9375 1.1875 C4.25 3.5625 4.25 3.5625 3.9375 6.1875 C2.25 8.0625 2.25 8.0625 -0.0625 9.1875 C-2.8125 8.875 -2.8125 8.875 -5.0625 8.1875 C-5.1875 5.3125 -5.1875 5.3125 -5.0625 2.1875 C-3.0625 0.1875 -3.0625 0.1875 0 0 Z " fill="#FAFAFA" transform="translate(410.0625,208.8125)"/>
<path d="M0 0 C0.99 0.33 1.98 0.66 3 1 C0.94934222 8.34819039 -2.47243055 12.13674461 -9 16 C-13.41903654 18.3258087 -17.10613592 18.1658937 -22 18 C-19.10569828 16.47282236 -16.21532594 15.37630379 -13.125 14.3125 C-6.84402027 11.82975285 -3.4604328 8.12001553 -0.625 2.0625 C-0.315625 1.0415625 -0.315625 1.0415625 0 0 Z " fill="#A6A6A5" transform="translate(649,102)"/>
<path d="M0 0 C-0.66 3.63 -1.32 7.26 -2 11 C-7.90736842 12.02736842 -7.90736842 12.02736842 -11 12 C-13.125 10.4375 -13.125 10.4375 -14 8 C-13.93122904 4.63022316 -13.57223172 2.73913264 -11.5 0.0625 C-7.53059843 -1.62449567 -4.21620401 -0.682033 0 0 Z M-12 3 C-12.25005386 6.04182893 -12.25005386 6.04182893 -12 9 C-11.67 9.33 -11.34 9.66 -11 10 C-6.6590631 9.85841338 -6.6590631 9.85841338 -3 8 C-2.83333333 5 -2.83333333 5 -3 2 C-4.11166864 0.66812207 -4.11166864 0.66812207 -6.9375 0.8125 C-10.10892859 0.66721267 -10.10892859 0.66721267 -12 3 Z " fill="#5A5A58" transform="translate(552,231)"/>
<path d="M0 0 C2.31 0.33 4.62 0.66 7 1 C7.125 4.375 7.125 4.375 7 8 C6.34 8.66 5.68 9.32 5 10 C3.35 10 1.7 10 0 10 C0 6.7 0 3.4 0 0 Z " fill="#F7F7F7" transform="translate(316,114)"/>
<path d="M0 0 C2.31 0.33 4.62 0.66 7 1 C7.125 4.375 7.125 4.375 7 8 C6.34 8.66 5.68 9.32 5 10 C3.35 10 1.7 10 0 10 C0 6.7 0 3.4 0 0 Z " fill="#F7F7F7" transform="translate(285,114)"/>
<path d="M0 0 C2.31 0.33 4.62 0.66 7 1 C7.125 4.375 7.125 4.375 7 8 C6.34 8.66 5.68 9.32 5 10 C3.35 10 1.7 10 0 10 C0 6.7 0 3.4 0 0 Z " fill="#F7F7F7" transform="translate(311,63)"/>
<path d="M0 0 C4.55555556 0.55555556 4.55555556 0.55555556 6 2 C6.04063832 3.66617115 6.042721 5.33388095 6 7 C3.6875 8.125 3.6875 8.125 1 9 C0.01 8.34 -0.98 7.68 -2 7 C-2.3125 4.5 -2.3125 4.5 -2 2 C-1.34 1.34 -0.68 0.68 0 0 Z " fill="#FFFFFF" transform="translate(494,90)"/>
<path d="M0 0 C0.33 1.32 0.66 2.64 1 4 C-0.76563979 5.65172755 -2.53704598 7.29638045 -4.3125 8.9375 C-5.06176758 9.64036133 -5.06176758 9.64036133 -5.82617188 10.35742188 C-8.21561016 12.55697103 -9.88080438 13.96026813 -13 15 C-12.7871304 11.18894752 -12.05719116 10.05620652 -9.27734375 7.32421875 C-8.17428111 6.43252141 -7.06056752 5.55386637 -5.9375 4.6875 C-5.36966797 4.23310547 -4.80183594 3.77871094 -4.21679688 3.31054688 C-2.82022125 2.19563356 -1.41127888 1.09624226 0 0 Z " fill="#5BBDB3" transform="translate(434,75)"/>
<path d="M0 0 C0 1.65 0 3.3 0 5 C0.66 5.33 1.32 5.66 2 6 C1.67 7.65 1.34 9.3 1 11 C-1 8 -1 8 -1 4 C-4.11332248 4.66868314 -4.11332248 4.66868314 -5.1875 7.0625 C-5.455625 7.701875 -5.72375 8.34125 -6 9 C-7.5625 6.1875 -7.5625 6.1875 -9 3 C-8.67 2.01 -8.34 1.02 -8 0 C-4.71023192 -1.09658936 -3.28696233 -0.79953138 0 0 Z " fill="#A6A6A5" transform="translate(611,38)"/>
<path d="M0 0 C0.99 0 1.98 0 3 0 C3 3.96 3 7.92 3 12 C5.31 12 7.62 12 10 12 C10 12.66 10 13.32 10 14 C6.7 14 3.4 14 0 14 C0 9.38 0 4.76 0 0 Z " fill="#3B3B39" transform="translate(264,112)"/>
<path d="M0 0 C2.38041123 3.57061685 3.54551059 6.96709754 5 11 C2.03 11 -0.94 11 -4 11 C-3.5247412 9.35303396 -3.04468109 7.70745272 -2.5625 6.0625 C-2.29566406 5.14597656 -2.02882813 4.22945312 -1.75390625 3.28515625 C-1 1 -1 1 0 0 Z " fill="#E1E1E1" transform="translate(644,155)"/>
<path d="M0 0 C0 3.63 0 7.26 0 11 C-1.32 11 -2.64 11 -4 11 C-4.433125 9.2984375 -4.433125 9.2984375 -4.875 7.5625 C-5.24625 6.386875 -5.6175 5.21125 -6 4 C-6.66 3.67 -7.32 3.34 -8 3 C-8 2.34 -8 1.68 -8 1 C-5.23735711 0.40267181 -2.83967231 0 0 0 Z " fill="#FCFCFC" transform="translate(638,87)"/>
<path d="M0 0 C2.97 0.33 5.94 0.66 9 1 C9 1.66 9 2.32 9 3 C8.01 3 7.02 3 6 3 C6.66 3.33 7.32 3.66 8 4 C8 5.65 8 7.3 8 9 C6.35 9 4.7 9 3 9 C3 7.68 3 6.36 3 5 C2.01 5 1.02 5 0 5 C0 3.35 0 1.7 0 0 Z " fill="#E4E4E4" transform="translate(637,40)"/>
<path d="M0 0 C2.33944736 0.28730055 4.6739143 0.61936779 7 1 C6.33989524 3.84550012 5.48275034 6.52325999 4.4375 9.25 C4.16808594 9.95640625 3.89867187 10.6628125 3.62109375 11.390625 C3.41613281 11.92171875 3.21117187 12.4528125 3 13 C2.34 13 1.68 13 1 13 C1 11.68 1 10.36 1 9 C0.34 9 -0.32 9 -1 9 C-0.125 4.125 -0.125 4.125 1 3 C0.34 2.34 -0.32 1.68 -1 1 C-0.67 0.67 -0.34 0.34 0 0 Z " fill="#CECECE" transform="translate(648,38)"/>
<path d="M0 0 C3.96 0 7.92 0 12 0 C12 0.66 12 1.32 12 2 C10.35 2 8.7 2 7 2 C7 5.96 7 9.92 7 14 C6.34 14 5.68 14 5 14 C5 10.04 5 6.08 5 2 C3.35 2 1.7 2 0 2 C0 1.34 0 0.68 0 0 Z " fill="#282826" transform="translate(215,112)"/>
<path d="M0 0 C3.96 0 7.92 0 12 0 C12 0.66 12 1.32 12 2 C10.35 2 8.7 2 7 2 C7 5.96 7 9.92 7 14 C6.34 14 5.68 14 5 14 C5 10.04 5 6.08 5 2 C3.35 2 1.7 2 0 2 C0 1.34 0 0.68 0 0 Z " fill="#282826" transform="translate(173,112)"/>
<path d="M0 0 C0.99 0 1.98 0 3 0 C3 0.66 3 1.32 3 2 C4.98 2 6.96 2 9 2 C9 2.66 9 3.32 9 4 C8.34 4.66 7.68 5.32 7 6 C6.29289322 7.64991582 5.62056011 9.31562256 5 11 C4.34 11 3.68 11 3 11 C2.67 8.69 2.34 6.38 2 4 C1.34 4 0.68 4 0 4 C0 2.68 0 1.36 0 0 Z " fill="#B1B1B1" transform="translate(626,102)"/>
<path d="M0 0 C3.96 0 7.92 0 12 0 C12 0.66 12 1.32 12 2 C10.35 2 8.7 2 7 2 C7 5.96 7 9.92 7 14 C6.34 14 5.68 14 5 14 C5 10.04 5 6.08 5 2 C3.35 2 1.7 2 0 2 C0 1.34 0 0.68 0 0 Z " fill="#282826" transform="translate(172,86)"/>
<path d="M0 0 C3.96 0 7.92 0 12 0 C12 0.66 12 1.32 12 2 C10.35 2 8.7 2 7 2 C7 5.96 7 9.92 7 14 C6.34 14 5.68 14 5 14 C5 10.04 5 6.08 5 2 C3.35 2 1.7 2 0 2 C0 1.34 0 0.68 0 0 Z " fill="#282826" transform="translate(240,61)"/>
<path d="M0 0 C0.99 0 1.98 0 3 0 C3 1.32 3 2.64 3 4 C2.01 4.495 2.01 4.495 1 5 C0.27840576 6.64363134 -0.39351421 8.31050386 -1 10 C0.32 10.33 1.64 10.66 3 11 C1.35 11 -0.3 11 -2 11 C-2.33 11.99 -2.66 12.98 -3 14 C-3.66 14 -4.32 14 -5 14 C-4.34580901 8.93001981 -2.1453591 4.58009223 0 0 Z " fill="#333331" transform="translate(303,112)"/>
<path d="M0 0 C0.99 0 1.98 0 3 0 C3 1.32 3 2.64 3 4 C2.01 4.495 2.01 4.495 1 5 C0.27840576 6.64363134 -0.39351421 8.31050386 -1 10 C0.32 10.33 1.64 10.66 3 11 C1.35 11 -0.3 11 -2 11 C-2.33 11.99 -2.66 12.98 -3 14 C-3.66 14 -4.32 14 -5 14 C-4.34580901 8.93001981 -2.1453591 4.58009223 0 0 Z " fill="#333331" transform="translate(232,112)"/>
<path d="M0 0 C0.99 0 1.98 0 3 0 C3 1.32 3 2.64 3 4 C2.01 4.495 2.01 4.495 1 5 C0.27840576 6.64363134 -0.39351421 8.31050386 -1 10 C0.32 10.33 1.64 10.66 3 11 C1.35 11 -0.3 11 -2 11 C-2.33 11.99 -2.66 12.98 -3 14 C-3.66 14 -4.32 14 -5 14 C-4.34580901 8.93001981 -2.1453591 4.58009223 0 0 Z " fill="#333331" transform="translate(258,86)"/>
<path d="M0 0 C0.99 0 1.98 0 3 0 C3 1.32 3 2.64 3 4 C2.01 4.495 2.01 4.495 1 5 C0.27840576 6.64363134 -0.39351421 8.31050386 -1 10 C0.32 10.33 1.64 10.66 3 11 C1.35 11 -0.3 11 -2 11 C-2.33 11.99 -2.66 12.98 -3 14 C-3.66 14 -4.32 14 -5 14 C-4.34580901 8.93001981 -2.1453591 4.58009223 0 0 Z " fill="#333331" transform="translate(94,86)"/>
<path d="M0 0 C0.99 0 1.98 0 3 0 C3 1.32 3 2.64 3 4 C2.01 4.495 2.01 4.495 1 5 C0.27840576 6.64363134 -0.39351421 8.31050386 -1 10 C0.32 10.33 1.64 10.66 3 11 C1.35 11 -0.3 11 -2 11 C-2.33 11.99 -2.66 12.98 -3 14 C-3.66 14 -4.32 14 -5 14 C-4.34580901 8.93001981 -2.1453591 4.58009223 0 0 Z " fill="#333331" transform="translate(294,61)"/>
<path d="M0 0 C0.99 0 1.98 0 3 0 C3 1.32 3 2.64 3 4 C2.01 4.495 2.01 4.495 1 5 C0.27840576 6.64363134 -0.39351421 8.31050386 -1 10 C0.32 10.33 1.64 10.66 3 11 C1.35 11 -0.3 11 -2 11 C-2.33 11.99 -2.66 12.98 -3 14 C-3.66 14 -4.32 14 -5 14 C-4.34580901 8.93001981 -2.1453591 4.58009223 0 0 Z " fill="#333331" transform="translate(257,61)"/>
<path d="M0 0 C1.32 0.33 2.64 0.66 4 1 C3.3503125 1.62648438 2.700625 2.25296875 2.03125 2.8984375 C0.77828125 4.12433594 0.77828125 4.12433594 -0.5 5.375 C-1.3353125 6.18710938 -2.170625 6.99921875 -3.03125 7.8359375 C-5.22431286 9.7589659 -5.22431286 9.7589659 -5 12 C-5.99 12.66 -6.98 13.32 -8 14 C-8.99 13.67 -9.98 13.34 -11 13 C-7.37 8.71 -3.74 4.42 0 0 Z " fill="#FEC80A" transform="translate(405,81)"/>
<path d="M0 0 C0.99 0.33 1.98 0.66 3 1 C-6.41002278 11.55808656 -6.41002278 11.55808656 -11 16 C-10.41135171 12.10586517 -8.53589895 9.87170398 -6.0625 6.875 C-5.35222656 6.00617188 -4.64195312 5.13734375 -3.91015625 4.2421875 C-2 2 -2 2 0 0 Z " fill="#FEC80B" transform="translate(393,96)"/>
<path d="M0 0 C0.99 0 1.98 0 3 0 C3 4.62 3 9.24 3 14 C2.01 14 1.02 14 0 14 C0 9.38 0 4.76 0 0 Z " fill="#40403E" transform="translate(275,112)"/>
<path d="M0 0 C0.99 0 1.98 0 3 0 C3 4.62 3 9.24 3 14 C2.01 14 1.02 14 0 14 C0 9.38 0 4.76 0 0 Z " fill="#40403E" transform="translate(257,112)"/>
<path d="M0 0 C0 3 0 3 -2.08203125 5.19140625 C-3.43361328 6.36509766 -3.43361328 6.36509766 -4.8125 7.5625 C-5.70582031 8.34753906 -6.59914063 9.13257812 -7.51953125 9.94140625 C-10 12 -10 12 -13 14 C-12.51077907 9.75765137 -11.46375972 8.01738975 -8.1875 5.3125 C-7.15689453 4.44044922 -7.15689453 4.44044922 -6.10546875 3.55078125 C-4.13312503 2.09805313 -2.22373085 1.01442104 0 0 Z " fill="#19B2A8" transform="translate(434,84)"/>
<path d="M0 0 C0.99 0 1.98 0 3 0 C3 4.62 3 9.24 3 14 C2.01 14 1.02 14 0 14 C0 9.38 0 4.76 0 0 Z " fill="#40403E" transform="translate(285,86)"/>
<path d="M0 0 C0.99 0 1.98 0 3 0 C3 4.62 3 9.24 3 14 C2.01 14 1.02 14 0 14 C0 9.38 0 4.76 0 0 Z " fill="#40403E" transform="translate(137,86)"/>
<path d="M0 0 C0.99 0 1.98 0 3 0 C3 4.62 3 9.24 3 14 C2.01 14 1.02 14 0 14 C0 9.38 0 4.76 0 0 Z " fill="#40403E" transform="translate(60,86)"/>
<path d="M0 0 C0.99 0 1.98 0 3 0 C3 4.62 3 9.24 3 14 C2.01 14 1.02 14 0 14 C0 9.38 0 4.76 0 0 Z " fill="#40403E" transform="translate(282,61)"/>
<path d="M0 0 C0.33 0.66 0.66 1.32 1 2 C2.32 2 3.64 2 5 2 C5 2.66 5 3.32 5 4 C3.68 4 2.36 4 1 4 C0.938125 5.27875 0.87625 6.5575 0.8125 7.875 C0.77769531 8.59429687 0.74289062 9.31359375 0.70703125 10.0546875 C0.80371094 10.69664062 0.90039062 11.33859375 1 12 C1.99 12.66 2.98 13.32 4 14 C2.33388095 14.042721 0.66617115 14.04063832 -1 14 C-1.33 13.67 -1.66 13.34 -2 13 C-1.91062197 11.47480724 -1.75462854 9.95318071 -1.5625 8.4375 C-1.46066406 7.61121094 -1.35882813 6.78492188 -1.25390625 5.93359375 C-1.17011719 5.29550781 -1.08632813 4.65742188 -1 4 C-1.66 4 -2.32 4 -3 4 C-3 3.34 -3 2.68 -3 2 C-2.01 2 -1.02 2 0 2 C0 1.34 0 0.68 0 0 Z " fill="#5F5F5E" transform="translate(451,205)"/>
<path d="M0 0 C0.33 0.99 0.66 1.98 1 3 C-0.57826815 4.46381359 -2.16282229 5.92085163 -3.75 7.375 C-4.63171875 8.18710938 -5.5134375 8.99921875 -6.421875 9.8359375 C-8.59802521 11.6625848 -10.40820119 12.89787994 -13 14 C-12.70795374 10.80939456 -11.91826641 9.92305144 -9.53125 7.67578125 C-8.5309375 6.89589844 -7.530625 6.11601563 -6.5 5.3125 C-5.4996875 4.52488281 -4.499375 3.73726563 -3.46875 2.92578125 C-2.6540625 2.29027344 -1.839375 1.65476562 -1 1 C-0.67 0.67 -0.34 0.34 0 0 Z " fill="#6EC3B8" transform="translate(434,72)"/>
<path d="M0 0 C0 2.64 0 5.28 0 8 C-0.66 8 -1.32 8 -2 8 C-2 8.33 -2 8.66 -2 9 C-4.31 9 -6.62 9 -9 9 C-3.4 0 -3.4 0 0 0 Z " fill="#A6A6A6" transform="translate(634,69)"/>
<path d="M0 0 C1.32 0 2.64 0 4 0 C4 1.65 4 3.3 4 5 C3.01 5 2.02 5 1 5 C0.67 6.32 0.34 7.64 0 9 C-0.99 9 -1.98 9 -3 9 C-3.33 7.35 -3.66 5.7 -4 4 C-3.01 4 -2.02 4 -1 4 C-0.67 2.68 -0.34 1.36 0 0 Z " fill="#F3F3F3" transform="translate(616,40)"/>
<path d="M0 0 C1.67542976 0.28604898 3.34385343 0.61781233 5 1 C5 2.65 5 4.3 5 6 C2.69 6 0.38 6 -2 6 C-1.125 1.125 -1.125 1.125 0 0 Z " fill="#9A9A99" transform="translate(627,92)"/>
<path d="M0 0 C0 0.99 0 1.98 0 3 C-2.95664519 4.4783226 -5.74229737 4.06032783 -9 4 C-9.33 3.01 -9.66 2.02 -10 1 C-6.78548731 -0.60725635 -3.56387464 -0.05748185 0 0 Z " fill="#FFFFFF" transform="translate(406,106)"/>
<path d="M0 0 C0.66 0.33 1.32 0.66 2 1 C2 1.66 2 2.32 2 3 C-0.64 3 -3.28 3 -6 3 C-6.66 4.65 -7.32 6.3 -8 8 C-8.99 7.34 -9.98 6.68 -11 6 C-8.69593074 -0.41847866 -6.68377898 -0.23870639 0 0 Z " fill="#3E3E3C" transform="translate(209,61)"/>
<path d="M0 0 C2.97 0 5.94 0 9 0 C9 1.32 9 2.64 9 4 C6.36 4 3.72 4 1 4 C0.67 2.68 0.34 1.36 0 0 Z " fill="#D0D0D0" transform="translate(624,34)"/>
<path d="M0 0 C2.5654594 2.5654594 2.54046087 4.47686668 3 8 C0.69 8 -1.62 8 -4 8 C-2.68 5.36 -1.36 2.72 0 0 Z " fill="#EEEEEE" transform="translate(490,229)"/>
<path d="M0 0 C2.5654594 2.5654594 2.54046087 4.47686668 3 8 C0.69 8 -1.62 8 -4 8 C-2.68 5.36 -1.36 2.72 0 0 Z " fill="#EEEEEE" transform="translate(390,206)"/>
<path d="M0 0 C0.99 0 1.98 0 3 0 C3 3.63 3 7.26 3 11 C2.01 10.67 1.02 10.34 0 10 C0 6.7 0 3.4 0 0 Z " fill="#484847" transform="translate(154,112)"/>
<path d="M0 0 C0.33 0.66 0.66 1.32 1 2 C-1.40545638 3.20272819 -2.94996953 3.10071472 -5.625 3.0625 C-6.85089844 3.04896484 -6.85089844 3.04896484 -8.1015625 3.03515625 C-9.04128906 3.01775391 -9.04128906 3.01775391 -10 3 C-7.0825138 -1.3762293 -4.79894123 -1.3891672 0 0 Z " fill="#FFFFFF" transform="translate(568,93)"/>
<path d="M0 0 C0.99 0 1.98 0 3 0 C3 3.63 3 7.26 3 11 C2.01 10.67 1.02 10.34 0 10 C0 6.7 0 3.4 0 0 Z " fill="#484847" transform="translate(219,86)"/>
<path d="M0 0 C0.66 0 1.32 0 2 0 C1.125 4.875 1.125 4.875 0 6 C-2.67058851 6.14115161 -5.32432238 6.04247107 -8 6 C-8.33 5.01 -8.66 4.02 -9 3 C-6.36 3 -3.72 3 -1 3 C-0.67 2.01 -0.34 1.02 0 0 Z " fill="#272725" transform="translate(169,120)"/>
<path d="M0 0 C0.66 0 1.32 0 2 0 C1.125 4.875 1.125 4.875 0 6 C-2.67058851 6.14115161 -5.32432238 6.04247107 -8 6 C-8.33 5.01 -8.66 4.02 -9 3 C-6.36 3 -3.72 3 -1 3 C-0.67 2.01 -0.34 1.02 0 0 Z " fill="#272725" transform="translate(139,120)"/>
<path d="M0 0 C0.66 0 1.32 0 2 0 C1.125 4.875 1.125 4.875 0 6 C-2.67058851 6.14115161 -5.32432238 6.04247107 -8 6 C-8.33 5.01 -8.66 4.02 -9 3 C-6.36 3 -3.72 3 -1 3 C-0.67 2.01 -0.34 1.02 0 0 Z " fill="#272725" transform="translate(301,94)"/>
<path d="M0 0 C0.66 0 1.32 0 2 0 C1.125 4.875 1.125 4.875 0 6 C-2.67058851 6.14115161 -5.32432238 6.04247107 -8 6 C-8.33 5.01 -8.66 4.02 -9 3 C-6.36 3 -3.72 3 -1 3 C-0.67 2.01 -0.34 1.02 0 0 Z " fill="#272725" transform="translate(180,69)"/>
<path d="M0 0 C1.98 0 3.96 0 6 0 C5.67 1.32 5.34 2.64 5 4 C2.69 4 0.38 4 -2 4 C-1.34 2.68 -0.68 1.36 0 0 Z " fill="#F7F7F7" transform="translate(462,209)"/>
<path d="M0 0 C1.98 0 3.96 0 6 0 C5.67 1.32 5.34 2.64 5 4 C2.69 4 0.38 4 -2 4 C-1.34 2.68 -0.68 1.36 0 0 Z " fill="#F7F7F7" transform="translate(423,209)"/>
<path d="M0 0 C0 0.66 0 1.32 0 2 C-3.21451269 3.60725635 -6.43612536 3.05748185 -10 3 C-7.00991906 -1.48512141 -4.87831759 -1.18661779 0 0 Z " fill="#FFFFFF" transform="translate(464,93)"/>
<path d="M0 0 C1.65 0 3.3 0 5 0 C5.5625 1.9375 5.5625 1.9375 6 4 C5 5 5 5 2.4375 5.0625 C1.2309375 5.0315625 1.2309375 5.0315625 0 5 C0 3.35 0 1.7 0 0 Z " fill="#EEEEEE" transform="translate(228,88)"/>
<path d="M0 0 C1.65 0 3.3 0 5 0 C5.5625 1.9375 5.5625 1.9375 6 4 C5 5 5 5 2.4375 5.0625 C1.2309375 5.0315625 1.2309375 5.0315625 0 5 C0 3.35 0 1.7 0 0 Z " fill="#EEEEEE" transform="translate(271,63)"/>
<path d="M0 0 C1.65 0 3.3 0 5 0 C5.5625 1.9375 5.5625 1.9375 6 4 C5 5 5 5 2.4375 5.0625 C1.2309375 5.0315625 1.2309375 5.0315625 0 5 C0 3.35 0 1.7 0 0 Z " fill="#EEEEEE" transform="translate(217,63)"/>
<path d="M0 0 C0.66 0 1.32 0 2 0 C2 1.32 2 2.64 2 4 C3.98 4 5.96 4 8 4 C7.67 5.32 7.34 6.64 7 8 C4.03 8 1.06 8 -2 8 C-0.68 7.34 0.64 6.68 2 6 C1.34 4.02 0.68 2.04 0 0 Z " fill="#B9B9B8" transform="translate(618,22)"/>
<path d="M0 0 C1.65 0 3.3 0 5 0 C5 2.31 5 4.62 5 7 C4.67 6.01 4.34 5.02 4 4 C3.01 4 2.02 4 1 4 C0.67 5.32 0.34 6.64 0 8 C0 5.36 0 2.72 0 0 Z " fill="#FBFBFB" transform="translate(626,40)"/>
<path d="M0 0 C0 0.99 0 1.98 0 3 C-3.465 4.485 -3.465 4.485 -7 6 C-7.33 4.68 -7.66 3.36 -8 2 C-4.91190305 0.23537317 -3.76687864 0 0 0 Z " fill="#CDCDCD" transform="translate(610,37)"/>
<path d="M0 0 C1.98 0.495 1.98 0.495 4 1 C3.67 2.65 3.34 4.3 3 6 C1.68 5.67 0.36 5.34 -1 5 C-0.67 3.35 -0.34 1.7 0 0 Z " fill="#DFDFDE" transform="translate(625,233)"/>
<path d="M0 0 C2.375 0.25 2.375 0.25 5 1 C6.3125 3.0625 6.3125 3.0625 7 5 C6.01 6.485 6.01 6.485 5 8 C4.67 6.68 4.34 5.36 4 4 C2.02 4 0.04 4 -2 4 C-1.34 2.68 -0.68 1.36 0 0 Z " fill="#DCDCDC" transform="translate(627,89)"/>
<path d="M0 0 C2.97 0.33 5.94 0.66 9 1 C8.67 3.31 8.34 5.62 8 8 C7.34 7.67 6.68 7.34 6 7 C5.896875 6.360625 5.79375 5.72125 5.6875 5.0625 C5.3471875 4.0415625 5.3471875 4.0415625 5 3 C2.50965614 1.70339566 2.50965614 1.70339566 0 1 C0 0.67 0 0.34 0 0 Z " fill="#6C6C6B" transform="translate(543,230)"/>
<path d="M0 0 C0.99 0 1.98 0 3 0 C3.33 2.31 3.66 4.62 4 7 C2.35 6.67 0.7 6.34 -1 6 C-1.042721 4.33388095 -1.04063832 2.66617115 -1 1 C-0.67 0.67 -0.34 0.34 0 0 Z " fill="#9C9C9B" transform="translate(625,106)"/>
<path d="M0 0 C1.98 0 3.96 0 6 0 C5.19185349 1.33597652 4.37836819 2.668725 3.5625 4 C3.11003906 4.7425 2.65757812 5.485 2.19140625 6.25 C1.79824219 6.8275 1.40507813 7.405 1 8 C0.67 8 0.34 8 0 8 C0 5.36 0 2.72 0 0 Z " fill="#E77575" transform="translate(519,82)"/>
<path d="M0 0 C0.99 0.33 1.98 0.66 3 1 C3.625 4.375 3.625 4.375 4 8 C3.34 8.66 2.68 9.32 2 10 C2 8.68 2 7.36 2 6 C1.01 6 0.02 6 -1 6 C-0.67 4.02 -0.34 2.04 0 0 Z " fill="#AFAFAE" transform="translate(646,46)"/>
<path d="M0 0 C0.99 0 1.98 0 3 0 C3 1.65 3 3.3 3 5 C2.34 5 1.68 5 1 5 C1 5.99 1 6.98 1 8 C0.34 8 -0.32 8 -1 8 C-1.04241723 5.66705225 -1.04092937 3.33297433 -1 1 C-0.67 0.67 -0.34 0.34 0 0 Z " fill="#ECECEC" transform="translate(607,42)"/>
<path d="M0 0 C2.64 0 5.28 0 8 0 C8.33 0.99 8.66 1.98 9 3 C7.01432292 2.96744792 5.02864583 2.93489583 3.04296875 2.90234375 C0.79694539 2.91736783 0.79694539 2.91736783 -2 4 C-1.34 2.68 -0.68 1.36 0 0 Z " fill="#323230" transform="translate(162,112)"/>
<path d="M0 0 C2.64 0 5.28 0 8 0 C8.33 0.99 8.66 1.98 9 3 C7.01432292 2.96744792 5.02864583 2.93489583 3.04296875 2.90234375 C0.79694539 2.91736783 0.79694539 2.91736783 -2 4 C-1.34 2.68 -0.68 1.36 0 0 Z " fill="#323230" transform="translate(132,112)"/>
<path d="M0 0 C2.64 0 5.28 0 8 0 C8.33 0.99 8.66 1.98 9 3 C7.01432292 2.96744792 5.02864583 2.93489583 3.04296875 2.90234375 C0.79694539 2.91736783 0.79694539 2.91736783 -2 4 C-1.34 2.68 -0.68 1.36 0 0 Z " fill="#323230" transform="translate(294,86)"/>
<path d="M0 0 C2.64 0 5.28 0 8 0 C8.33 0.99 8.66 1.98 9 3 C7.01432292 2.96744792 5.02864583 2.93489583 3.04296875 2.90234375 C0.79694539 2.91736783 0.79694539 2.91736783 -2 4 C-1.34 2.68 -0.68 1.36 0 0 Z " fill="#323230" transform="translate(173,61)"/>
<path d="M0 0 C2.31 0 4.62 0 7 0 C6.34 1.65 5.68 3.3 5 5 C4.01 5 3.02 5 2 5 C1.34 3.35 0.68 1.7 0 0 Z " fill="#B0B0AF" transform="translate(625,67)"/>
<path d="M0 0 C1.65 0 3.3 0 5 0 C5 1.32 5 2.64 5 4 C3.35 4 1.7 4 0 4 C0 2.68 0 1.36 0 0 Z " fill="#EBEBEA" transform="translate(246,120)"/>
<path d="M0 0 C0.66 0 1.32 0 2 0 C1.75 3.375 1.75 3.375 1 7 C-1.0625 8.4375 -1.0625 8.4375 -3 9 C-2.30058404 5.85262818 -1.23921302 2.97411124 0 0 Z " fill="#30302F" transform="translate(337,91)"/>
<path d="M0 0 C0.66 0 1.32 0 2 0 C1.75 3.375 1.75 3.375 1 7 C-1.0625 8.4375 -1.0625 8.4375 -3 9 C-2.30058404 5.85262818 -1.23921302 2.97411124 0 0 Z " fill="#30302F" transform="translate(79,91)"/>
<path d="M0 0 C1.65 0 3.3 0 5 0 C5 1.32 5 2.64 5 4 C3.35 4 1.7 4 0 4 C0 2.68 0 1.36 0 0 Z " fill="#EBEBEA" transform="translate(242,94)"/>
<path d="M0 0 C1.65 0 3.3 0 5 0 C5 1.32 5 2.64 5 4 C3.35 4 1.7 4 0 4 C0 2.68 0 1.36 0 0 Z " fill="#EBEBEA" transform="translate(125,94)"/>
<path d="M0 0 C0.66 0 1.32 0 2 0 C1.75 3.375 1.75 3.375 1 7 C-1.0625 8.4375 -1.0625 8.4375 -3 9 C-2.30058404 5.85262818 -1.23921302 2.97411124 0 0 Z " fill="#30302F" transform="translate(337,66)"/>
<path d="M0 0 C1.32 0.33 2.64 0.66 4 1 C4 2.32 4 3.64 4 5 C2.02 5 0.04 5 -2 5 C-1.34 3.35 -0.68 1.7 0 0 Z " fill="#A7A7A6" transform="translate(617,45)"/>
<path d="M0 0 C0.99 0.33 1.98 0.66 3 1 C2.67 2.65 2.34 4.3 2 6 C1.01 6 0.02 6 -1 6 C-1.042721 4.33388095 -1.04063832 2.66617115 -1 1 C-0.67 0.67 -0.34 0.34 0 0 Z " fill="#EFEFEF" transform="translate(518,210)"/>
<path d="M0 0 C0.33 0.99 0.66 1.98 1 3 C3.01508358 3.73323796 3.01508358 3.73323796 5 4 C3.35 4 1.7 4 0 4 C-0.33 4.99 -0.66 5.98 -1 7 C-1.66 7 -2.32 7 -3 7 C-2.25 2.25 -2.25 2.25 0 0 Z " fill="#272725" transform="translate(301,119)"/>
<path d="M0 0 C0.33 0.99 0.66 1.98 1 3 C3.01508358 3.73323796 3.01508358 3.73323796 5 4 C3.35 4 1.7 4 0 4 C-0.33 4.99 -0.66 5.98 -1 7 C-1.66 7 -2.32 7 -3 7 C-2.25 2.25 -2.25 2.25 0 0 Z " fill="#272725" transform="translate(230,119)"/>
<path d="M0 0 C1.32 0.99 2.64 1.98 4 3 C3.6875 4.9375 3.6875 4.9375 3 7 C2.01 7.33 1.02 7.66 0 8 C0 5.36 0 2.72 0 0 Z " fill="#3D3D3C" transform="translate(251,118)"/>
<path d="M0 0 C2.875 -0.125 2.875 -0.125 6 0 C6.66 0.66 7.32 1.32 8 2 C8.99 2.33 9.98 2.66 11 3 C9.125 4.0625 9.125 4.0625 7 5 C4.36443095 3.68221547 2.27730447 1.85780102 0 0 Z " fill="#C5C5C5" transform="translate(616,114)"/>
<path d="M0 0 C0.33 0.99 0.66 1.98 1 3 C3.01508358 3.73323796 3.01508358 3.73323796 5 4 C3.35 4 1.7 4 0 4 C-0.33 4.99 -0.66 5.98 -1 7 C-1.66 7 -2.32 7 -3 7 C-2.25 2.25 -2.25 2.25 0 0 Z " fill="#272725" transform="translate(256,93)"/>
<path d="M0 0 C0.33 0.99 0.66 1.98 1 3 C3.01508358 3.73323796 3.01508358 3.73323796 5 4 C3.35 4 1.7 4 0 4 C-0.33 4.99 -0.66 5.98 -1 7 C-1.66 7 -2.32 7 -3 7 C-2.25 2.25 -2.25 2.25 0 0 Z " fill="#272725" transform="translate(92,93)"/>
<path d="M0 0 C1.32 0.99 2.64 1.98 4 3 C3.6875 4.9375 3.6875 4.9375 3 7 C2.01 7.33 1.02 7.66 0 8 C0 5.36 0 2.72 0 0 Z " fill="#3D3D3C" transform="translate(247,92)"/>
<path d="M0 0 C1.32 0.99 2.64 1.98 4 3 C3.6875 4.9375 3.6875 4.9375 3 7 C2.01 7.33 1.02 7.66 0 8 C0 5.36 0 2.72 0 0 Z " fill="#3D3D3C" transform="translate(130,92)"/>
<path d="M0 0 C0.33 0.99 0.66 1.98 1 3 C3.01508358 3.73323796 3.01508358 3.73323796 5 4 C3.35 4 1.7 4 0 4 C-0.33 4.99 -0.66 5.98 -1 7 C-1.66 7 -2.32 7 -3 7 C-2.25 2.25 -2.25 2.25 0 0 Z " fill="#272725" transform="translate(292,68)"/>
<path d="M0 0 C0.33 0.99 0.66 1.98 1 3 C3.01508358 3.73323796 3.01508358 3.73323796 5 4 C3.35 4 1.7 4 0 4 C-0.33 4.99 -0.66 5.98 -1 7 C-1.66 7 -2.32 7 -3 7 C-2.25 2.25 -2.25 2.25 0 0 Z " fill="#272725" transform="translate(255,68)"/>
<path d="M0 0 C1.32 0 2.64 0 4 0 C4 1.98 4 3.96 4 6 C2.68 5.67 1.36 5.34 0 5 C0 3.35 0 1.7 0 0 Z " fill="#F3F3F3" transform="translate(637,40)"/>
<path d="M0 0 C0.33 0 0.66 0 1 0 C1 2.31 1 4.62 1 7 C-0.65 7 -2.3 7 -4 7 C-2.68 4.69 -1.36 2.38 0 0 Z " fill="#D71E50" transform="translate(532,114)"/>
<path d="M0 0 C2 3 2 3 3 6 C1.35 6.33 -0.3 6.66 -2 7 C-2 6.34 -2 5.68 -2 5 C-3.65 5 -5.3 5 -7 5 C-7 4.67 -7 4.34 -7 4 C-4.69 4 -2.38 4 0 4 C0 2.68 0 1.36 0 0 Z " fill="#DEDEDE" transform="translate(633,35)"/>
<path d="M0 0 C0.33 0 0.66 0 1 0 C1 1.65 1 3.3 1 5 C1.66 5.33 2.32 5.66 3 6 C1.68 7.32 0.36 8.64 -1 10 C-2.31223496 6.06329512 -1.24296256 3.87511856 0 0 Z " fill="#4D4D4B" transform="translate(323,116)"/>
<path d="M0 0 C0.33 0 0.66 0 1 0 C1 1.65 1 3.3 1 5 C1.66 5.33 2.32 5.66 3 6 C1.68 7.32 0.36 8.64 -1 10 C-2.31223496 6.06329512 -1.24296256 3.87511856 0 0 Z " fill="#4D4D4B" transform="translate(292,116)"/>
<path d="M0 0 C2.475 0.495 2.475 0.495 5 1 C5 1.99 5 2.98 5 4 C3.35 4 1.7 4 0 4 C0 2.68 0 1.36 0 0 Z " fill="#EBEBEA" transform="translate(246,114)"/>
<path d="M0 0 C1.32 0.66 2.64 1.32 4 2 C4 3.98 4 5.96 4 8 C3.34 8 2.68 8 2 8 C1.814375 6.824375 1.814375 6.824375 1.625 5.625 C1.20882007 2.85942178 1.20882007 2.85942178 -1 1 C-0.67 0.67 -0.34 0.34 0 0 Z " fill="#2B2B29" transform="translate(322,113)"/>
<path d="M0 0 C1.32 0.66 2.64 1.32 4 2 C4 3.98 4 5.96 4 8 C3.34 8 2.68 8 2 8 C1.814375 6.824375 1.814375 6.824375 1.625 5.625 C1.20882007 2.85942178 1.20882007 2.85942178 -1 1 C-0.67 0.67 -0.34 0.34 0 0 Z " fill="#2B2B29" transform="translate(291,113)"/>
<path d="M0 0 C2.475 0.495 2.475 0.495 5 1 C5 1.99 5 2.98 5 4 C3.35 4 1.7 4 0 4 C0 2.68 0 1.36 0 0 Z " fill="#EBEBEA" transform="translate(242,88)"/>
<path d="M0 0 C2.475 0.495 2.475 0.495 5 1 C5 1.99 5 2.98 5 4 C3.35 4 1.7 4 0 4 C0 2.68 0 1.36 0 0 Z " fill="#EBEBEA" transform="translate(125,88)"/>
<path d="M0 0 C0.33 0 0.66 0 1 0 C1 1.65 1 3.3 1 5 C1.66 5.33 2.32 5.66 3 6 C1.68 7.32 0.36 8.64 -1 10 C-2.31223496 6.06329512 -1.24296256 3.87511856 0 0 Z " fill="#4D4D4B" transform="translate(318,65)"/>
<path d="M0 0 C1.32 0.66 2.64 1.32 4 2 C4 3.98 4 5.96 4 8 C3.34 8 2.68 8 2 8 C1.814375 6.824375 1.814375 6.824375 1.625 5.625 C1.20882007 2.85942178 1.20882007 2.85942178 -1 1 C-0.67 0.67 -0.34 0.34 0 0 Z " fill="#2B2B29" transform="translate(317,62)"/>
<path d="M0 0 C0.33 0.66 0.66 1.32 1 2 C1.99 2 2.98 2 4 2 C4 3.32 4 4.64 4 6 C2.68 6.33 1.36 6.66 0 7 C0 4.69 0 2.38 0 0 Z " fill="#ABABAA" transform="translate(662,56)"/>
<path d="M0 0 C1.32 0.66 2.64 1.32 4 2 C4 2.66 4 3.32 4 4 C3.34 4 2.68 4 2 4 C1.67 5.32 1.34 6.64 1 8 C0.34 5.69 -0.32 3.38 -1 1 C-0.67 0.67 -0.34 0.34 0 0 Z " fill="#575756" transform="translate(335,87)"/>
<path d="M0 0 C1.32 0.66 2.64 1.32 4 2 C4 2.66 4 3.32 4 4 C3.34 4 2.68 4 2 4 C1.67 5.32 1.34 6.64 1 8 C0.34 5.69 -0.32 3.38 -1 1 C-0.67 0.67 -0.34 0.34 0 0 Z " fill="#575756" transform="translate(77,87)"/>
<path d="M0 0 C1.32 0.66 2.64 1.32 4 2 C4 2.66 4 3.32 4 4 C3.34 4 2.68 4 2 4 C1.67 5.32 1.34 6.64 1 8 C0.34 5.69 -0.32 3.38 -1 1 C-0.67 0.67 -0.34 0.34 0 0 Z " fill="#575756" transform="translate(335,62)"/>
<path d="M0 0 C1.32 0.66 2.64 1.32 4 2 C3.67 2.99 3.34 3.98 3 5 C1.68 5 0.36 5 -1 5 C-0.67 3.35 -0.34 1.7 0 0 Z " fill="#F9F9F9" transform="translate(648,42)"/>
</svg>
